<svg width="50" height="37" viewBox="0 0 50 37" fill="none" xmlns="http://www.w3.org/2000/svg">
<path id="Vector" d="M48.1763 6.95188C45.4815 1.71097 38.755 -0.221284 33.499 2.51564L28.7402 4.99845C29.8791 6.56543 30.7079 8.35476 31.1357 10.2447C31.248 10.7423 30.986 11.2558 30.4726 11.3987C29.9968 11.5258 29.4193 11.2399 29.307 10.7423C29.0771 9.72586 28.7295 8.75179 28.2697 7.84125C27.7136 6.73484 26.9437 5.75018 26.0614 4.88199L24.3665 3.20384C20.399 -0.7242 13.9881 -1.13183 9.73192 2.48917C5.47577 6.11016 4.95177 11.7375 7.5985 16.0203L6.30989 16.6926C1.36933 19.2654 -0.913809 25.1733 1.28378 30.2607C3.74871 35.9675 10.6088 38.2968 16.052 35.4593L21.4043 32.6694C21.1369 32.3412 20.8589 32.0236 20.6183 31.6689C19.8964 30.5783 19.3457 29.366 18.9661 28.1167C18.8163 27.6297 19.1425 27.095 19.6291 26.9626C20.1317 26.825 20.645 27.132 20.7947 27.6191C21.1369 28.7414 21.5807 29.7049 22.2544 30.7213C22.5057 31.0971 22.7838 31.4518 23.0832 31.7959L23.1634 31.8806L24.5269 33.2359C28.4889 37.1586 35.21 37.8415 39.4608 34.2311C43.193 31.0601 44.102 25.9568 42.2091 21.8329L43.6475 21.0812C48.7912 18.4025 50.807 12.071 48.1763 6.95718V6.95188Z" fill="#F0F0F0"/>
</svg>
