<svg width="50" height="37" viewBox="0 0 50 37" fill="none" xmlns="http://www.w3.org/2000/svg">
<path id="Vector" d="M47.8965 6.95188C45.2017 1.71097 38.4753 -0.221284 33.2192 2.51564L28.4605 4.99845C29.5994 6.56543 30.4281 8.35476 30.8559 10.2447C30.9682 10.7423 30.7062 11.2558 30.1929 11.3987C29.717 11.5258 29.1395 11.2399 29.0272 10.7423C28.7973 9.72586 28.4498 8.75179 27.9899 7.84125C27.4338 6.73484 26.6639 5.75018 25.7816 4.88199L24.0867 3.20384C20.1193 -0.7242 13.7083 -1.13183 9.45214 2.48917C5.19598 6.11016 4.67198 11.7375 7.31871 16.0203L6.0301 16.6926C1.08954 19.2654 -1.19359 25.1733 1.00399 30.2607C3.46893 35.9675 10.329 38.2968 15.7722 35.4593L21.1245 32.6694C20.8571 32.3412 20.5791 32.0236 20.3385 31.6689C19.6166 30.5783 19.0659 29.366 18.6863 28.1167C18.5366 27.6297 18.8627 27.095 19.3493 26.9626C19.8519 26.825 20.3652 27.132 20.5149 27.6191C20.8571 28.7414 21.3009 29.7049 21.9746 30.7213C22.2259 31.0971 22.504 31.4518 22.8034 31.7959L22.8836 31.8806L24.2471 33.2359C28.2092 37.1586 34.9302 37.8415 39.181 34.2311C42.9132 31.0601 43.8222 25.9568 41.9294 21.8329L43.3677 21.0812C48.5114 18.4025 50.5272 12.071 47.8965 6.95718V6.95188Z" fill="#333B4F"/>
</svg>
