<svg width="205" height="132" viewBox="0 0 205 132" fill="none" xmlns="http://www.w3.org/2000/svg">
<path d="M177.081 99.1983C175.257 96.8804 173.272 94.7793 171.791 92.3588C169.764 89.051 170.088 82.4546 173.751 80.3528C175.264 79.4811 176.66 79.5901 178.073 79.9437C182.145 80.9462 184.732 83.8181 186.297 87.4763C187.439 90.1369 188.039 93.035 188.928 95.9824C193.067 95.0672 196.149 92.5764 197.69 88.3769C198.278 86.7761 198.553 85.0493 198.837 83.3429C199.028 82.2002 199.447 81.6813 200.71 81.7785C204.861 82.1102 204.172 81.7352 203.562 85.2187C202.684 90.2611 200.722 94.7404 196.426 97.8827C193.758 99.8188 190.712 100.534 187.481 100.896C185.705 101.097 183.871 101.517 182.271 102.291C178.52 104.107 174.547 104.739 170.487 104.984C168.446 105.111 166.379 104.922 164.33 104.876C164.009 104.867 163.424 104.783 163.425 104.733C163.425 103.353 163.364 101.953 163.624 100.613C163.689 100.278 164.773 99.9556 165.4 99.9176C169.114 99.6892 172.837 99.5321 176.555 99.3393C176.815 99.3273 177.077 99.1627 177.077 99.1627L177.081 99.1983ZM183.11 95.294C183.654 93.1329 182.764 91.1218 181.856 89.4107C180.922 87.6739 179.25 86.2942 177.747 84.9217C177.035 84.2666 176.041 84.2796 175.68 85.5677C174.581 89.4776 178.87 95.1698 183.13 95.2841L183.11 95.294Z" fill="#C2EC81"/>
<path d="M24.154 28.4201C22.6181 30.663 21.3171 32.9872 19.5966 34.9569C17.2462 37.6508 11.356 39.1831 8.49856 36.5407C7.31506 35.4498 7.02653 34.1926 6.94814 32.8525C6.70808 28.9956 8.52088 25.9288 11.3069 23.5452C13.3319 21.8076 15.7154 20.482 18.0624 18.8879C16.1173 15.5 13.078 13.4763 8.96046 13.2783C7.39049 13.2013 5.79633 13.4358 4.21743 13.6559C3.15989 13.8025 2.58818 13.5772 2.32572 12.4397C1.47405 8.69822 1.33407 9.40746 4.56551 8.98437C9.24158 8.36688 13.7212 8.85826 17.6681 11.7712C20.1056 13.5835 21.5736 16.0653 22.7816 18.8068C23.4483 20.3132 24.323 21.8109 25.4441 23.004C28.0743 25.8031 29.7248 29.1227 31.0583 32.626C31.7322 34.3852 32.1359 36.2553 32.6598 38.0696C32.7402 38.3544 32.8279 38.8921 32.783 38.9056C31.5701 39.2853 30.3555 39.7245 29.1053 39.8653C28.7927 39.9004 28.2106 39.0357 28.0043 38.4944C26.7805 35.2917 25.6168 32.0611 24.423 28.8444C24.3408 28.619 24.1239 28.4341 24.1239 28.4341L24.154 28.4201ZM19.0598 24.1944C17.0094 24.3111 15.4859 25.6476 14.2315 26.9179C12.9613 28.2175 12.2085 30.0677 11.4158 31.768C11.0355 32.5741 11.3209 33.4447 12.5531 33.4074C16.2943 33.2969 20.1185 27.957 19.0455 24.1791L19.0598 24.1944Z" fill="#F8E381"/>
<path d="M175.103 41.9638C171.784 42.9874 168.22 42.0176 166.015 39.4927C163.289 36.3663 163.476 31.6266 166.369 28.4853C164.2 25.7787 163.987 21.9866 165.984 18.9375C167.074 17.2731 168.753 16.0275 170.708 15.4247C172.937 14.7372 175.39 14.9364 177.439 15.9702L178.664 16.5878L181.298 14.0392C182.312 13.0601 183.57 12.3217 184.934 11.901C188.099 10.9249 191.441 11.6914 193.652 13.8985C196.813 17.0577 196.771 22.178 193.599 25.4226C195.279 28.0784 195.281 31.541 193.487 34.2733C192.439 35.8677 190.786 37.079 188.839 37.6793C186.49 38.404 183.918 38.202 181.787 37.1274L181.593 37.0295L178.638 39.8829C177.649 40.8411 176.423 41.5612 175.1 41.9691L175.103 41.9638Z" fill="#A4C8FF"/>
<path d="M38.3678 114.626C41.0847 114.667 43.5495 113.158 44.6517 110.778C46.0145 107.833 44.8353 104.314 41.9737 102.589C43.0098 100.081 42.3387 97.1858 40.1704 95.3335C38.9871 94.3223 37.453 93.7548 35.8528 93.7304C34.0279 93.7026 32.2295 94.3898 30.9168 95.6154L30.1326 96.3475L27.5954 95.0108C26.619 94.4977 25.5131 94.2186 24.3964 94.2016C21.8054 94.1621 19.4629 95.4704 18.286 97.6125C16.6047 100.678 17.7586 104.514 20.8514 106.256C20.1718 108.619 20.9291 111.22 22.8756 112.879C24.0119 113.847 25.519 114.394 27.1124 114.418C29.036 114.448 30.9234 113.732 32.288 112.458L32.4123 112.342L35.257 113.838C36.2096 114.341 37.2884 114.613 38.3711 114.629L38.3678 114.626Z" fill="#A4C8FF"/>
<circle cx="101.534" cy="66.0233" r="57.4667" fill="#66A3FF"/>
<rect x="62.7959" y="40.7339" width="77.4782" height="91.1509" rx="7" fill="#F3F3F3"/>
<ellipse cx="22.732" cy="74.0224" rx="2.04649" ry="1.93651" fill="#66A3FF"/>
<ellipse cx="45.4358" cy="5.75968" rx="5.66727" ry="5.3627" fill="#F8E381"/>
<path fill-rule="evenodd" clip-rule="evenodd" d="M121.16 40.7339L121.16 53.291C121.16 57.157 124.294 60.291 128.16 60.291L140.272 60.291L121.16 40.7339Z" fill="#D3D3D3"/>
<path fill-rule="evenodd" clip-rule="evenodd" d="M140.274 60.291V47.7339C140.274 43.8679 137.14 40.7339 133.274 40.7339H121.161L140.274 60.291Z" fill="#66A3FF"/>
<circle cx="101.534" cy="86.3092" r="14.2101" fill="#66A3FF"/>
<path d="M93.6309 85.0983L99.9805 91.448L109.437 81.1699" stroke="white" stroke-width="2"/>
</svg>
