<svg width="98" height="16" viewBox="0 0 98 16" fill="current" xmlns="http://www.w3.org/2000/svg">
<path d="M18.6042 3.4855C17.5998 1.43871 15.0929 0.684088 13.134 1.75296L11.3604 2.7226C11.7848 3.33457 12.0937 4.03337 12.2531 4.77146C12.295 4.9658 12.1973 5.16634 12.006 5.22216C11.8287 5.27178 11.6134 5.16014 11.5716 4.9658C11.4859 4.56885 11.3564 4.18843 11.185 3.83283C10.9777 3.40073 10.6908 3.01618 10.362 2.67712L9.73025 2.02173C8.25159 0.487679 5.86222 0.328484 4.27595 1.74263C2.68968 3.15677 2.49438 5.35448 3.48082 7.02706L3.00055 7.28963C1.1592 8.29441 0.308276 10.6017 1.12732 12.5885C2.046 14.8173 4.60277 15.7269 6.63144 14.6188L8.62623 13.5292C8.52659 13.401 8.42297 13.277 8.33329 13.1385C8.06426 12.7126 7.859 12.2391 7.71752 11.7512C7.66172 11.561 7.78328 11.3522 7.96462 11.3005C8.15195 11.2467 8.34326 11.3667 8.39905 11.5569C8.52659 11.9952 8.692 12.3714 8.94309 12.7684C9.03675 12.9152 9.14038 13.0537 9.25197 13.1881L9.28187 13.2212L9.79003 13.7504C11.2667 15.2824 13.7716 15.5491 15.3559 14.1391C16.7469 12.9007 17.0857 10.9077 16.3802 9.29713L16.9163 9.00355C18.8334 7.95742 19.5847 5.48473 18.6042 3.48756V3.4855Z" fill="#333B4F"/>
<path d="M38.4619 3.4855C37.4575 1.43871 34.9505 0.684088 32.9916 1.75296L31.218 2.7226C31.6425 3.33457 31.9514 4.03337 32.1108 4.77146C32.1526 4.9658 32.055 5.16634 31.8637 5.22216C31.6863 5.27178 31.4711 5.16014 31.4293 4.9658C31.3436 4.56885 31.214 4.18843 31.0427 3.83283C30.8354 3.40073 30.5484 3.01618 30.2196 2.67712L29.5879 2.02173C28.1093 0.487679 25.7199 0.328484 24.1336 1.74263C22.5473 3.15677 22.352 5.35448 23.3385 7.02706L22.8582 7.28963C21.0169 8.29441 20.1659 10.6017 20.985 12.5885C21.9037 14.8173 24.4604 15.7269 26.4891 14.6188L28.4839 13.5292C28.3843 13.401 28.2806 13.277 28.191 13.1385C27.9219 12.7126 27.7167 12.2391 27.5752 11.7512C27.5194 11.561 27.6409 11.3522 27.8223 11.3005C28.0096 11.2467 28.2009 11.3667 28.2567 11.5569C28.3843 11.9952 28.5497 12.3714 28.8008 12.7684C28.8944 12.9152 28.998 13.0537 29.1096 13.1881L29.1395 13.2212L29.6477 13.7504C31.1244 15.2824 33.6293 15.5491 35.2136 14.1391C36.6046 12.9007 36.9433 10.9077 36.2379 9.29713L36.774 9.00355C38.691 7.95742 39.4423 5.48473 38.4619 3.48756V3.4855Z" fill="#333B4F"/>
<path d="M58.319 3.4855C57.3147 1.43871 54.8077 0.684088 52.8488 1.75296L51.0752 2.7226C51.4997 3.33457 51.8086 4.03337 51.968 4.77146C52.0098 4.9658 51.9122 5.16634 51.7209 5.22216C51.5435 5.27178 51.3283 5.16014 51.2864 4.9658C51.2007 4.56885 51.0712 4.18843 50.8998 3.83283C50.6926 3.40073 50.4056 3.01618 50.0768 2.67712L49.4451 2.02173C47.9664 0.487679 45.5771 0.328484 43.9908 1.74263C42.4045 3.15677 42.2092 5.35448 43.1957 7.02706L42.7154 7.28963C40.874 8.29441 40.0231 10.6017 40.8422 12.5885C41.7608 14.8173 44.3176 15.7269 46.3463 14.6188L48.3411 13.5292C48.2414 13.401 48.1378 13.277 48.0481 13.1385C47.7791 12.7126 47.5738 12.2391 47.4324 11.7512C47.3766 11.561 47.4981 11.3522 47.6795 11.3005C47.8668 11.2467 48.0581 11.3667 48.1139 11.5569C48.2414 11.9952 48.4068 12.3714 48.6579 12.7684C48.7516 12.9152 48.8552 13.0537 48.9668 13.1881L48.9967 13.2212L49.5049 13.7504C50.9815 15.2824 53.4865 15.5491 55.0708 14.1391C56.4617 12.9007 56.8005 10.9077 56.0951 9.29713L56.6311 9.00355C58.5482 7.95742 59.2995 5.48473 58.319 3.48756V3.4855Z" fill="#333B4F"/>
<path d="M77.8459 3.4855C76.8415 1.43871 74.3346 0.684088 72.3757 1.75296L70.6021 2.7226C71.0265 3.33457 71.3354 4.03337 71.4948 4.77146C71.5367 4.9658 71.439 5.16634 71.2477 5.22216C71.0704 5.27178 70.8551 5.16014 70.8133 4.9658C70.7276 4.56885 70.5981 4.18843 70.4267 3.83283C70.2194 3.40073 69.9325 3.01618 69.6037 2.67712L68.9719 2.02173C67.4933 0.487679 65.1039 0.328484 63.5176 1.74263C61.9314 3.15677 61.7361 5.35448 62.7225 7.02706L62.2423 7.28963C60.4009 8.29441 59.55 10.6017 60.369 12.5885C61.2877 14.8173 63.8445 15.7269 65.8731 14.6188L67.8679 13.5292C67.7683 13.401 67.6647 13.277 67.575 13.1385C67.306 12.7126 67.1007 12.2391 66.9592 11.7512C66.9034 11.561 67.025 11.3522 67.2063 11.3005C67.3936 11.2467 67.585 11.3667 67.6408 11.5569C67.7683 11.9952 67.9337 12.3714 68.1848 12.7684C68.2785 12.9152 68.3821 13.0537 68.4937 13.1881L68.5236 13.2212L69.0317 13.7504C70.5084 15.2824 73.0133 15.5491 74.5976 14.1391C75.9886 12.9007 76.3274 10.9077 75.6219 9.29713L76.158 9.00355C78.0751 7.95742 78.8264 5.48473 77.8459 3.48756V3.4855Z" fill="#333B4F"/>
<path d="M97.3735 3.4855C96.3691 1.43871 93.8622 0.684088 91.9032 1.75296L90.1296 2.7226C90.5541 3.33457 90.863 4.03337 91.0224 4.77146C91.0643 4.9658 90.9666 5.16634 90.7753 5.22216C90.598 5.27178 90.3827 5.16014 90.3409 4.9658C90.2552 4.56885 90.1257 4.18843 89.9543 3.83283C89.747 3.40073 89.4601 3.01618 89.1313 2.67712L88.4995 2.02173C87.0209 0.487679 84.6315 0.328484 83.0452 1.74263C81.459 3.15677 81.2637 5.35448 82.2501 7.02706L81.7698 7.28963C79.9285 8.29441 79.0776 10.6017 79.8966 12.5885C80.8153 14.8173 83.3721 15.7269 85.4007 14.6188L87.3955 13.5292C87.2959 13.401 87.1923 13.277 87.1026 13.1385C86.8336 12.7126 86.6283 12.2391 86.4868 11.7512C86.431 11.561 86.5526 11.3522 86.7339 11.3005C86.9212 11.2467 87.1125 11.3667 87.1683 11.5569C87.2959 11.9952 87.4613 12.3714 87.7124 12.7684C87.806 12.9152 87.9097 13.0537 88.0213 13.1881L88.0512 13.2212L88.5593 13.7504C90.036 15.2824 92.5409 15.5491 94.1252 14.1391C95.5162 12.9007 95.855 10.9077 95.1495 9.29713L95.6856 9.00355C97.6027 7.95742 98.3539 5.48473 97.3735 3.48756V3.4855Z" fill="#333B4F"/>
</svg>
