<svg width="98" height="16" viewBox="0 0 98 16" fill="none" xmlns="http://www.w3.org/2000/svg">
<path d="M18.6042 3.4855C17.5998 1.43871 15.0929 0.684088 13.134 1.75297L11.3604 2.7226C11.7848 3.33457 12.0937 4.03337 12.2531 4.77146C12.295 4.9658 12.1973 5.16634 12.006 5.22216C11.8287 5.27178 11.6134 5.16014 11.5716 4.9658C11.4859 4.56885 11.3564 4.18843 11.185 3.83283C10.9777 3.40073 10.6908 3.01618 10.362 2.67712L9.73025 2.02173C8.25159 0.487679 5.86222 0.328484 4.27595 1.74263C2.68968 3.15677 2.49438 5.35448 3.48082 7.02706L3.00055 7.28963C1.1592 8.29441 0.308276 10.6017 1.12732 12.5885C2.046 14.8173 4.60277 15.7269 6.63144 14.6188L8.62623 13.5292C8.52659 13.401 8.42297 13.277 8.33329 13.1385C8.06426 12.7126 7.859 12.2391 7.71752 11.7512C7.66172 11.561 7.78328 11.3522 7.96462 11.3005C8.15195 11.2467 8.34326 11.3667 8.39905 11.5569C8.52659 11.9952 8.692 12.3714 8.94309 12.7684C9.03675 12.9152 9.14038 13.0537 9.25197 13.1881L9.28187 13.2212L9.79003 13.7504C11.2667 15.2824 13.7716 15.5491 15.3559 14.1391C16.7469 12.9007 17.0857 10.9077 16.3802 9.29713L16.9163 9.00355C18.8334 7.95742 19.5847 5.48473 18.6042 3.48756V3.4855Z" fill="#E8E8E8"/>
<path d="M38.4617 3.4855C37.4574 1.43871 34.9504 0.684088 32.9915 1.75297L31.2179 2.7226C31.6424 3.33457 31.9513 4.03337 32.1107 4.77146C32.1525 4.9658 32.0549 5.16634 31.8636 5.22216C31.6862 5.27178 31.471 5.16014 31.4291 4.9658C31.3434 4.56885 31.2139 4.18843 31.0425 3.83283C30.8353 3.40073 30.5483 3.01618 30.2195 2.67712L29.5878 2.02173C28.1091 0.487679 25.7198 0.328484 24.1335 1.74263C22.5472 3.15677 22.3519 5.35448 23.3384 7.02706L22.8581 7.28963C21.0167 8.29441 20.1658 10.6017 20.9849 12.5885C21.9035 14.8173 24.4603 15.7269 26.489 14.6188L28.4838 13.5292C28.3841 13.401 28.2805 13.277 28.1908 13.1385C27.9218 12.7126 27.7165 12.2391 27.5751 11.7512C27.5193 11.561 27.6408 11.3522 27.8222 11.3005C28.0095 11.2467 28.2008 11.3667 28.2566 11.5569C28.3841 11.9952 28.5495 12.3714 28.8006 12.7684C28.8943 12.9152 28.9979 13.0537 29.1095 13.1881L29.1394 13.2212L29.6476 13.7504C31.1242 15.2824 33.6292 15.5491 35.2135 14.1391C36.6044 12.9007 36.9432 10.9077 36.2378 9.29713L36.7738 9.00355C38.6909 7.95742 39.4422 5.48473 38.4617 3.48756V3.4855Z" fill="#E8E8E8"/>
<path d="M58.3191 3.4855C57.3147 1.43871 54.8078 0.684088 52.8489 1.75297L51.0753 2.7226C51.4997 3.33457 51.8086 4.03337 51.968 4.77146C52.0099 4.9658 51.9122 5.16634 51.7209 5.22216C51.5436 5.27178 51.3283 5.16014 51.2865 4.9658C51.2008 4.56885 51.0713 4.18843 50.8999 3.83283C50.6926 3.40073 50.4057 3.01618 50.0769 2.67712L49.4452 2.02173C47.9665 0.487679 45.5771 0.328484 43.9909 1.74263C42.4046 3.15677 42.2093 5.35448 43.1957 7.02706L42.7155 7.28963C40.8741 8.29441 40.0232 10.6017 40.8422 12.5885C41.7609 14.8173 44.3177 15.7269 46.3463 14.6188L48.3411 13.5292C48.2415 13.401 48.1379 13.277 48.0482 13.1385C47.7792 12.7126 47.5739 12.2391 47.4324 11.7512C47.3766 11.561 47.4982 11.3522 47.6795 11.3005C47.8669 11.2467 48.0582 11.3667 48.114 11.5569C48.2415 11.9952 48.4069 12.3714 48.658 12.7684C48.7517 12.9152 48.8553 13.0537 48.9669 13.1881L48.9968 13.2212L49.5049 13.7504C50.9816 15.2824 53.4866 15.5491 55.0708 14.1391C56.4618 12.9007 56.8006 10.9077 56.0951 9.29713L56.6312 9.00355C58.5483 7.95742 59.2996 5.48473 58.3191 3.48756V3.4855Z" fill="#E8E8E8"/>
<path d="M77.846 3.4855C76.8416 1.43871 74.3346 0.684088 72.3757 1.75297L70.6021 2.7226C71.0266 3.33457 71.3355 4.03337 71.4949 4.77146C71.5367 4.9658 71.4391 5.16634 71.2478 5.22216C71.0704 5.27178 70.8552 5.16014 70.8134 4.9658C70.7277 4.56885 70.5981 4.18843 70.4268 3.83283C70.2195 3.40073 69.9325 3.01618 69.6037 2.67712L68.972 2.02173C67.4933 0.487679 65.104 0.328484 63.5177 1.74263C61.9314 3.15677 61.7361 5.35448 62.7226 7.02706L62.2423 7.28963C60.401 8.29441 59.55 10.6017 60.3691 12.5885C61.2878 14.8173 63.8445 15.7269 65.8732 14.6188L67.868 13.5292C67.7684 13.401 67.6647 13.277 67.5751 13.1385C67.306 12.7126 67.1008 12.2391 66.9593 11.7512C66.9035 11.561 67.025 11.3522 67.2064 11.3005C67.3937 11.2467 67.585 11.3667 67.6408 11.5569C67.7684 11.9952 67.9338 12.3714 68.1848 12.7684C68.2785 12.9152 68.3821 13.0537 68.4937 13.1881L68.5236 13.2212L69.0318 13.7504C70.5085 15.2824 73.0134 15.5491 74.5977 14.1391C75.9887 12.9007 76.3274 10.9077 75.622 9.29713L76.1581 9.00355C78.0751 7.95742 78.8264 5.48473 77.846 3.48756V3.4855Z" fill="#E8E8E8"/>
<path d="M97.3735 3.4855C96.3692 1.43871 93.8622 0.684088 91.9033 1.75297L90.1297 2.7226C90.5542 3.33457 90.8631 4.03337 91.0225 4.77146C91.0643 4.9658 90.9667 5.16634 90.7754 5.22216C90.598 5.27178 90.3828 5.16014 90.3409 4.9658C90.2553 4.56885 90.1257 4.18843 89.9543 3.83283C89.7471 3.40073 89.4601 3.01618 89.1313 2.67712L88.4996 2.02173C87.0209 0.487679 84.6316 0.328484 83.0453 1.74263C81.459 3.15677 81.2637 5.35448 82.2502 7.02706L81.7699 7.28963C79.9286 8.29441 79.0776 10.6017 79.8967 12.5885C80.8153 14.8173 83.3721 15.7269 85.4008 14.6188L87.3956 13.5292C87.2959 13.401 87.1923 13.277 87.1026 13.1385C86.8336 12.7126 86.6284 12.2391 86.4869 11.7512C86.4311 11.561 86.5526 11.3522 86.734 11.3005C86.9213 11.2467 87.1126 11.3667 87.1684 11.5569C87.2959 11.9952 87.4613 12.3714 87.7124 12.7684C87.8061 12.9152 87.9097 13.0537 88.0213 13.1881L88.0512 13.2212L88.5594 13.7504C90.036 15.2824 92.541 15.5491 94.1253 14.1391C95.5163 12.9007 95.855 10.9077 95.1496 9.29713L95.6856 9.00355C97.6027 7.95742 98.354 5.48473 97.3735 3.48756V3.4855Z" fill="#E8E8E8"/>
</svg>
