<svg width="136" height="135" viewBox="0 0 136 135" fill="none" xmlns="http://www.w3.org/2000/svg">
<g id="&#237;&#131;&#136;&#237;&#135;&#180;&#234;&#183;&#184;&#235;&#158;&#152;&#237;&#148;&#189;">
<path id="Union" fill-rule="evenodd" clip-rule="evenodd" d="M68.243 134.182C105.257 134.182 135.264 104.176 135.264 67.1612C135.264 30.1467 105.257 0.140625 68.243 0.140625C31.2286 0.140625 1.22249 30.1467 1.22249 67.1612C1.22249 84.8095 8.04396 100.865 19.1941 112.834C17.2394 120.447 11.9838 130.87 0.888672 133.595C7.69357 134.956 22.2305 134.596 35.0103 125.375C44.8052 130.979 56.1501 134.182 68.243 134.182Z" fill="#FFE7DF"/>
<g id="Group 2608930">
<path id="Vector" d="M36.7354 63.1962C34.7076 60.3979 33.9307 57.1998 33.8517 53.9884C33.7331 49.5512 35.1289 45.447 38.0786 42.0224C41.7656 37.7317 46.3085 35.3865 52.0365 35.1599C58.5942 34.8934 63.9272 37.3986 68.4043 41.9558C70.4321 44.0079 72.2229 46.3531 73.8558 48.7383C74.7512 50.0442 75.3174 51.6699 75.6861 53.2422C75.989 54.5215 76.3182 55.4675 77.7666 55.2144C79.0834 54.9878 79.6496 53.8952 79.0571 52.4161C78.0827 49.9642 76.8976 47.579 75.7783 45.1805C75.5808 44.7541 75.3042 44.3543 74.9882 43.8213C78.3855 42.1557 81.638 40.2901 85.088 38.9043C91.1847 36.4525 97.1366 36.9189 102.957 40.1702C107.355 42.622 110.226 46.3664 111.397 51.0702C112.727 56.4403 111.872 61.6904 108.632 66.4209C106.618 69.3657 103.931 71.3912 100.758 72.8303C99.6517 73.3367 99.1118 73.8297 99.7044 75.2022C104.102 85.3693 96.7679 97.6019 86.2994 99.3874C79.7813 100.507 73.7768 99.3874 68.6018 95.1234C65.1386 92.2718 62.0968 88.9805 60.6879 84.5165C60.3323 83.3972 59.8583 82.6243 58.5942 82.9042C57.1325 83.2373 57.1589 84.5565 57.5276 85.4892C58.3703 87.5813 59.3316 89.6734 60.5562 91.5522C61.3858 92.8314 61.2014 93.2712 59.9373 93.8442C55.9079 95.683 52.076 98.2148 47.8755 99.3608C38.2234 101.986 27.9129 97.1488 24.7526 86.7285C22.9618 80.8254 23.9494 75.0423 27.7681 70.0853C29.7169 67.5668 32.1003 65.4082 35.2211 64.3155C35.7215 64.1423 36.1165 63.6492 36.6959 63.1828L36.7354 63.1962Z" fill="#FF9F81"/>
<path id="Vector 125" d="M69.9148 45.4458L75.1472 43.417C78.0541 46.7984 84.3911 53.6424 84.7399 53.967C85.0887 54.2917 79.0715 55.7254 76.0192 56.4017L69.9148 45.4458Z" fill="#FF9F81"/>
</g>
<g id="Group 2608931">
<path id="Vector_2" d="M63.6546 70.3849C64.9352 70.3849 65.9733 68.5163 65.9733 66.2112C65.9733 63.9062 64.9352 62.0376 63.6546 62.0376C62.374 62.0376 61.3359 63.9062 61.3359 66.2112C61.3359 68.5163 62.374 70.3849 63.6546 70.3849Z" fill="#464444"/>
<path id="Vector_3" d="M76.1755 70.3849C77.7122 70.3849 78.9579 68.5163 78.9579 66.2112C78.9579 63.9062 77.7122 62.0376 76.1755 62.0376C74.6388 62.0376 73.3931 63.9062 73.3931 66.2112C73.3931 68.5163 74.6388 70.3849 76.1755 70.3849Z" fill="#464444"/>
<path id="Vector 126" d="M71.7633 83.0533C72.4688 81.1656 74.9616 76.2448 76.5607 74.0947C76.6457 74.0947 78.3434 78.2993 80.9891 82.695C83.5908 87.0175 78.7749 89.8618 76.5607 89.8618C72.1324 89.5035 70.9865 85.1317 71.7633 83.0533Z" fill="#ECF6FE"/>
</g>
</g>
</svg>
