<svg width="142" height="122" viewBox="0 0 142 122" fill="none" xmlns="http://www.w3.org/2000/svg">
<g id="Layer_1" clip-path="url(#clip0_695_4411)">
<path id="Vector" d="M44.2911 58.8149C42.1528 55.9249 41.3561 52.6022 41.2583 49.2795C41.1325 44.6863 42.6 40.4282 45.7028 36.8821C49.5742 32.4425 54.3541 30.0133 60.364 29.762C67.2404 29.4828 72.8449 32.0935 77.541 36.7984C79.6654 38.9344 81.5382 41.3497 83.2713 43.8347C84.2217 45.1889 84.8087 46.8782 85.2 48.4977C85.5215 49.824 85.8709 50.8013 87.3803 50.55C88.764 50.3126 89.365 49.1818 88.736 47.6461C87.7018 45.1052 86.4579 42.6341 85.2978 40.149C85.0882 39.7023 84.8087 39.2974 84.4732 38.7389C88.0372 37.0078 91.4614 35.0812 95.0813 33.6432C101.482 31.1023 107.73 31.5909 113.838 34.9555C118.464 37.4964 121.469 41.3776 122.699 46.25C124.096 51.8064 123.202 57.2652 119.806 62.1515C117.681 65.209 114.872 67.3032 111.545 68.797C110.385 69.3275 109.812 69.8441 110.441 71.2681C115.068 81.8086 107.367 94.4713 96.3671 96.3281C89.5327 97.4868 83.2154 96.3281 77.7786 91.9164C74.1447 88.9567 70.9441 85.5502 69.4766 80.9291C69.0992 79.7564 68.5961 78.9606 67.2823 79.2677C65.7449 79.6168 65.7728 80.9849 66.1642 81.9343C67.0447 84.1122 68.065 86.2762 69.3508 88.2167C70.2313 89.543 70.0356 90.0037 68.7079 90.5901C64.473 92.4888 60.4618 95.1274 56.0453 96.3002C45.9124 99.0226 35.0947 94.0106 31.7683 83.2047C29.8955 77.0898 30.9158 71.0866 34.9409 65.9489C36.9815 63.3382 39.4833 61.1045 42.7677 59.9736C43.2988 59.7921 43.7041 59.2756 44.3191 58.8009L44.2911 58.8149Z" fill="#EAF6FF"/>
<path id="Vector_2" d="M115.375 109.926C118.911 109.926 121.021 112.104 121.063 115.678C121.119 119.448 118.002 121.36 115.193 121.5C112.342 121.64 109.421 118.47 109.421 115.58C109.421 112.453 112.09 109.926 115.375 109.926Z" fill="#FFC3B1"/>
<path id="Vector_3" d="M6.19149 56.6789C4.65409 55.7296 3.07476 54.8361 1.59326 53.8169C0.321411 52.9374 -0.475243 51.7786 0.307434 50.1452C1.36964 47.8975 2.66944 46.9342 4.4724 47.8695C8.14818 49.8101 11.7122 52.0299 15.1364 54.3893C16.7297 55.4923 16.548 57.2932 15.4159 58.8289C14.2978 60.3646 12.7324 60.5182 11.1811 59.7224C9.44799 58.8289 7.8407 57.7121 6.19149 56.6929V56.6789Z" fill="#E0F6C3"/>
<path id="Vector_4" d="M35.5138 115.176C35.5138 118.205 33.5711 120.202 30.5802 120.229C28.0924 120.257 25.5487 117.772 25.5207 115.273C25.4928 112.732 28.0505 110.233 30.706 110.233C33.5571 110.233 35.4999 112.23 35.5138 115.162V115.176Z" fill="#C4E9ED"/>
<path id="Vector_5" d="M116.256 14.7262L122.433 12.4366C124.627 11.6269 126.179 9.64442 126.43 7.31293L127.157 0.779186C127.199 0.458083 127.646 0.402239 127.758 0.709381L130.036 6.81034C130.861 9.0441 132.887 10.6077 135.249 10.873L141.734 11.599C142.056 11.6408 142.112 12.0876 141.804 12.1993L135.92 14.3912C133.544 15.2707 131.867 17.4207 131.588 19.9337L130.889 26.1603C130.847 26.4814 130.4 26.5372 130.288 26.2301L128.08 20.3106C127.199 17.9652 125.089 16.3178 122.601 16.0386L116.325 15.3405C116.004 15.2986 115.948 14.8519 116.256 14.7402V14.7262Z" fill="#FDF3C3"/>
<path id="Vector_6" d="M70.9998 66.787C72.8137 66.787 74.2842 64.5243 74.2842 61.7331C74.2842 58.9419 72.8137 56.6792 70.9998 56.6792C69.1858 56.6792 67.7153 58.9419 67.7153 61.7331C67.7153 64.5243 69.1858 66.787 70.9998 66.787Z" fill="#939EB3"/>
<path id="Vector_7" d="M87.5203 66.787C89.3342 66.787 90.8047 64.5243 90.8047 61.7331C90.8047 58.9419 89.3342 56.6792 87.5203 56.6792C85.7063 56.6792 84.2358 58.9419 84.2358 61.7331C84.2358 64.5243 85.7063 66.787 87.5203 66.787Z" fill="#939EB3"/>
</g>
<defs>
<clipPath id="clip0_695_4411">
<rect width="142" height="121" fill="white" transform="translate(0 0.5)"/>
</clipPath>
</defs>
</svg>
