<svg width="94" height="80" viewBox="0 0 94 80" fill="none" xmlns="http://www.w3.org/2000/svg">
<g id="Layer_1" clip-path="url(#clip0_609_4742)">
<path id="Vector" d="M29.5381 38.4937C28.1463 36.6262 27.6278 34.4789 27.5641 32.3317C27.4822 29.3635 28.4374 26.6118 30.4569 24.3202C32.9768 21.4513 36.088 19.8815 39.9997 19.7191C44.4754 19.5386 48.1233 21.2257 51.1799 24.2661C52.5626 25.6465 53.7816 27.2073 54.9097 28.8132C55.5283 29.6883 55.9103 30.78 56.1651 31.8265C56.3743 32.6836 56.6017 33.3151 57.5842 33.1527C58.4848 32.9993 58.876 32.2686 58.4666 31.2762C57.7934 29.6342 56.9838 28.0373 56.2287 26.4314C56.0923 26.1427 55.9103 25.881 55.692 25.5202C58.0117 24.4014 60.2405 23.1564 62.5966 22.2272C66.7631 20.5852 70.8294 20.9009 74.8048 23.0752C77.8159 24.7172 79.7718 27.2253 80.5723 30.374C81.482 33.9647 80.8998 37.4923 78.6892 40.6499C77.3065 42.6258 75.478 43.979 73.3129 44.9444C72.5578 45.2872 72.1849 45.621 72.5942 46.5413C75.6053 53.3528 70.5929 61.5357 63.4336 62.7356C58.9851 63.4845 54.8733 62.7356 51.3346 59.8847C48.9693 57.9721 46.8861 55.7707 45.9309 52.7845C45.6853 52.0266 45.3578 51.5124 44.5027 51.7108C43.502 51.9364 43.5202 52.8205 43.7749 53.434C44.3481 54.8415 45.0121 56.2399 45.8491 57.4939C46.4222 58.351 46.2948 58.6487 45.4306 59.0276C42.6742 60.2546 40.0634 61.9598 37.1887 62.7176C30.5934 64.4769 23.5523 61.238 21.3872 54.255C20.1682 50.3034 20.8323 46.424 23.4523 43.1039C24.7804 41.4168 26.4088 39.9733 28.5466 39.2425C28.8923 39.1252 29.1561 38.7914 29.5563 38.4847L29.5381 38.4937Z" fill="white"/>
<path id="Vector_2" d="M75.8055 71.523C78.107 71.523 79.4807 72.9304 79.508 75.24C79.5444 77.676 77.5157 78.912 75.6872 79.0022C73.8314 79.0924 71.9302 77.0444 71.9302 75.1769C71.9302 73.156 73.6677 71.523 75.8055 71.523Z" fill="#FFC3B1"/>
<path id="Vector_3" d="M4.73985 37.1133C3.73918 36.4999 2.71122 35.9225 1.74694 35.2638C0.919116 34.6955 0.400587 33.9466 0.910019 32.8911C1.60139 31.4386 2.44741 30.816 3.62092 31.4205C6.01343 32.6746 8.33317 34.109 10.5619 35.6337C11.599 36.3465 11.4807 37.5103 10.7439 38.5027C10.0161 39.4951 8.99725 39.5944 7.98748 39.0801C6.85945 38.5027 5.8133 37.781 4.73985 37.1224V37.1133Z" fill="#E0F6C3"/>
<path id="Vector_4" d="M23.8253 74.9153C23.8253 76.873 22.5608 78.1632 20.6141 78.1812C18.9948 78.1992 17.3391 76.5933 17.3209 74.9784C17.3028 73.3364 18.9675 71.7215 20.6959 71.7215C22.5517 71.7215 23.8162 73.0116 23.8253 74.9062V74.9153Z" fill="#C4E9ED"/>
<path id="Vector_5" d="M46.9225 43.6452C48.1031 43.6452 49.0603 42.183 49.0603 40.3793C49.0603 38.5756 48.1031 37.1133 46.9225 37.1133C45.7418 37.1133 44.7847 38.5756 44.7847 40.3793C44.7847 42.183 45.7418 43.6452 46.9225 43.6452Z" fill="#939EB3"/>
<path id="Vector_6" d="M57.6754 43.6452C58.8561 43.6452 59.8132 42.183 59.8132 40.3793C59.8132 38.5756 58.8561 37.1133 57.6754 37.1133C56.4947 37.1133 55.5376 38.5756 55.5376 40.3793C55.5376 42.183 56.4947 43.6452 57.6754 43.6452Z" fill="#939EB3"/>
</g>
<defs>
<clipPath id="clip0_609_4742">
<rect width="92.4255" height="78.1931" fill="white" transform="translate(0.709961 0.809082)"/>
</clipPath>
</defs>
</svg>
