<svg width="423" height="63" viewBox="0 0 423 63" fill="none" xmlns="http://www.w3.org/2000/svg">
<path d="M157.075 4.17432V59.7322H127.993L122.088 41.0487V59.7322H101.867V4.17432H131.026L138.924 26.2695L140.918 25.7695L136.044 12.483V4.17432H157.083H157.075Z" fill="black"/>
<path d="M160.787 37.0704C160.787 33.5189 161.398 30.2984 162.635 27.4088C163.865 24.5191 165.645 22.0706 167.983 20.0559C170.32 18.0413 173.185 16.4898 176.584 15.4016C179.976 14.3134 183.864 13.7693 188.249 13.7693C193.956 13.7693 198.646 14.3722 202.313 15.5781C205.979 16.7839 208.844 18.6663 210.914 21.225V43.1805C206.041 43.1805 201.266 43.0041 196.599 42.6511C191.924 42.2982 187.271 41.6659 182.65 40.7688V43.2541C184.766 43.7761 187.004 44.1879 189.364 44.4967C191.725 44.8055 194.124 45.0408 196.56 45.2099C198.997 45.379 201.434 45.4967 203.871 45.5629C206.308 45.6364 208.653 45.6658 210.922 45.6658V53.3348C207.622 55.8421 203.925 57.5406 199.815 58.4156C195.705 59.2905 191.022 59.7317 185.751 59.7317C182.008 59.7317 178.601 59.2244 175.53 58.2023C172.452 57.1803 169.831 55.7024 167.669 53.7612C165.5 51.8201 163.819 49.4525 162.612 46.6584C161.405 43.8643 160.802 40.6659 160.802 37.0704H160.787ZM182.634 27.8352V29.894C183.566 30.1293 184.636 30.3352 185.843 30.4969C187.05 30.6661 188.28 30.8131 189.533 30.9602C190.785 31.0999 192.008 31.2102 193.184 31.2763C194.36 31.3425 195.422 31.3793 196.354 31.3793V29.3867C195.422 29.3867 194.376 29.3499 193.215 29.2837C192.061 29.2102 190.877 29.1073 189.67 28.9676C188.463 28.8278 187.248 28.6587 186.019 28.4676C184.789 28.2764 183.658 28.0632 182.627 27.8279L182.634 27.8352Z" fill="black"/>
<path d="M221.39 59.7335L213.423 16.3298H234.018L236.088 30.4693L239.335 16.3298H251.221L254.468 30.4693L256.538 16.3298H277.133L269.165 59.7335H248.57L245.324 47.4396L242.001 59.7335H221.406H221.39Z" fill="black"/>
<path d="M304.144 4.17432C309.407 4.17432 313.914 4.56402 317.65 5.34341C321.385 6.12281 324.441 7.41691 326.801 9.21835C329.162 11.0198 330.896 13.3727 332.003 16.2844C333.111 19.1961 333.661 22.7622 333.661 26.9754C333.661 34.5561 331.362 40.2399 326.763 44.0266C322.164 47.8133 315.434 49.4971 306.573 49.0706V59.7248H281.479V4.17432H304.136H304.144ZM298.98 26.1298C300.011 26.7916 301.333 27.3651 302.929 27.8357C304.526 28.3062 306.214 28.7107 307.986 29.0415C309.758 29.3724 311.531 29.6224 313.303 29.7842C315.075 29.9533 316.649 30.0342 318.024 30.0342V28.0415C316.649 28.0415 315.121 27.946 313.448 27.7548C311.775 27.5636 310.117 27.3063 308.467 26.9754C306.817 26.6445 305.267 26.2548 303.815 25.8063C302.364 25.3578 301.195 24.8725 300.309 24.3504L298.98 26.1298Z" fill="black"/>
<path d="M362.881 59.7322H337.786V4.17432H362.881V59.7322Z" fill="black"/>
<path d="M369.808 47.6147C368.524 44.2839 367.936 41.056 368.043 37.9384C368.15 34.8208 368.937 31.9238 370.396 29.2547C371.855 26.5857 373.986 24.1739 376.775 22.0122C379.563 19.8505 383.008 18.0417 387.118 16.5711C392.465 14.6594 397.079 13.6521 400.952 13.5565C404.825 13.4609 408.194 14.2623 411.059 15.9682L418.996 36.5487C414.428 38.181 409.89 39.6148 405.383 40.8501C400.868 42.0854 396.285 43.056 391.625 43.7618L392.526 46.0927C394.696 45.8721 396.949 45.5118 399.272 45.0044C401.594 44.5045 403.932 43.9236 406.277 43.2618C408.622 42.6001 410.944 41.8942 413.259 41.1442C415.566 40.3942 417.781 39.6442 419.905 38.8796L422.678 46.0706C420.493 49.5264 417.636 52.3573 414.099 54.5558C410.562 56.7542 406.33 58.7322 401.395 60.4968C397.889 61.7468 394.513 62.4159 391.258 62.4894C388.004 62.563 385.017 62.0556 382.282 60.9601C379.548 59.8645 377.111 58.2101 374.972 55.9969C372.833 53.7837 371.106 50.9896 369.808 47.6147ZM386.95 31.637L387.699 33.5708C388.661 33.4826 389.738 33.3135 390.93 33.0635C392.122 32.8135 393.329 32.5488 394.558 32.262C395.788 31.9753 396.965 31.6664 398.095 31.3356C399.226 31.0047 400.234 30.6885 401.113 30.3724L400.395 28.5047C399.516 28.8209 398.523 29.1371 397.415 29.4532C396.308 29.7768 395.162 30.0709 393.978 30.3429C392.794 30.615 391.594 30.865 390.372 31.1003C389.15 31.3356 388.012 31.512 386.957 31.637H386.95Z" fill="black"/>
<path d="M18.4375 57.8027C11.0206 57.8027 4.35662 53.5385 1.4475 46.9342C-2.14941 38.7575 1.21514 29.1083 9.09675 24.4734C6.37351 17.5166 8.3253 9.5659 14.3201 4.55158C17.5918 1.81402 21.8021 0.31424 26.1704 0.31424C31.1522 0.31424 36.0318 2.28383 39.5636 5.71707L39.848 5.99352C39.8879 6.0345 39.924 6.06871 39.9498 6.09247L41.4842 7.58414C41.7432 7.8696 42.0214 8.19693 42.3089 8.56837C43.7085 10.3748 45.3547 13.251 46.0511 17.4616C46.1763 18.2184 46.885 18.7293 47.6344 18.6029C48.3837 18.4765 48.8896 17.7605 48.7644 17.0038C47.9814 12.2687 46.114 8.97083 44.4757 6.8563C44.376 6.72752 44.2773 6.60322 44.1796 6.48336L48.6533 4.19017C51.3395 2.81689 54.3695 2.0941 57.4181 2.0941C64.4909 2.0941 70.8299 5.79837 73.9527 11.7523C78.4137 20.2722 75.1051 30.7978 66.5914 35.4689C68.348 42.0101 66.1732 49.1475 60.7917 53.6378C57.6502 56.2579 53.5142 57.7034 49.1647 57.7034C43.9131 57.7034 38.7922 55.6526 35.1209 52.084L34.8007 51.7725C34.4609 51.4227 34.075 50.9935 33.67 50.4788C32.2572 48.6828 30.59 45.819 29.8625 41.6138C29.7317 40.8581 29.0191 40.3524 28.2707 40.4844C27.5223 40.6167 27.0217 41.3363 27.1524 42.092C27.9705 46.8209 29.8622 50.1047 31.5159 52.207C31.7616 52.5195 32.0017 52.8054 32.2315 53.0651L26.9604 55.7609C24.3394 57.1071 21.3838 57.8118 18.4282 57.8118L18.4375 57.8027Z" fill="#0074FF"/>
</svg>
