<svg width="142" height="121" viewBox="0 0 142 121" fill="none" xmlns="http://www.w3.org/2000/svg">
<g id="Layer_1" clip-path="url(#clip0_490_4828)">
<path id="Vector" d="M44.2907 58.3151C42.1523 55.4252 41.3556 52.1025 41.2578 48.7797C41.132 44.1866 42.5995 39.9285 45.7023 36.3824C49.5737 31.9428 54.3536 29.5136 60.3635 29.2623C67.2399 28.983 72.8444 31.5938 77.5405 36.2986C79.6649 38.4346 81.5377 40.8499 83.2708 43.335C84.2212 44.6892 84.8082 46.3785 85.1995 47.9979C85.521 49.3242 85.8704 50.3015 87.3798 50.0502C88.7635 49.8129 89.3645 48.682 88.7355 47.1463C87.7013 44.6054 86.4574 42.1343 85.2974 39.6493C85.0877 39.2025 84.8082 38.7976 84.4727 38.2392C88.0367 36.508 91.4609 34.5814 95.0808 33.1434C101.482 30.6025 107.729 31.0912 113.837 34.4558C118.463 36.9967 121.468 40.8778 122.698 45.7502C124.096 51.3067 123.201 56.7654 119.805 61.6518C117.681 64.7093 114.871 66.8034 111.545 68.2972C110.385 68.8277 109.812 69.3443 110.441 70.7683C115.067 81.3089 107.366 93.9715 96.3666 95.8283C89.5322 96.9871 83.2149 95.8283 77.7781 91.4167C74.1442 88.4569 70.9436 85.0504 69.4761 80.4293C69.0987 79.2566 68.5956 78.4608 67.2818 78.768C65.7444 79.117 65.7724 80.4852 66.1637 81.4345C67.0442 83.6124 68.0645 85.7764 69.3503 87.717C70.2308 89.0433 70.0351 89.504 68.7074 90.0904C64.4725 91.989 60.4613 94.6277 56.0448 95.8004C45.9119 98.5228 35.0942 93.5108 31.7678 82.705C29.895 76.5901 30.9153 70.5868 34.9405 65.4492C36.981 62.8385 39.4828 60.6047 42.7672 59.4739C43.2983 59.2924 43.7036 58.7758 44.3186 58.3011L44.2907 58.3151Z" fill="#EAF6FF"/>
<path id="Vector_2" d="M115.375 109.426C118.911 109.426 121.021 111.604 121.063 115.178C121.119 118.948 118.002 120.86 115.193 121C112.342 121.14 109.421 117.97 109.421 115.081C109.421 111.953 112.09 109.426 115.375 109.426Z" fill="#FFC3B1"/>
<path id="Vector_3" d="M6.19149 56.1791C4.65409 55.2297 3.07476 54.3362 1.59326 53.3171C0.321411 52.4375 -0.475243 51.2788 0.307434 49.6453C1.36964 47.3976 2.66944 46.4343 4.4724 47.3697C8.14818 49.3103 11.7122 51.53 15.1364 53.8895C16.7297 54.9924 16.548 56.7933 15.4159 58.3291C14.2978 59.8648 12.7324 60.0183 11.1811 59.2226C9.44799 58.3291 7.8407 57.2122 6.19149 56.193V56.1791Z" fill="#E0F6C3"/>
<path id="Vector_4" d="M35.5138 114.676C35.5138 117.705 33.5711 119.702 30.5802 119.73C28.0924 119.757 25.5487 117.272 25.5207 114.773C25.4928 112.232 28.0505 109.733 30.706 109.733C33.5571 109.733 35.4999 111.73 35.5138 114.662V114.676Z" fill="#C4E9ED"/>
<path id="Vector_5" d="M116.256 14.2261L122.434 11.9365C124.628 11.1268 126.179 9.1443 126.431 6.81281L127.158 0.279064C127.199 -0.0420392 127.647 -0.0978832 127.759 0.209259L130.037 6.31022C130.861 8.54398 132.888 10.1076 135.25 10.3729L141.735 11.0988C142.056 11.1407 142.112 11.5875 141.805 11.6992L135.921 13.891C133.545 14.7706 131.868 16.9206 131.588 19.4336L130.889 25.6602C130.847 25.9813 130.4 26.0371 130.288 25.73L128.08 19.8105C127.199 17.4651 125.089 15.8177 122.601 15.5384L116.326 14.8404C116.004 14.7985 115.949 14.3518 116.256 14.2401V14.2261Z" fill="#FDF3C3"/>
<path id="Vector_6" d="M71.0003 66.2868C72.8142 66.2868 74.2847 64.0241 74.2847 61.233C74.2847 58.4418 72.8142 56.1791 71.0003 56.1791C69.1863 56.1791 67.7158 58.4418 67.7158 61.233C67.7158 64.0241 69.1863 66.2868 71.0003 66.2868Z" fill="#939EB3"/>
<path id="Vector_7" d="M87.5198 66.2868C89.3337 66.2868 90.8043 64.0241 90.8043 61.233C90.8043 58.4418 89.3337 56.1791 87.5198 56.1791C85.7058 56.1791 84.2354 58.4418 84.2354 61.233C84.2354 64.0241 85.7058 66.2868 87.5198 66.2868Z" fill="#939EB3"/>
</g>
<defs>
<clipPath id="clip0_490_4828">
<rect width="142" height="121" fill="white"/>
</clipPath>
</defs>
</svg>
