<svg width="25" height="25" viewBox="0 0 25 25" fill="none" xmlns="http://www.w3.org/2000/svg">
<g id="mail">
<mask id="mask0_220_22445" style="mask-type:alpha" maskUnits="userSpaceOnUse" x="0" y="0" width="25" height="25">
<rect id="Bounding box" x="0.5" y="0.901733" width="24" height="24" fill="#474758"/>
</mask>
<g mask="url(#mask0_220_22445)">
<path id="mail_2" d="M4.5 20.9017C3.95 20.9017 3.47917 20.7059 3.0875 20.3142C2.69583 19.9226 2.5 19.4517 2.5 18.9017V6.90173C2.5 6.35173 2.69583 5.8809 3.0875 5.48923C3.47917 5.09757 3.95 4.90173 4.5 4.90173H20.5C21.05 4.90173 21.5208 5.09757 21.9125 5.48923C22.3042 5.8809 22.5 6.35173 22.5 6.90173V18.9017C22.5 19.4517 22.3042 19.9226 21.9125 20.3142C21.5208 20.7059 21.05 20.9017 20.5 20.9017H4.5ZM12.5 13.9017L4.5 8.90173V18.9017H20.5V8.90173L12.5 13.9017ZM12.5 11.9017L20.5 6.90173H4.5L12.5 11.9017ZM4.5 8.90173V6.90173V18.9017V8.90173Z" fill="#474758"/>
</g>
</g>
</svg>
