<svg width="21" height="21" viewBox="0 0 21 21" fill="none" xmlns="http://www.w3.org/2000/svg">
<mask id="mask0_434_5857" style="mask-type:alpha" maskUnits="userSpaceOnUse" x="0" y="0" width="21" height="21">
<rect x="0.888672" y="0.675293" width="20" height="20" fill="#676F83"/>
</mask>
<g mask="url(#mask0_434_5857)">
<path d="M10.8887 10.6755C9.97205 10.6755 9.18732 10.3491 8.53455 9.69629C7.88177 9.04351 7.55538 8.25879 7.55538 7.34212C7.55538 6.42546 7.88177 5.64073 8.53455 4.98796C9.18732 4.33518 9.97205 4.00879 10.8887 4.00879C11.8054 4.00879 12.5901 4.33518 13.2429 4.98796C13.8957 5.64073 14.222 6.42546 14.222 7.34212C14.222 8.25879 13.8957 9.04351 13.2429 9.69629C12.5901 10.3491 11.8054 10.6755 10.8887 10.6755ZM4.22205 17.3421V15.0088C4.22205 14.5366 4.34357 14.1025 4.58663 13.7067C4.82968 13.3109 5.1526 13.0088 5.55538 12.8005C6.41649 12.3699 7.29149 12.047 8.18038 11.8317C9.06927 11.6164 9.97205 11.5088 10.8887 11.5088C11.8054 11.5088 12.7082 11.6164 13.597 11.8317C14.4859 12.047 15.3609 12.3699 16.222 12.8005C16.6248 13.0088 16.9477 13.3109 17.1908 13.7067C17.4339 14.1025 17.5554 14.5366 17.5554 15.0088V17.3421H4.22205ZM5.88871 15.6755H15.8887V15.0088C15.8887 14.856 15.8505 14.7171 15.7741 14.5921C15.6977 14.4671 15.597 14.3699 15.472 14.3005C14.722 13.9255 13.9651 13.6442 13.2012 13.4567C12.4373 13.2692 11.6665 13.1755 10.8887 13.1755C10.1109 13.1755 9.3401 13.2692 8.57621 13.4567C7.81232 13.6442 7.05538 13.9255 6.30538 14.3005C6.18038 14.3699 6.07968 14.4671 6.0033 14.5921C5.92691 14.7171 5.88871 14.856 5.88871 15.0088V15.6755ZM10.8887 9.00879C11.347 9.00879 11.7394 8.84559 12.0658 8.51921C12.3922 8.19282 12.5554 7.80046 12.5554 7.34212C12.5554 6.88379 12.3922 6.49143 12.0658 6.16504C11.7394 5.83865 11.347 5.67546 10.8887 5.67546C10.4304 5.67546 10.038 5.83865 9.71163 6.16504C9.38524 6.49143 9.22205 6.88379 9.22205 7.34212C9.22205 7.80046 9.38524 8.19282 9.71163 8.51921C10.038 8.84559 10.4304 9.00879 10.8887 9.00879Z" fill="#676F83"/>
</g>
</svg>
