<svg width="23" height="23" viewBox="0 0 23 23" fill="none" xmlns="http://www.w3.org/2000/svg">
<g id="group">
<mask id="mask0_681_8383" style="mask-type:alpha" maskUnits="userSpaceOnUse" x="0" y="0" width="23" height="23">
<rect id="Bounding box" x="0.28125" y="0.0439453" width="22" height="22" fill="#959DB1"/>
</mask>
<g mask="url(#mask0_681_8383)">
<path id="group_2" d="M1.19727 18.3776V15.8109C1.19727 15.2915 1.33095 14.8141 1.59831 14.3786C1.86567 13.9432 2.22088 13.6109 2.66393 13.3818C3.61115 12.9082 4.57365 12.553 5.55143 12.3161C6.52921 12.0793 7.52227 11.9609 8.5306 11.9609C9.53893 11.9609 10.532 12.0793 11.5098 12.3161C12.4875 12.553 13.45 12.9082 14.3973 13.3818C14.8403 13.6109 15.1955 13.9432 15.4629 14.3786C15.7303 14.8141 15.8639 15.2915 15.8639 15.8109V18.3776H1.19727ZM17.6973 18.3776V15.6276C17.6973 14.9554 17.5101 14.3099 17.1358 13.6911C16.7615 13.0724 16.2306 12.5415 15.5431 12.0984C16.3223 12.1901 17.0556 12.3467 17.7431 12.5682C18.4306 12.7898 19.0723 13.0609 19.6681 13.3818C20.2181 13.6873 20.6382 14.0273 20.9285 14.4016C21.2188 14.7759 21.3639 15.1845 21.3639 15.6276V18.3776H17.6973ZM8.5306 11.0443C7.52227 11.0443 6.65907 10.6852 5.94102 9.96719C5.22296 9.24913 4.86393 8.38594 4.86393 7.3776C4.86393 6.36927 5.22296 5.50608 5.94102 4.78802C6.65907 4.06997 7.52227 3.71094 8.5306 3.71094C9.53893 3.71094 10.4021 4.06997 11.1202 4.78802C11.8382 5.50608 12.1973 6.36927 12.1973 7.3776C12.1973 8.38594 11.8382 9.24913 11.1202 9.96719C10.4021 10.6852 9.53893 11.0443 8.5306 11.0443ZM17.6973 7.3776C17.6973 8.38594 17.3382 9.24913 16.6202 9.96719C15.9021 10.6852 15.0389 11.0443 14.0306 11.0443C13.8625 11.0443 13.6487 11.0252 13.3889 10.987C13.1292 10.9488 12.9153 10.9068 12.7473 10.8609C13.1598 10.372 13.4768 9.82969 13.6983 9.23385C13.9198 8.63802 14.0306 8.01927 14.0306 7.3776C14.0306 6.73594 13.9198 6.11719 13.6983 5.52135C13.4768 4.92552 13.1598 4.38316 12.7473 3.89427C12.9612 3.81788 13.175 3.76823 13.3889 3.74531C13.6028 3.7224 13.8167 3.71094 14.0306 3.71094C15.0389 3.71094 15.9021 4.06997 16.6202 4.78802C17.3382 5.50608 17.6973 6.36927 17.6973 7.3776ZM3.0306 16.5443H14.0306V15.8109C14.0306 15.6429 13.9886 15.4901 13.9046 15.3526C13.8205 15.2151 13.7098 15.1082 13.5723 15.0318C12.7473 14.6193 11.9146 14.3099 11.0744 14.1036C10.2341 13.8974 9.38616 13.7943 8.5306 13.7943C7.67504 13.7943 6.82713 13.8974 5.98685 14.1036C5.14657 14.3099 4.31393 14.6193 3.48893 15.0318C3.35143 15.1082 3.24067 15.2151 3.15664 15.3526C3.07261 15.4901 3.0306 15.6429 3.0306 15.8109V16.5443ZM8.5306 9.21094C9.03477 9.21094 9.46636 9.03142 9.82539 8.6724C10.1844 8.31337 10.3639 7.88177 10.3639 7.3776C10.3639 6.87344 10.1844 6.44184 9.82539 6.08281C9.46636 5.72378 9.03477 5.54427 8.5306 5.54427C8.02643 5.54427 7.59484 5.72378 7.23581 6.08281C6.87678 6.44184 6.69727 6.87344 6.69727 7.3776C6.69727 7.88177 6.87678 8.31337 7.23581 8.6724C7.59484 9.03142 8.02643 9.21094 8.5306 9.21094Z" fill="#959DB1"/>
</g>
</g>
</svg>
