<svg width="18" height="18" viewBox="0 0 18 18" fill="none" xmlns="http://www.w3.org/2000/svg">
<g id="pace">
<mask id="mask0_490_9456" style="mask-type:alpha" maskUnits="userSpaceOnUse" x="0" y="0" width="18" height="18">
<rect id="Bounding box" x="0.617432" y="0.132812" width="17.0001" height="17.0001" fill="#676F83"/>
</mask>
<g mask="url(#mask0_490_9456)">
<path id="pace_2" d="M9.11741 15.7165C8.13755 15.7165 7.21671 15.5306 6.35491 15.1587C5.4931 14.7868 4.74344 14.2821 4.10594 13.6446C3.46844 13.0071 2.96375 12.2575 2.59187 11.3957C2.22 10.5339 2.03406 9.61303 2.03406 8.63316C2.03406 7.6533 2.22 6.73246 2.59187 5.87065C2.96375 5.00884 3.46844 4.25919 4.10594 3.62169C4.74344 2.98418 5.4931 2.4795 6.35491 2.10762C7.21671 1.73574 8.13755 1.5498 9.11741 1.5498C10.0973 1.5498 11.0181 1.73574 11.8799 2.10762C12.7417 2.4795 13.4914 2.98418 14.1289 3.62169C14.7664 4.25919 15.2711 5.00884 15.643 5.87065C16.0148 6.73246 16.2008 7.6533 16.2008 8.63316C16.2008 8.95191 16.1831 9.26476 16.1476 9.57171C16.1122 9.87865 16.0532 10.1797 15.9706 10.4748C15.8053 10.2859 15.6134 10.1266 15.395 9.99671C15.1766 9.86685 14.9376 9.7783 14.6778 9.73108C14.7133 9.554 14.7398 9.37396 14.7575 9.19098C14.7752 9.00799 14.7841 8.82205 14.7841 8.63316C14.7841 7.05121 14.2351 5.71128 13.1372 4.61336C12.0393 3.51544 10.6994 2.96648 9.11741 2.96648C7.53546 2.96648 6.19553 3.51544 5.09761 4.61336C3.99969 5.71128 3.45073 7.05121 3.45073 8.63316C3.45073 10.2151 3.99969 11.555 5.09761 12.653C6.19553 13.7509 7.53546 14.2998 9.11741 14.2998C9.7195 14.2998 10.295 14.2113 10.844 14.0342C11.3929 13.8571 11.8976 13.6092 12.3581 13.2905C12.4997 13.4912 12.6739 13.6682 12.8804 13.8217C13.087 13.9752 13.3084 14.0933 13.5445 14.1759C12.9424 14.6599 12.2666 15.0377 11.5169 15.3092C10.7672 15.5808 9.96742 15.7165 9.11741 15.7165ZM14.2528 12.8832C14.0049 12.8832 13.7954 12.7976 13.6242 12.6264C13.453 12.4552 13.3674 12.2457 13.3674 11.9978C13.3674 11.7498 13.453 11.5403 13.6242 11.3691C13.7954 11.1979 14.0049 11.1123 14.2528 11.1123C14.5008 11.1123 14.7103 11.1979 14.8815 11.3691C15.0527 11.5403 15.1383 11.7498 15.1383 11.9978C15.1383 12.2457 15.0527 12.4552 14.8815 12.6264C14.7103 12.7976 14.5008 12.8832 14.2528 12.8832ZM11.4549 11.9623L8.40908 8.9165V5.09148H9.82575V8.34983L12.4466 10.9707L11.4549 11.9623Z" fill="#676F83"/>
</g>
</g>
</svg>
