<svg width="21" height="21" viewBox="0 0 21 21" fill="none" xmlns="http://www.w3.org/2000/svg">
<mask id="mask0_434_5860" style="mask-type:alpha" maskUnits="userSpaceOnUse" x="0" y="0" width="21" height="21">
<rect x="0.888672" y="0.675293" width="20" height="20" fill="#676F83"/>
</mask>
<g mask="url(#mask0_434_5860)">
<path d="M10.8886 19.0085C9.73585 19.0085 8.65252 18.7897 7.63863 18.3522C6.62474 17.9147 5.7428 17.321 4.9928 16.571C4.2428 15.821 3.64905 14.939 3.21155 13.9251C2.77405 12.9112 2.5553 11.8279 2.5553 10.6751C2.5553 9.52235 2.77405 8.43902 3.21155 7.42513C3.64905 6.41124 4.2428 5.5293 4.9928 4.7793C5.7428 4.0293 6.62474 3.43555 7.63863 2.99805C8.65252 2.56055 9.73585 2.3418 10.8886 2.3418C12.0414 2.3418 13.1247 2.56055 14.1386 2.99805C15.1525 3.43555 16.0345 4.0293 16.7845 4.7793C17.5345 5.5293 18.1282 6.41124 18.5657 7.42513C19.0032 8.43902 19.222 9.52235 19.222 10.6751C19.222 11.0501 19.2011 11.4182 19.1595 11.7793C19.1178 12.1404 19.0484 12.4946 18.9511 12.8418C18.7567 12.6196 18.531 12.4321 18.274 12.2793C18.0171 12.1265 17.7359 12.0224 17.4303 11.9668C17.472 11.7585 17.5032 11.5467 17.524 11.3314C17.5449 11.1161 17.5553 10.8974 17.5553 10.6751C17.5553 8.81402 16.9095 7.23763 15.6178 5.94596C14.3261 4.6543 12.7497 4.00846 10.8886 4.00846C9.02752 4.00846 7.45113 4.6543 6.15946 5.94596C4.8678 7.23763 4.22196 8.81402 4.22196 10.6751C4.22196 12.5362 4.8678 14.1126 6.15946 15.4043C7.45113 16.696 9.02752 17.3418 10.8886 17.3418C11.597 17.3418 12.274 17.2376 12.9199 17.0293C13.5657 16.821 14.1595 16.5293 14.7011 16.1543C14.8678 16.3904 15.0727 16.5987 15.3157 16.7793C15.5588 16.9599 15.8192 17.0987 16.097 17.196C15.3886 17.7654 14.5935 18.2099 13.7115 18.5293C12.8296 18.8487 11.8886 19.0085 10.8886 19.0085ZM16.9303 15.6751C16.6386 15.6751 16.3921 15.5744 16.1907 15.373C15.9893 15.1717 15.8886 14.9251 15.8886 14.6335C15.8886 14.3418 15.9893 14.0953 16.1907 13.8939C16.3921 13.6925 16.6386 13.5918 16.9303 13.5918C17.222 13.5918 17.4685 13.6925 17.6699 13.8939C17.8713 14.0953 17.972 14.3418 17.972 14.6335C17.972 14.9251 17.8713 15.1717 17.6699 15.373C17.4685 15.5744 17.222 15.6751 16.9303 15.6751ZM13.6386 14.5918L10.0553 11.0085V6.50846H11.722V10.3418L14.8053 13.4251L13.6386 14.5918Z" fill="#676F83"/>
</g>
</svg>
