<svg width="21" height="21" viewBox="0 0 21 21" fill="none" xmlns="http://www.w3.org/2000/svg">
<mask id="mask0_434_5854" style="mask-type:alpha" maskUnits="userSpaceOnUse" x="0" y="0" width="21" height="21">
<rect x="0.888672" y="0.675293" width="20" height="20" fill="#676F83"/>
</mask>
<g mask="url(#mask0_434_5854)">
<path d="M18.0975 8.48802L16.9308 7.32135L17.5558 6.67552L14.8892 4.00885L14.2433 4.63385L13.0558 3.44635L13.6808 2.80051C14.0003 2.48107 14.3961 2.32482 14.8683 2.33176C15.3406 2.33871 15.7364 2.5019 16.0558 2.82135L18.7433 5.50885C19.0628 5.82829 19.2225 6.22065 19.2225 6.68593C19.2225 7.15121 19.0628 7.54357 18.7433 7.86302L18.0975 8.48802ZM8.09749 18.5088C7.77805 18.8283 7.38569 18.988 6.92041 18.988C6.45513 18.988 6.06277 18.8283 5.74333 18.5088L3.05583 15.8213C2.73638 15.5019 2.57666 15.1095 2.57666 14.6443C2.57666 14.179 2.73638 13.7866 3.05583 13.4672L3.68083 12.8422L4.86833 14.0297L4.22249 14.6547L6.90999 17.3422L7.53499 16.6963L8.72249 17.8838L8.09749 18.5088ZM16.3683 11.5088L17.5558 10.3213L11.2433 4.00885L10.0558 5.19635L16.3683 11.5088ZM10.535 17.3422L11.7225 16.1338L5.43083 9.84218L4.22249 11.0297L10.535 17.3422ZM10.41 12.4672L12.7017 10.1963L11.3683 8.86302L9.09749 11.1547L10.41 12.4672ZM11.7225 18.5088C11.4031 18.8283 11.0072 18.988 10.535 18.988C10.0628 18.988 9.66694 18.8283 9.34749 18.5088L3.05583 12.2172C2.73638 11.8977 2.57666 11.5019 2.57666 11.0297C2.57666 10.5575 2.73638 10.1616 3.05583 9.84218L4.24333 8.65468C4.56277 8.33524 4.95513 8.17552 5.42041 8.17552C5.88569 8.17552 6.27805 8.33524 6.59749 8.65468L7.90999 9.96718L10.2017 7.67552L8.88916 6.38385C8.56972 6.0644 8.40999 5.66857 8.40999 5.19635C8.40999 4.72413 8.56972 4.32829 8.88916 4.00885L10.0767 2.82135C10.3961 2.5019 10.7885 2.34218 11.2537 2.34218C11.719 2.34218 12.1114 2.5019 12.4308 2.82135L18.7433 9.13385C19.0628 9.45329 19.2225 9.84565 19.2225 10.3109C19.2225 10.7762 19.0628 11.1686 18.7433 11.488L17.5558 12.6755C17.2364 12.995 16.8406 13.1547 16.3683 13.1547C15.8961 13.1547 15.5003 12.995 15.1808 12.6755L13.8892 11.363L11.5975 13.6547L12.91 14.9672C13.2294 15.2866 13.3892 15.679 13.3892 16.1443C13.3892 16.6095 13.2294 17.0019 12.91 17.3213L11.7225 18.5088Z" fill="#676F83"/>
</g>
</svg>
