<svg width="193" height="69" viewBox="0 0 193 69" fill="none" xmlns="http://www.w3.org/2000/svg">
<g id="Layer_1" clip-path="url(#clip0_490_5246)">
<path id="Vector" d="M153.762 12.6776C153.762 14.9873 152.39 16.4358 150.117 16.4358C147.882 16.4358 146.06 14.772 146.06 12.6972C146.06 10.7006 147.726 9.05642 149.764 9.03684C152.567 9.01727 153.743 10.0743 153.762 12.6776Z" fill="#EE7A51"/>
<path id="Vector_2" d="M158.899 33.8575C157.899 33.9946 156.9 34.2099 156.547 32.8397C156.664 32.2525 156.782 31.6457 156.9 31.0585C157.37 28.4747 158.801 26.5956 161.172 25.4407C161.623 25.2254 162.074 25.0297 162.564 24.8731C163.76 24.4816 164.524 23.7769 165.092 22.5829C167.288 18.0613 171.169 16.0061 175.99 15.4971C176.951 15.3993 177.676 15.1057 178.362 14.3423C181.694 10.6036 187.103 9.97728 191.455 11.6019C192.101 11.8564 192.199 12.287 192.023 12.8742C191.788 13.5593 191.533 14.2444 191.259 15.0469C187.613 13.5397 184.242 13.6572 180.89 16.0256C181.851 16.5346 182.674 16.9065 183.419 17.3762C187.77 20.0579 189.828 24.7556 188.867 29.7666C188.162 33.4661 184.83 35.1886 181.361 33.7401C179.165 32.8201 177.558 31.2738 176.5 29.1206C175.049 26.1845 174.736 23.131 175.402 19.96C175.481 19.6273 175.5 19.2945 175.559 18.9617C173.599 18.4724 169.267 21.1149 167.935 23.6595C168.307 23.7769 168.66 23.8748 168.993 23.9727C173.285 25.3429 175.285 30.2168 174.05 33.6031C172.991 36.5 169.934 37.42 167.425 35.6192C165.21 34.0337 164.387 31.6848 163.995 29.1402C163.936 28.69 163.877 28.2594 163.818 27.8092C161.956 28.1028 160.467 29.6491 160.094 31.6065C159.938 32.4874 159.781 33.3486 158.938 33.8575H158.899ZM178.969 18.9617C178.107 20.4494 178.185 22.0544 178.283 23.5812C178.499 26.4977 179.401 29.1206 182.184 30.6083C184.105 31.6457 185.281 31.078 185.653 28.9445C186.417 24.4229 183.889 20.5277 178.95 18.9617H178.969ZM167.484 30.6278C167.954 31.3325 168.327 32.0763 168.856 32.6244C169.169 32.9376 169.855 33.2116 170.208 33.0746C170.62 32.8984 171.051 32.3112 171.129 31.8414C171.404 30.0015 169.875 27.6722 168.072 27.1045C167.347 26.8696 166.837 27.0654 166.994 27.9658C167.151 28.8466 167.307 29.7274 167.484 30.6083V30.6278Z" fill="#F8E381"/>
<path id="Vector_3" d="M35.4934 7.00818C35.3367 6.00246 35.1383 4.98344 35.0204 3.97168C34.9235 3.09532 35.1413 2.32843 36.1302 2.05551C37.5005 1.68357 38.4039 1.87962 38.6591 3.00866C39.1756 5.30541 39.5431 7.66498 39.7915 10.0233C39.9021 11.1154 39.0612 11.7021 37.984 11.7906C36.9068 11.8792 36.253 11.2481 36.0443 10.2901C35.7981 9.21905 35.6845 8.10758 35.5127 7.00516L35.4934 7.00818Z" fill="#F8E381"/>
<path id="Vector_4" d="M21.4395 12.3068C20.8968 13.9923 20.5018 15.699 19.805 17.2637C18.8321 19.3886 15.429 21.4554 13.1431 20.3453C12.1896 19.8915 11.7875 19.1481 11.4649 18.3227C10.5843 15.9445 11.1556 13.684 12.4631 11.672C13.4087 10.2028 14.6474 8.91858 15.8266 7.48814C13.9769 5.73433 11.6787 5.03286 9.0559 5.69499C8.05248 5.9638 7.08959 6.38388 6.15069 6.81779C5.51845 7.10876 5.12327 7.07278 4.74147 6.40502C3.50753 4.22283 3.55337 4.69689 5.48796 3.81385C8.30972 2.53103 11.2104 1.9971 14.2424 3.08966C16.1265 3.76022 17.5074 5.05194 18.7774 6.53549C19.4799 7.34022 20.3201 8.12835 21.232 8.65408C23.4158 9.91308 25.066 11.6798 26.5813 13.6245C27.3294 14.5994 27.9464 15.6905 28.61 16.7285C28.7124 16.8835 28.8604 17.2086 28.8465 17.2326C28.1602 17.7002 27.4839 18.2056 26.7191 18.532C26.521 18.6256 25.9955 18.1788 25.7718 17.874C24.4018 16.093 23.0697 14.3018 21.7187 12.5158C21.6214 12.3797 21.4635 12.3207 21.4635 12.3207L21.4395 12.3068ZM17.4375 10.6231C16.1805 11.0814 15.4669 12.2047 14.9135 13.2446C14.3652 14.3034 14.2249 15.5974 14.0643 16.8157C13.9739 17.3871 14.329 17.8796 15.0951 17.6338C17.4262 16.8675 18.809 12.7887 17.4426 10.642L17.4375 10.6231Z" fill="#C2EC81"/>
<path id="Vector_5" d="M37.4362 38.4174C35.731 36.2251 35.045 33.6805 34.9078 31.1359C34.7118 27.593 35.7506 24.285 38.0634 21.4859C40.9642 17.9822 44.5902 16.0052 49.2158 15.692C54.5078 15.3397 58.8786 17.2188 62.6027 20.7617C64.2883 22.3667 65.7779 24.1871 67.1695 26.0662C67.9339 27.0841 68.4239 28.3759 68.7571 29.6287C69.0315 30.6465 69.3255 31.3903 70.4819 31.1554C71.5403 30.9401 71.9715 30.0593 71.4619 28.8849C70.6191 26.947 69.5999 25.0679 68.6591 23.1693C68.4827 22.8365 68.2671 22.5233 67.9927 22.0927C70.6975 20.6834 73.3043 19.137 76.0679 17.943C80.9483 15.8486 85.7699 16.0835 90.5523 18.5498C94.1783 20.4093 96.5695 23.3259 97.6083 27.0645C98.8039 31.312 98.2159 35.54 95.7071 39.3765C94.1391 41.7841 92.0027 43.4479 89.4743 44.6811C88.5923 45.1117 88.1611 45.5227 88.6707 46.5993C92.4535 54.6246 86.7891 64.5487 78.3415 66.2124C73.0887 67.2499 68.2083 66.506 63.9159 63.198C61.0542 60.9862 58.5258 58.422 57.2714 54.8987C56.9578 53.9983 56.5462 53.3915 55.5466 53.6655C54.3706 53.9591 54.4098 55.0161 54.743 55.7404C55.4682 57.4041 56.2914 59.0484 57.3302 60.5164C58.0358 61.5147 57.8986 61.867 56.8794 62.3564C53.665 63.9027 50.6074 66.0167 47.2362 67.0345C39.4746 69.3443 31.027 65.7035 28.2438 57.4629C26.6758 52.7847 27.3422 48.1457 30.3214 44.0938C31.8306 42.0386 33.7318 40.2573 36.221 39.3178C36.613 39.1612 36.9266 38.7697 37.397 38.3782L37.4362 38.4174Z" fill="#FF9F81"/>
<path id="Vector_6" d="M91.8848 40.8054C90.2776 38.7697 89.6112 36.4013 89.474 33.9937C89.278 30.6857 90.2188 27.5734 92.3748 24.9505C95.06 21.6621 98.4508 19.783 102.763 19.4698C107.722 19.0979 111.818 20.84 115.307 24.1284C116.894 25.616 118.306 27.3189 119.599 29.061C120.305 30.0202 120.775 31.2142 121.108 32.3886C121.363 33.3282 121.638 34.0328 122.735 33.8175C123.735 33.6218 124.127 32.7801 123.656 31.7035C122.853 29.8831 121.892 28.1411 120.991 26.3794C120.834 26.0662 120.618 25.7726 120.364 25.3811C122.892 24.0501 125.303 22.582 127.89 21.4468C132.437 19.4698 136.965 19.6655 141.453 21.9361C144.844 23.6586 147.118 26.3794 148.117 29.8636C149.254 33.8371 148.744 37.791 146.412 41.3926C144.962 43.6436 142.982 45.2291 140.61 46.384C139.787 46.7951 139.395 47.167 139.866 48.1848C143.452 55.6816 138.2 64.9793 130.32 66.5843C125.42 67.5826 120.834 66.8975 116.816 63.844C114.131 61.7887 111.74 59.4203 110.564 56.1123C110.27 55.2902 109.878 54.7225 108.937 54.9574C107.839 55.251 107.898 56.2297 108.192 56.9148C108.878 58.4611 109.662 59.9879 110.642 61.3777C111.308 62.3172 111.171 62.65 110.23 63.1002C107.232 64.5682 104.39 66.5648 101.234 67.5239C94.0016 69.7162 86.0635 66.369 83.4175 58.6765C81.9083 54.3115 82.5159 49.966 85.2795 46.1687C86.6907 44.2309 88.4352 42.5671 90.7872 41.6667C91.1596 41.5297 91.4536 41.1382 91.8848 40.7858V40.8054Z" fill="#66A3FF"/>
<g id="Group">
<path id="Vector_7" d="M113.231 45.2362C114.291 45.2011 115.107 43.8501 115.053 42.2186C114.999 40.5871 114.095 39.293 113.035 39.3282C111.975 39.3633 111.159 40.7143 111.213 42.3458C111.268 43.9773 112.171 45.2714 113.231 45.2362Z" fill="#464444"/>
<path id="Vector_8" d="M122.859 44.9178C123.919 44.8826 124.735 43.5316 124.681 41.9001C124.627 40.2686 123.723 38.9745 122.663 39.0097C121.603 39.0448 120.787 40.3958 120.841 42.0273C120.895 43.6588 121.799 44.9529 122.859 44.9178Z" fill="#464444"/>
</g>
<g id="Group_2">
<path id="Vector_9" d="M60.7488 43.3926C61.8091 43.3574 62.6246 42.0064 62.5704 40.3749C62.5162 38.7434 61.6128 37.4493 60.5526 37.4845C59.4923 37.5196 58.6767 38.8706 58.7309 40.5021C58.7851 42.1336 59.6886 43.4277 60.7488 43.3926Z" fill="#464444"/>
<path id="Vector_10" d="M70.3758 43.0545C71.436 43.0194 72.2516 41.6683 72.1974 40.0369C72.1432 38.4054 71.2398 37.1113 70.1795 37.1464C69.1193 37.1815 68.3037 38.5326 68.3579 40.1641C68.4121 41.7955 69.3155 43.0896 70.3758 43.0545Z" fill="#464444"/>
</g>
<g id="Group_3">
<path id="Vector_11" d="M77.3808 22.6016C77.2436 22.5429 77.1064 22.4842 76.9692 22.4059C73.5 20.6051 70.0112 18.8043 66.542 17.0035C66.4048 16.9252 66.2676 16.8664 66.1304 16.8077C66.1304 16.8077 64.9544 16.1814 64.4644 15.9269V16.0835C64.4056 17.2971 64.3664 18.4911 64.3076 19.7047C64.8564 19.9787 73.9704 24.7548 77.7728 26.7317C77.8904 26.7905 78.0472 26.8687 78.1452 26.8296C78.8116 26.6339 79.4584 26.399 80.1249 26.1837C79.2036 24.9896 78.2824 23.7956 77.3612 22.6016H77.3808Z" fill="#73A3F8"/>
<path id="Vector_12" d="M73.8915 18.0017C73.5387 17.532 73.1663 17.0818 72.7939 16.6316C72.7351 16.5924 72.6763 16.5728 72.6175 16.5337C72.4607 16.4554 72.3039 16.3771 72.1471 16.2988C70.1675 15.281 68.1879 14.2435 66.1887 13.2257C66.1887 13.2257 65.1107 12.658 64.6011 12.4036C64.5619 13.578 64.5031 14.7525 64.4639 15.9269C64.4835 15.9269 64.5227 15.966 64.5423 15.9856C65.0323 16.2401 65.6399 16.5728 66.1299 16.8077C66.2671 16.8664 66.4043 16.9252 66.5415 17.0035C70.0107 18.8043 73.4995 20.6051 76.9687 22.4059C77.1059 22.4842 77.2431 22.5429 77.3803 22.6016C77.3607 22.5625 77.3411 22.5233 77.3215 22.4842C76.1847 20.9966 75.0479 19.4894 73.9111 18.0017H73.8915Z" fill="#EDF6FD"/>
<path id="Vector_13" d="M68.7567 11.3466C68.3451 10.8181 67.9531 10.2504 67.5611 9.72194L67.1299 9.50662C66.8555 9.58492 66.5615 9.68279 66.2871 9.76108C65.9343 9.85895 65.5815 9.95682 65.2287 10.0743C64.8367 10.1917 64.6995 10.407 64.6799 10.8181C64.6603 11.3466 64.6407 11.8946 64.6211 12.4231C65.1307 12.6776 65.6991 12.9908 66.2087 13.2453C68.1883 14.2631 70.1679 15.3005 72.1671 16.3184C72.3239 16.3967 72.6571 16.5728 72.8139 16.6511C72.8139 16.612 70.0699 13.0495 68.7763 11.3466H68.7567Z" fill="#73A3F8"/>
<path id="Vector_14" d="M80.1446 26.1837C79.4782 26.399 78.8314 26.6339 78.165 26.8296C78.067 26.8687 77.9102 26.7904 77.7926 26.7317C73.9902 24.7548 70.1878 22.7974 66.3854 20.8204C66.2482 20.7421 66.111 20.6834 65.9738 20.6246C65.9738 20.6051 65.9542 20.5659 65.9346 20.5464C65.3858 20.2723 64.8566 19.9983 64.3078 19.7242C64.2686 20.5464 64.1706 22.9344 64.1706 23.3063C64.6998 23.5803 65.2878 23.9131 65.8366 24.1871C68.4042 25.5181 70.9718 26.8492 73.5394 28.1802C73.559 28.1802 73.5786 28.2193 73.6374 28.2781C73.5002 28.3368 73.3826 28.3759 73.265 28.4151C70.8542 29.1785 68.4434 29.9419 66.0522 30.7052C65.915 30.7444 65.7974 30.8031 65.6602 30.8618C65.6602 30.8618 65.621 30.8618 65.6014 30.8423C64.9938 31.038 64.3862 31.2337 63.7786 31.4295C63.759 31.8993 63.7002 32.369 63.7002 32.8388C63.7002 33.2694 64.1902 33.6218 64.6018 33.5239C65.0134 33.4065 65.4054 33.2694 65.817 33.1324C65.9346 33.0933 66.0718 33.0737 66.1894 33.0345C68.2474 32.4082 70.3054 31.7622 72.3438 31.1163C75.0878 30.255 77.8122 29.3938 80.5562 28.5325C81.1246 28.3564 81.301 27.7887 80.9482 27.3189C80.6738 26.947 80.3994 26.6143 80.125 26.262L80.1446 26.1837Z" fill="#EDF6FD"/>
<path id="Vector_15" d="M73.5586 28.1411C70.991 26.81 68.4234 25.479 65.8558 24.148C65.8558 24.148 64.719 23.5607 64.1898 23.2867C64.1702 23.6586 63.9154 29.0415 63.8174 31.3708C64.425 31.175 65.0914 30.9989 65.6794 30.8031C65.8166 30.7444 65.9342 30.7053 66.0714 30.6465C68.4822 29.8831 70.893 29.1198 73.2842 28.3564C73.4018 28.3172 73.5194 28.2781 73.6566 28.2194C73.5978 28.1606 73.5782 28.1411 73.5586 28.1215V28.1411Z" fill="#73A3F8"/>
<path id="Vector_16" d="M66.4241 12.4232L65.4441 11.2487C65.3461 11.1313 65.1697 11.0725 65.0129 11.1508L63.6213 11.7576C63.3273 11.8947 63.0137 11.601 63.1313 11.2879L63.6605 9.85896C63.7193 9.70237 63.6605 9.5262 63.5233 9.42833L62.2885 8.52793C62.0337 8.33219 62.1121 7.92114 62.4453 7.86242L63.9349 7.60795C64.0917 7.58838 64.2289 7.45136 64.2485 7.2752L64.4053 5.768C64.4445 5.43524 64.8561 5.3178 65.0521 5.57226L66.0321 6.7467C66.1301 6.86414 66.3065 6.92286 66.4633 6.84457L67.8549 6.23778C68.1489 6.10076 68.4625 6.39437 68.3449 6.70755L67.8157 8.13645C67.7569 8.29304 67.8157 8.46921 67.9529 8.56708L69.1877 9.46748C69.4426 9.66322 69.3642 10.0743 69.031 10.133L67.5413 10.3875C67.3845 10.407 67.2473 10.544 67.2277 10.7202L67.0709 12.2274C67.0317 12.5602 66.6201 12.6776 66.4241 12.4232Z" fill="#F5BFCD"/>
</g>
<path id="Vector_17" d="M127.851 27.5147C127.753 27.3777 127.655 27.2407 127.557 27.1036C125.088 23.502 122.599 19.9004 120.129 16.2988C120.031 16.1618 119.933 16.0248 119.835 15.8877C119.835 15.8877 119.012 14.6546 118.659 14.1457L118.561 14.3023C117.875 15.4571 117.189 16.6316 116.503 17.7864C116.895 18.3345 123.363 27.8474 126.087 31.7818C126.166 31.8993 126.283 32.0559 126.401 32.0754C127.165 32.232 127.93 32.3495 128.694 32.4865C128.42 30.8227 128.145 29.1785 127.871 27.5147H127.851Z" fill="#73A3F8"/>
<path id="Vector_18" d="M126.831 21.1727C126.733 20.5268 126.596 19.8808 126.479 19.2349C126.439 19.1762 126.4 19.0979 126.361 19.0391C126.243 18.8826 126.126 18.726 126.028 18.5694C124.617 16.5141 123.205 14.4588 121.794 12.4036C121.794 12.4036 121.03 11.2683 120.657 10.7594C119.991 11.8946 119.325 13.0299 118.658 14.1652C118.658 14.2044 118.697 14.2239 118.697 14.2631C119.05 14.772 119.462 15.418 119.834 15.9269C119.932 16.0639 120.05 16.1813 120.128 16.3379C122.598 19.9395 125.087 23.5412 127.557 27.1428C127.655 27.2798 127.753 27.4168 127.851 27.5538C127.851 27.4951 127.851 27.456 127.851 27.3972C127.517 25.3224 127.184 23.2671 126.831 21.1923V21.1727Z" fill="#EDF6FD"/>
<path id="Vector_19" d="M125.304 11.8946C125.186 11.1508 125.088 10.407 124.97 9.64364L124.657 9.19344C124.343 9.13472 124.01 9.05642 123.696 8.9977C123.285 8.9194 122.893 8.82153 122.481 8.74324C122.03 8.66494 121.776 8.80196 121.54 9.17386C121.246 9.68279 120.933 10.2113 120.619 10.7202C120.992 11.2487 121.384 11.8555 121.756 12.3644C123.167 14.4197 124.578 16.475 125.99 18.5302C126.107 18.6868 126.342 19.0391 126.46 19.1957C126.499 19.1762 125.656 14.224 125.284 11.8555L125.304 11.8946Z" fill="#73A3F8"/>
<path id="Vector_20" d="M128.674 32.4865C127.91 32.3494 127.145 32.232 126.381 32.0754C126.263 32.0558 126.146 31.8992 126.067 31.7818C123.362 27.8474 120.638 23.8935 117.933 19.9591C117.835 19.8221 117.737 19.6851 117.639 19.5481C117.639 19.5089 117.639 19.4893 117.639 19.4502C117.247 18.9021 116.855 18.3541 116.463 17.806C115.973 18.6085 114.64 20.8987 114.444 21.2706C114.836 21.8187 115.228 22.445 115.62 23.0127C117.443 25.6747 119.285 28.3368 121.108 30.9988C121.108 31.0184 121.128 31.0576 121.167 31.1359C121.01 31.1163 120.873 31.0967 120.736 31.0771C117.972 30.5682 115.189 30.0397 112.425 29.5308C112.269 29.5112 112.112 29.4916 111.975 29.4721C111.975 29.4525 111.955 29.4329 111.935 29.4134C111.23 29.2959 110.544 29.1589 109.838 29.0414C109.564 29.4916 109.27 29.9223 109.015 30.3921C108.799 30.8227 109.074 31.4295 109.544 31.5273C110.015 31.6252 110.485 31.6839 110.955 31.7818C111.093 31.821 111.23 31.8601 111.367 31.8797C113.719 32.3299 116.091 32.7801 118.443 33.2303C121.598 33.8175 124.734 34.4047 127.89 34.9919C128.537 35.1094 129.007 34.6396 128.909 33.9937C128.831 33.5043 128.733 32.9954 128.654 32.506L128.674 32.4865Z" fill="#EDF6FD"/>
<path id="Vector_21" d="M121.168 30.9597C119.345 28.2976 117.502 25.6356 115.68 22.9735C115.68 22.9539 114.876 21.7991 114.504 21.251C114.288 21.6033 111.211 26.7709 109.878 29.0219C110.584 29.1393 111.328 29.3155 112.014 29.4329C112.171 29.4329 112.328 29.4721 112.465 29.4917C115.229 30.0006 118.012 30.5291 120.776 31.038C120.913 31.0576 121.05 31.0771 121.207 31.0967C121.187 31.0184 121.168 30.9793 121.148 30.9597H121.168Z" fill="#73A3F8"/>
<path id="Vector_22" d="M122.421 11.738L122.069 10.0743C122.029 9.8981 121.873 9.76108 121.696 9.7415L120.011 9.62406C119.638 9.60449 119.501 9.15428 119.775 8.89982L121.049 7.76453C121.187 7.64709 121.226 7.45135 121.147 7.27518L120.403 5.74841C120.246 5.41566 120.559 5.06332 120.912 5.18077L122.519 5.70926C122.696 5.76799 122.892 5.70926 122.99 5.55267L123.95 4.14335C124.146 3.84974 124.617 3.92803 124.695 4.29994L125.048 5.96373C125.087 6.13989 125.244 6.27691 125.42 6.29648L127.106 6.41393C127.478 6.4335 127.615 6.8837 127.341 7.13817L126.067 8.27346C125.93 8.3909 125.891 8.58664 125.969 8.7628L126.714 10.2896C126.871 10.6223 126.557 10.9747 126.204 10.8572L124.597 10.3287C124.421 10.27 124.225 10.3287 124.127 10.4853L123.166 11.8946C122.97 12.1883 122.5 12.11 122.421 11.738Z" fill="#F5BFCD"/>
</g>
<defs>
<clipPath id="clip0_490_5246">
<rect width="192.1" height="68" fill="white" transform="translate(0 0.208984)"/>
</clipPath>
</defs>
</svg>
