<svg width="209" height="108" viewBox="0 0 209 108" fill="none" xmlns="http://www.w3.org/2000/svg">
<g id="Layer_1">
<path id="Vector" d="M54.4717 65.4277C52.108 62.1979 51.2025 58.5066 51.1104 54.8C50.9722 49.6783 52.5992 44.9412 56.0372 40.9885C60.3348 36.0361 65.63 33.3292 72.3066 33.0677C79.9501 32.7601 86.1663 35.6516 91.3847 40.9116C93.7484 43.2802 95.8358 45.9871 97.739 48.7401C98.7827 50.2474 99.4427 52.1238 99.8724 53.9387C100.225 55.4152 100.609 56.5072 102.297 56.2149C103.832 55.9535 104.492 54.6923 103.802 52.9851C102.666 50.1551 101.284 47.4021 99.9799 44.6336C99.7496 44.1415 99.4273 43.68 99.059 43.0648C103.019 41.1423 106.81 38.9891 110.831 37.3895C117.938 34.5596 124.875 35.0979 131.659 38.8507C136.785 41.6806 140.131 46.0025 141.497 51.4317C143.048 57.6299 142.05 63.6897 138.274 69.1497C135.926 72.5487 132.795 74.8865 129.096 76.5476C127.807 77.1321 127.177 77.7011 127.868 79.2853C132.994 91.0204 124.445 105.139 112.243 107.2C104.646 108.492 97.6469 107.2 91.615 102.279C87.5783 98.9874 84.0328 95.1885 82.3905 90.0361C81.9761 88.7441 81.4236 87.8521 79.9501 88.1751C78.2465 88.5596 78.2771 90.0822 78.7069 91.1588C79.6892 93.5735 80.8096 95.9882 82.2371 98.1568C83.204 99.6333 82.9891 100.141 81.5157 100.802C76.819 102.925 72.3526 105.847 67.4565 107.17C56.2061 110.2 44.1882 104.617 40.5046 92.5892C38.4172 85.7758 39.5683 79.1007 44.0194 73.3793C46.291 70.4724 49.069 67.9808 52.7066 66.7196C53.2899 66.5197 53.7503 65.9506 54.4256 65.4123L54.4717 65.4277Z" fill="#66A3FF"/>
<path id="Vector_2" d="M25.6473 62.0154C27.1668 63.2304 28.6863 64.4455 30.2058 65.6297C30.9732 66.2296 31.1574 67.014 30.9271 67.8906C30.3592 70.1208 29.7914 72.3509 29.1467 74.5656C28.5481 76.5958 27.1514 77.088 25.3556 76.0268C23.6366 75.0117 21.8715 74.0889 20.1679 73.043C18.94 72.2894 18.7098 71.3666 19.3391 70.1054C20.3674 68.0906 21.3804 66.0604 22.5008 64.0917C22.9459 63.3073 23.698 62.6921 24.2966 62C24.7417 62 25.1868 62 25.6319 62L25.6473 62.0154Z" fill="#88CAD6"/>
<path id="Vector_3" d="M155.988 86.8906C155.092 90.3348 154.377 93.4715 153.444 96.5344C153.032 97.8629 151.373 98.3795 150.065 97.703C147.739 96.4975 145.45 95.2059 143.197 93.8774C141.973 93.1517 141.683 91.8232 142.349 90.5193C143.645 87.9731 144.941 85.4391 146.298 82.9175C147.473 80.728 148.999 80.4328 150.949 81.9334C152.136 82.8437 153.372 83.6924 154.462 84.7134C155.128 85.3284 155.552 86.2264 156 86.8906H155.988Z" fill="#C2EC81"/>
<path id="Vector_4" d="M50.0245 19.654C50.0245 18.0237 49.9631 16.4087 50.0398 14.7784C50.1012 13.3942 50.623 12.2407 52.25 12.0561C54.4755 11.81 55.8262 12.3484 55.949 14.1632C56.1945 17.9006 56.1792 21.6688 55.995 25.4062C55.9029 27.1441 54.4448 27.8516 52.7411 27.7286C51.0375 27.5902 50.1933 26.4674 50.0705 24.914C49.9324 23.176 50.0398 21.4073 50.0398 19.654H50.0245Z" fill="#F8E381"/>
<path id="Vector_5" d="M147.994 22.2609C148.01 24.9678 146.383 26.6442 143.727 26.6596C141.133 26.675 139 24.7063 139 22.2916C139 19.9385 140.934 18.0313 143.313 18.0006C146.582 17.9698 147.948 19.2156 147.979 22.2455L147.994 22.2609Z" fill="#EE7A51"/>
<path id="Vector_6" d="M151.285 63.0339C149.903 63.2338 148.476 63.4953 148 61.5881C148.169 60.7576 148.353 59.9271 148.507 59.0965C149.197 55.4668 151.208 52.8676 154.523 51.268C155.152 50.9604 155.797 50.6836 156.457 50.4836C158.13 49.9607 159.204 48.961 160.002 47.3153C163.103 41.0094 168.552 38.1794 175.305 37.5181C176.64 37.395 177.669 36.9952 178.62 35.9339C183.317 30.72 190.884 29.9049 196.931 32.2427C197.836 32.5964 197.975 33.227 197.698 34.0268C197.376 34.9957 197.008 35.9339 196.609 37.0567C191.528 34.9034 186.816 35.0419 182.12 38.3179C183.455 39.0407 184.591 39.579 185.65 40.2404C191.697 44.0547 194.521 50.6528 193.109 57.6662C192.065 62.8339 187.415 65.2179 182.58 63.1415C179.526 61.8342 177.3 59.6349 175.842 56.6049C173.862 52.4677 173.448 48.2073 174.399 43.7471C174.491 43.2857 174.553 42.8089 174.614 42.3629C171.867 41.6554 165.82 45.3159 163.916 48.8533C164.438 49.0225 164.914 49.1609 165.39 49.3147C171.376 51.268 174.108 58.1276 172.327 62.8647C170.808 66.9097 166.541 68.1709 163.057 65.6024C159.987 63.3415 158.867 60.0655 158.345 56.4819C158.253 55.8667 158.191 55.2361 158.115 54.6055C155.521 54.99 153.403 57.1433 152.881 59.8963C152.651 61.1267 152.436 62.3264 151.239 63.0493L151.285 63.0339ZM179.48 42.3782C178.267 44.4699 178.344 46.7001 178.482 48.8533C178.743 52.9291 179.986 56.6203 183.854 58.7582C186.525 60.2347 188.182 59.4503 188.719 56.4665C189.84 50.1453 186.34 44.6545 179.48 42.3936V42.3782ZM163.302 58.589C163.947 59.5887 164.454 60.6192 165.206 61.4036C165.635 61.8496 166.602 62.2341 167.078 62.0496C167.661 61.8188 168.275 60.9883 168.367 60.3423C168.782 57.7585 166.664 54.4979 164.162 53.6827C163.149 53.3443 162.443 53.6058 162.642 54.8977C162.842 56.1435 163.072 57.374 163.287 58.6044L163.302 58.589Z" fill="#F8E381"/>
<path id="Vector_7" d="M32.7016 28.8601C31.1821 31.2287 29.9081 33.6742 28.1891 35.7659C25.8408 38.6266 19.7935 40.3953 16.7545 37.7499C15.4959 36.6579 15.1583 35.366 15.0355 33.9818C14.6671 29.9983 16.4475 26.7684 19.2563 24.2153C21.2977 22.3543 23.7227 20.9086 26.1017 19.186C23.9836 15.7408 20.7758 13.7414 16.5089 13.6645C14.882 13.6337 13.2397 13.9259 11.6128 14.2028C10.523 14.3873 9.92445 14.172 9.61748 13.0031C8.61983 9.15806 8.49704 9.89631 11.8277 9.358C16.6471 8.57361 21.2977 8.94274 25.4724 11.8342C28.051 13.6337 29.6472 16.1561 30.9825 18.9553C31.7193 20.4933 32.6709 22.0159 33.868 23.2156C36.6768 26.0302 38.4879 29.4138 39.9767 32.9974C40.7288 34.7969 41.2046 36.7194 41.8032 38.5804C41.8953 38.8727 42.0027 39.4264 41.9567 39.4417C40.7135 39.8724 39.4702 40.3646 38.181 40.5491C37.8586 40.5953 37.2294 39.7186 36.9991 39.1649C35.6331 35.8889 34.3285 32.5822 32.9932 29.2908C32.9011 29.0601 32.6709 28.8755 32.6709 28.8755L32.7016 28.8601ZM27.2989 24.646C25.1808 24.8305 23.646 26.2609 22.3874 27.6143C21.1135 28.9986 20.3921 30.9365 19.6247 32.7206C19.2563 33.5665 19.5786 34.4585 20.8526 34.3816C24.7204 34.1509 28.5114 28.5064 27.2836 24.6306L27.2989 24.646Z" fill="#C2EC81"/>
<path id="Vector_8" d="M114.512 20.4709C114.5 21.6524 114.475 22.8464 114.475 24.0279C114.5 27.7838 114.599 35.6688 114.537 35.6937C114.401 35.4201 114.115 34.8231 113.979 34.5495C112.291 31.0299 110.59 27.4978 108.903 23.9657C108.903 23.9159 108.903 23.8786 108.89 23.8289C109.051 23.6548 109.213 23.4806 109.362 23.2941C110.479 21.926 111.583 20.5455 112.7 19.165C113.184 19.3392 113.656 19.5133 114.14 19.6998C114.264 19.961 114.388 20.2097 114.512 20.4709Z" fill="#AECEFC"/>
<path id="Vector_9" d="M114.76 56.7996C114.772 57.5832 114.81 58.3791 114.797 59.1627C114.785 60.2074 113.941 60.8043 112.973 60.4685C108.244 58.802 103.515 57.1354 98.7866 55.4565C95.2494 54.2003 91.7122 52.9193 88.175 51.6508C87.9641 51.5761 87.7655 51.4766 87.5669 51.402C87.5917 51.116 87.5172 50.7429 87.6662 50.5439C88.3116 49.6857 89.0314 48.8898 89.714 48.0689C89.9498 48.1311 90.1857 48.1933 90.4091 48.2679C94.5668 49.7355 98.7246 51.203 102.895 52.6581C103.093 52.7328 103.304 52.7825 103.553 52.8696C103.528 52.7452 103.528 52.683 103.503 52.6333C101.306 48.0689 99.1217 43.5046 96.925 38.9278C96.925 38.8905 96.9125 38.8407 96.9001 38.8034C97.0863 38.6169 97.2849 38.4552 97.4462 38.2562C98.5756 36.8633 99.6927 35.4703 100.822 34.0898C100.934 34.3261 101.058 34.5624 101.17 34.7987C104.409 41.5644 107.648 48.3425 110.9 55.0958C110.999 55.2948 111.148 55.556 111.322 55.6306C112.451 56.0534 113.606 56.4265 114.76 56.8121V56.7996Z" fill="#EDF6FD"/>
<path id="Vector_10" d="M114.761 56.7991C113.619 56.4136 112.464 56.0405 111.323 55.6176C111.136 55.5554 110.988 55.2942 110.901 55.0828C107.649 48.3171 104.41 41.5515 101.17 34.7858C101.059 34.5495 100.934 34.3132 100.823 34.0769C100.835 34.0271 100.848 33.9774 100.86 33.9276C101.716 32.8581 102.56 31.776 103.429 30.7189C103.938 30.0971 104.496 29.525 105.043 28.9404C105.167 29.1767 105.303 29.4006 105.415 29.6369C108.381 35.818 111.335 42.0116 114.301 48.1928C114.413 48.4291 114.537 48.6529 114.661 48.8892C114.686 51.5259 114.723 54.1625 114.748 56.7991H114.761Z" fill="#AECEFC"/>
<path id="Vector_11" d="M114.673 48.8772C114.549 48.6409 114.425 48.417 114.314 48.1807C111.347 41.9996 108.393 35.806 105.427 29.6249C105.315 29.3886 105.179 29.1647 105.055 28.9284C105.03 28.8538 105.017 28.7792 104.993 28.7045C105.601 27.9832 106.197 27.2619 106.805 26.5281C107.512 25.6824 108.207 24.8242 108.915 23.9785C110.603 27.5106 112.303 31.0302 113.991 34.5623C114.127 34.8359 114.264 35.1095 114.4 35.3832C114.45 35.4951 114.5 35.607 114.549 35.7065C114.574 36.7388 114.624 37.7586 114.636 38.7909C114.673 42.0742 114.686 45.37 114.711 48.6533C114.711 48.728 114.686 48.815 114.686 48.8896L114.673 48.8772Z" fill="#EDF6FD"/>
<path id="Vector_12" d="M99.4573 31.0801C99.9289 32.0253 100.401 32.9829 100.872 33.9281C100.86 33.9779 100.847 34.0276 100.835 34.0774C99.7055 35.4703 98.5885 36.8632 97.4591 38.2437C97.2978 38.4427 97.1116 38.679 96.9254 38.9278C96.4538 37.9826 95.9822 36.9006 95.5229 35.9553C95.8953 35.4454 98.5389 32.1994 99.4697 31.0801H99.4573Z" fill="#EDF6FD"/>
<path id="Vector_13" d="M105.043 28.9281C104.608 28.0575 104.124 26.9631 103.69 26.0925C103.677 26.0427 103.653 25.993 103.64 25.9432C104.943 24.3389 106.246 22.7469 107.55 21.1426C107.996 22.038 108.89 23.9284 108.89 23.9782C108.89 23.9782 105.638 28.2067 105.03 28.9281H105.043Z" fill="#EDF6FD"/>
<path id="Vector_14" d="M108.902 23.9781C108.456 23.0826 107.996 22.0379 107.562 21.1425C108.158 20.4087 108.753 19.6873 109.349 18.9536C109.796 18.4063 110.23 18.2695 110.901 18.4934C111.509 18.7048 112.105 18.9411 112.713 19.1774C111.596 20.5579 109.076 23.804 108.915 23.9781H108.902Z" fill="#AECEFC"/>
<path id="Vector_15" d="M86.4997 46.8872C87.5546 47.2478 88.6096 47.6085 89.6645 47.9568C89.6894 47.9816 89.7018 48.0189 89.7142 48.0438C89.0192 48.8646 88.3117 49.673 87.6663 50.5188C87.5174 50.7177 87.5919 51.0909 87.567 51.3769C86.8596 51.1406 86.1397 50.9292 85.4571 50.6556C84.7745 50.3819 84.4766 49.3621 84.9234 48.7527C85.4075 48.0936 85.9784 47.4842 86.5121 46.8623L86.4997 46.8872Z" fill="#EDF6FD"/>
<path id="Vector_16" d="M89.7142 48.0564C89.7142 48.0564 89.6894 47.9942 89.6646 47.9694C92.0847 44.9596 94.5049 41.9375 96.9251 38.9277C99.1219 43.4921 101.306 48.0564 103.503 52.6332C103.528 52.683 103.528 52.7451 103.553 52.8695C103.304 52.7949 103.093 52.7327 102.895 52.6581C98.7372 51.1905 94.5794 49.723 90.4092 48.2679C90.1858 48.1932 89.95 48.131 89.7142 48.0689V48.0564Z" fill="#AECEFC"/>
<path id="Vector_17" d="M96.9259 38.9148L89.715 48.0435C88.66 47.6828 87.5554 47.2351 86.5005 46.8744C89.082 43.7155 95.0891 36.4274 95.511 35.9424C95.9827 36.8876 96.9259 38.8651 96.9259 38.9024V38.9148Z" fill="#AECEFC"/>
<path id="Vector_18" d="M105.042 28.9282C105.042 28.9282 101.666 33.0075 100.81 34.0771C100.338 33.1319 99.9165 32.025 99.4448 31.0798C100.785 29.4381 102.126 27.8089 103.466 26.1672L103.64 25.9434C104.074 26.8139 105.017 28.8536 105.042 28.9282Z" fill="#AECEFC"/>
<path id="Vector_19" d="M87.0719 73.3331C88.6994 73.3331 90.0188 71.2949 90.0188 68.7806C90.0188 66.2663 88.6994 64.228 87.0719 64.228C85.4444 64.228 84.125 66.2663 84.125 68.7806C84.125 71.2949 85.4444 73.3331 87.0719 73.3331Z" fill="#464444"/>
<path id="Vector_20" d="M101.899 73.3331C103.526 73.3331 104.845 71.2949 104.845 68.7806C104.845 66.2663 103.526 64.228 101.899 64.228C100.271 64.228 98.9517 66.2663 98.9517 68.7806C98.9517 71.2949 100.271 73.3331 101.899 73.3331Z" fill="#464444"/>
<path id="Vector_21" d="M110.081 23.0951L109.945 20.4336C109.932 20.1476 109.721 19.8988 109.448 19.8366L106.867 19.2397C106.308 19.1153 106.184 18.3815 106.656 18.0706L108.89 16.6279C109.138 16.4662 109.237 16.1677 109.163 15.8941L108.393 13.3446C108.232 12.7973 108.803 12.3123 109.312 12.5735L111.67 13.7799C111.93 13.9167 112.241 13.8545 112.439 13.6431L114.251 11.7029C114.636 11.28 115.344 11.5412 115.368 12.1133L115.505 14.7748C115.517 15.0609 115.728 15.3096 116.001 15.3718L118.583 15.9688C119.141 16.0931 119.265 16.8269 118.794 17.1378L116.56 18.5805C116.312 18.7422 116.212 19.0407 116.287 19.3143L117.056 21.8639C117.218 22.4111 116.647 22.8961 116.138 22.6349L113.78 21.4286C113.519 21.2918 113.209 21.3539 113.01 21.5654L111.198 23.5055C110.813 23.9284 110.106 23.6672 110.081 23.0951Z" fill="#F5BFCD"/>
</g>
</svg>
