<svg width="229" height="144" viewBox="0 0 229 144" fill="none" xmlns="http://www.w3.org/2000/svg">
<g clip-path="url(#clip0_667_7385)">
<rect width="105.179" height="79.1166" transform="translate(52.7593 52.1006) rotate(3.72092)" fill="white"/>
<path fill-rule="evenodd" clip-rule="evenodd" d="M50.5998 115.998C54.0327 125.25 62.8583 131.653 73.101 132.319L73.0874 132.331C77.1691 132.596 81.3132 131.902 85.052 130.305L92.5946 127.099C92.3009 126.728 91.9955 126.322 91.6845 125.88C89.5729 122.88 87.2296 118.251 86.4881 111.744C86.3695 110.704 87.1203 109.766 88.165 109.648C89.2097 109.531 90.1526 110.279 90.2711 111.319C90.9305 117.105 92.9982 121.144 94.8022 123.707C95.7064 124.992 96.5511 125.915 97.1361 126.511C97.3405 126.719 97.476 126.851 97.6007 126.973C97.6801 127.049 97.755 127.123 97.84 127.208L97.8495 127.217C97.892 127.259 98.0081 127.375 98.12 127.515C102.769 131.836 109.01 134.519 115.544 134.944C121.551 135.334 127.391 133.738 131.961 130.453C139.791 124.825 143.426 115.304 141.579 106.243C153.75 100.649 159.251 86.6188 153.844 74.6209C150.059 66.2358 141.633 60.6243 131.865 59.989C127.655 59.7152 123.407 60.427 119.576 62.0551L109.619 66.2983L106.887 63.3171C102.313 58.3265 95.7493 55.2073 88.8694 54.7598C82.8367 54.3675 76.8894 56.0309 72.1289 59.4634C63.4061 65.7505 60.0068 76.3977 63.1518 86.1119C51.8569 91.7131 46.3562 104.545 50.5998 115.998Z" fill="url(#paint0_linear_667_7385)"/>
<path d="M99.0297 92.7062C100.634 92.7906 102.039 90.8631 102.169 88.4011C102.298 85.939 101.102 83.8747 99.4978 83.7903C97.8935 83.7059 96.4882 85.6334 96.3589 88.0954C96.2297 90.5575 97.4255 92.6218 99.0297 92.7062Z" fill="#464444"/>
<path d="M113.625 93.474C115.229 93.5584 116.635 91.6309 116.764 89.1689C116.893 86.7068 115.697 84.6426 114.093 84.5581C112.489 84.4737 111.083 86.4012 110.954 88.8632C110.825 91.3253 112.02 93.3896 113.625 93.474Z" fill="#464444"/>
</g>
<path d="M55.8692 25.8494C54.2834 27.9924 52.9256 30.2232 51.1676 32.0924C48.7658 34.6491 42.9247 35.9465 40.2063 33.2611C39.0803 32.1523 38.8396 30.9115 38.8082 29.5968C38.7037 25.8124 40.5898 22.8722 43.4091 20.6344C45.4585 19.0028 47.8461 17.7871 50.207 16.3071C48.4108 12.9232 45.4927 10.8373 41.4527 10.5017C39.9123 10.3723 38.3376 10.547 36.7783 10.7082C35.734 10.8153 35.1798 10.575 34.9606 9.45231C34.251 5.75986 34.0893 6.44943 37.2796 6.14642C41.8963 5.70282 46.2821 6.33809 50.062 9.32593C52.3958 11.1842 53.7541 13.6645 54.848 16.3901C55.4519 17.8879 56.2604 19.3845 57.3216 20.5911C59.8113 23.4221 61.3204 26.729 62.5116 30.2048C63.114 31.9505 63.447 33.7953 63.9001 35.5896C63.9695 35.8712 64.0373 36.4007 63.9927 36.4124C62.7878 36.7424 61.579 37.1305 60.3455 37.2253C60.0372 37.249 59.4945 36.3824 59.3102 35.8453C58.2165 32.6675 57.1829 29.4645 56.1192 26.2741C56.0461 26.0506 55.8392 25.8621 55.8392 25.8621L55.8692 25.8494ZM51.0066 21.5369C48.9874 21.5806 47.4446 22.8367 46.1685 24.0372C44.8758 25.2658 44.073 27.0513 43.236 28.6887C42.8348 29.4648 43.0856 30.3271 44.2979 30.333C47.9786 30.3536 51.9189 25.2571 50.993 21.5214L51.0066 21.5369Z" fill="#C2EC81"/>
<path d="M153.527 32.8144C152.342 33.1344 151.123 33.5128 150.506 31.904C150.566 31.1636 150.64 30.4216 150.686 29.6828C150.907 26.4521 152.389 23.9783 155.116 22.2363C155.633 21.9021 156.167 21.5931 156.722 21.3494C158.128 20.7176 158.961 19.7343 159.485 18.2183C161.528 12.4047 165.988 9.36668 171.816 8.07735C172.97 7.82913 173.826 7.37253 174.545 6.3487C178.097 1.3163 184.619 -0.192829 190.147 1.2016C190.975 1.4136 191.162 1.94758 191.005 2.67256C190.825 3.54958 190.603 4.40471 190.372 5.42364C185.709 4.08754 181.608 4.70613 177.852 8.05264C179.094 8.54032 180.143 8.88855 181.137 9.35192C186.82 12.0308 189.981 17.4723 189.487 23.7229C189.12 28.329 185.309 30.8946 180.868 29.5994C178.063 28.785 175.888 27.107 174.296 24.6252C172.131 21.2353 171.32 17.5729 171.682 13.592C171.713 13.1809 171.717 12.7596 171.724 12.3651C169.25 12.0401 164.354 15.8639 163.065 19.1425C163.538 19.2345 163.968 19.3046 164.4 19.3881C169.833 20.4546 172.942 26.1332 171.886 30.4425C170.985 34.1221 167.391 35.6704 164.078 33.8043C161.159 32.162 159.836 29.4305 159.003 26.3681C158.857 25.8426 158.737 25.3005 158.604 24.76C156.379 25.3688 154.756 27.4659 154.59 29.9161C154.519 31.0109 154.458 32.0772 153.488 32.8327L153.527 32.8144ZM175.974 11.8641C175.136 13.812 175.437 15.744 175.785 17.6026C176.442 21.1207 177.916 24.2005 181.519 25.6514C184.007 26.6535 185.372 25.7959 185.527 23.1434C185.84 17.5257 182.205 13.119 175.976 11.8775L175.974 11.8641ZM163.554 27.677C164.222 28.4786 164.773 29.3215 165.512 29.9244C165.935 30.2669 166.82 30.4992 167.216 30.2883C167.701 30.026 168.149 29.2386 168.162 28.6669C168.252 26.3752 166.058 23.7625 163.788 23.3179C162.867 23.1306 162.278 23.4327 162.589 24.5356C162.894 25.5983 163.225 26.6443 163.542 27.692L163.554 27.677Z" fill="#F8E381"/>
<g clip-path="url(#clip1_667_7385)">
<path d="M180.748 97.2625C179.569 100.815 178.603 104.057 177.411 107.207C176.887 108.572 175.104 109.001 173.772 108.201C171.405 106.777 169.082 105.265 166.799 103.717C165.56 102.872 165.345 101.458 166.135 100.136C167.674 97.5528 169.212 94.9829 170.813 92.43C172.2 90.2132 173.828 90.008 175.779 91.7161C176.968 92.7525 178.211 93.7277 179.289 94.8736C179.949 95.5645 180.334 96.5357 180.761 97.2633L180.748 97.2625Z" fill="#C2EC81"/>
<path d="M34.1163 59.0302C33.7429 57.3572 33.3097 55.7141 33.0153 54.0234C32.7615 52.5888 33.0348 51.2851 34.6685 50.7216C36.9047 49.9573 38.4194 50.1992 38.9616 52.0333C40.0707 55.8121 40.918 59.6825 41.5844 63.5601C41.8876 65.3647 40.5477 66.426 38.7645 66.6915C36.9778 66.9412 35.851 65.9832 35.3687 64.4173C34.8283 62.6656 34.5338 60.8259 34.1321 59.0266L34.1163 59.0302Z" fill="#F8E381"/>
<path d="M182.983 51.1765C182.815 54.0178 180.987 55.6653 178.189 55.4995C175.456 55.338 173.343 53.1263 173.508 50.5927C173.669 48.1237 175.836 46.2552 178.343 46.3858C181.789 46.5775 183.143 47.9782 182.968 51.1594L182.983 51.1765Z" fill="#EE7A51"/>
<path d="M128.256 32.7506C128.163 33.9894 128.055 35.2405 127.975 36.4801C127.744 40.4227 127.311 48.7026 127.244 48.7244C127.119 48.428 126.859 47.7821 126.734 47.4857C125.196 43.6771 123.646 39.8547 122.109 36.0332C122.113 35.981 122.115 35.9418 122.106 35.8888C122.287 35.7171 122.469 35.5455 122.639 35.36C123.909 34.0011 125.166 32.6283 126.437 31.2564C126.935 31.4722 127.42 31.6872 127.917 31.9161C128.03 32.1986 128.144 32.4681 128.256 32.7506Z" fill="#AECEFC"/>
<path d="M126.038 70.8846C125.998 71.7076 125.983 72.5453 125.916 73.3665C125.832 74.4618 124.902 75.0303 123.906 74.6117C119.039 72.5392 114.172 70.4667 109.306 68.3812C105.666 66.821 102.028 65.2346 98.389 63.6613C98.1719 63.5686 97.9695 63.4506 97.7655 63.3587C97.8111 63.0603 97.7582 62.6637 97.9286 62.4651C98.6669 61.6089 99.4794 60.8231 100.254 60.0086C100.499 60.09 100.743 60.1714 100.973 60.265C105.252 62.0896 109.531 63.9142 113.824 65.7266C114.028 65.8185 114.247 65.8851 114.502 65.9935C114.485 65.8613 114.489 65.796 114.466 65.7421C112.464 60.8026 110.475 55.864 108.473 50.9114C108.476 50.8723 108.466 50.8192 108.455 50.7792C108.664 50.5963 108.884 50.4402 109.068 50.2425C110.353 48.8584 111.624 47.4734 112.908 46.1023C113.009 46.3579 113.124 46.6143 113.226 46.8699C116.176 54.1905 119.125 61.5241 122.089 68.8325C122.18 69.0481 122.319 69.3323 122.497 69.4225C123.658 69.9436 124.848 70.4141 126.038 70.8977L126.038 70.8846Z" fill="#EDF6FD"/>
<path d="M126.039 70.8842C124.863 70.4014 123.673 69.9309 122.499 69.409C122.307 69.331 122.168 69.0468 122.091 68.819C119.128 61.4975 116.178 54.1769 113.227 46.8563C113.126 46.6008 113.011 46.3443 112.91 46.0887C112.926 46.0374 112.943 45.986 112.959 45.9347C113.934 44.8711 114.897 43.7937 115.884 42.744C116.462 42.1264 117.09 41.5644 117.705 40.9885C117.819 41.2449 117.948 41.4892 118.049 41.7448C120.752 48.4333 123.44 55.1341 126.143 61.8227C126.245 62.0783 126.36 62.3217 126.475 62.5781C126.321 65.3462 126.18 68.1152 126.026 70.8833L126.039 70.8842Z" fill="#AECEFC"/>
<path d="M126.488 62.5662C126.373 62.3098 126.258 62.0664 126.157 61.8108C123.454 55.1222 120.765 48.4214 118.063 41.7329C117.961 41.4773 117.833 41.233 117.718 40.9766C117.697 40.8966 117.689 40.8175 117.668 40.7375C118.358 40.0223 119.035 39.3062 119.725 38.578C120.528 37.7391 121.319 36.8863 122.122 36.0475C123.658 39.869 125.209 43.6784 126.746 47.4999C126.871 47.7964 126.996 48.0928 127.121 48.3892C127.166 48.5101 127.211 48.6309 127.256 48.7387C127.212 49.8235 127.194 50.8969 127.137 51.9808C126.952 55.4284 126.74 58.8872 126.543 62.3339C126.537 62.4122 126.505 62.5018 126.5 62.5801L126.488 62.5662Z" fill="#EDF6FD"/>
<path d="M111.676 42.8508C112.108 43.8748 112.539 44.9119 112.972 45.936C112.955 45.9873 112.939 46.0386 112.922 46.09C111.638 47.4741 110.366 48.8591 109.082 50.2302C108.899 50.4279 108.686 50.6631 108.473 50.9113C108.041 49.8873 107.618 48.7197 107.199 47.6965C107.626 47.187 110.632 43.9623 111.689 42.8516L111.676 42.8508Z" fill="#EDF6FD"/>
<path d="M117.706 40.9755C117.308 40.0323 116.872 38.8508 116.474 37.9076C116.465 37.8546 116.442 37.8007 116.432 37.7476C117.914 36.1536 119.395 34.5726 120.878 32.9785C121.287 33.9486 122.099 35.9933 122.096 36.0455C122.096 36.0455 118.382 40.2595 117.693 40.9746L117.706 40.9755Z" fill="#EDF6FD"/>
<path d="M122.109 36.0463C121.699 35.0762 121.287 33.9486 120.89 32.9793C121.568 32.2502 122.245 31.5342 122.922 30.8051C123.43 30.2616 123.897 30.1478 124.588 30.4286C125.214 30.692 125.825 30.9808 126.449 31.2704C125.179 32.6423 122.304 35.8756 122.122 36.0472L122.109 36.0463Z" fill="#AECEFC"/>
<path d="M96.9497 58.5485C98.0362 58.9992 99.1227 59.4499 100.21 59.8875C100.235 59.9153 100.245 59.9553 100.256 59.9822C99.4684 60.7959 98.6681 61.5956 97.9306 62.4387C97.7602 62.6373 97.8132 63.0339 97.7675 63.3323C97.0385 63.0359 96.2948 62.7648 95.5945 62.431C94.8942 62.0971 94.65 61.0067 95.1622 60.3979C95.717 59.7394 96.3599 59.1391 96.9644 58.5232L96.9497 58.5485Z" fill="#EDF6FD"/>
<path d="M100.256 59.9955C100.256 59.9955 100.234 59.9286 100.209 59.9008C102.964 56.9087 105.719 53.9035 108.473 50.9114C110.476 55.8509 112.465 60.7895 114.466 65.7421C114.489 65.796 114.485 65.8612 114.503 65.9934C114.246 65.8981 114.028 65.8184 113.824 65.7265C109.545 63.9019 105.266 62.0773 100.973 60.2649C100.743 60.1714 100.499 60.09 100.255 60.0086L100.256 59.9955Z" fill="#AECEFC"/>
<path d="M108.475 50.8978L100.257 59.9819C99.1707 59.5312 98.0378 58.9858 96.9513 58.5351C99.8859 55.3975 106.71 48.1622 107.188 47.6821C107.62 48.7062 108.478 50.8456 108.476 50.8847L108.475 50.8978Z" fill="#AECEFC"/>
<path d="M117.705 40.9756C117.705 40.9756 113.871 45.0245 112.896 46.0881C112.464 45.064 112.095 43.8738 111.663 42.8497C113.187 41.2191 114.709 39.6014 116.233 37.9708L116.432 37.7478C116.83 38.691 117.684 40.8957 117.705 40.9756Z" fill="#AECEFC"/>
<path d="M123.41 35.2005L123.448 32.3986C123.455 32.0977 123.249 31.8222 122.966 31.7383L120.288 30.9351C119.708 30.7663 119.627 29.9879 120.145 29.694L122.597 28.3334C122.869 28.1807 122.994 27.8743 122.934 27.5822L122.298 24.8544C122.165 24.2692 122.8 23.7994 123.318 24.1083L125.719 25.5355C125.984 25.6969 126.315 25.6529 126.539 25.4447L128.58 23.5332C129.014 23.1159 129.741 23.4383 129.728 24.0403L129.691 26.8422C129.684 27.1431 129.889 27.4186 130.173 27.5025L132.851 28.3057C133.431 28.4745 133.511 29.2529 132.994 29.5468L130.542 30.9074C130.27 31.0601 130.145 31.3665 130.204 31.6586L130.841 34.3864C130.974 34.9716 130.339 35.4414 129.821 35.1326L127.42 33.7053C127.154 33.5439 126.823 33.5879 126.6 33.7961L124.559 35.7076C124.125 36.1249 123.397 35.8025 123.41 35.2005Z" fill="#F5BFCD"/>
<path d="M13.4397 74.4837C14.9572 75.8626 16.4747 77.2415 17.9943 78.5882C18.7617 79.2701 18.9022 80.1057 18.5998 81.0098C17.8495 83.3108 17.0992 85.6118 16.2691 87.8914C15.5001 89.9805 13.9955 90.4013 12.1765 89.1648C10.4352 87.982 8.63905 86.8928 6.916 85.6788C5.67415 84.804 5.49463 83.8199 6.24349 82.5398C7.46408 80.4962 8.66956 78.4355 9.984 76.4467C10.5063 75.6542 11.3404 75.0602 12.0181 74.375C12.4869 74.4055 12.9558 74.436 13.4246 74.4665L13.4397 74.4837Z" fill="#88CAD6"/>
</g>
<defs>
<linearGradient id="paint0_linear_667_7385" x1="138.668" y1="137.496" x2="75.5693" y2="60.8728" gradientUnits="userSpaceOnUse">
<stop stop-color="#5599FF"/>
<stop offset="0.730681" stop-color="#A4C8FF"/>
</linearGradient>
<clipPath id="clip0_667_7385">
<rect width="105.179" height="79.1166" fill="white" transform="translate(52.7593 52.1006) rotate(3.72092)"/>
</clipPath>
<clipPath id="clip1_667_7385">
<rect width="220.596" height="113.556" fill="white" transform="translate(8.25146 15.5925) rotate(3.72092)"/>
</clipPath>
</defs>
</svg>
