<svg width="24" height="24" viewBox="0 0 24 24" fill="none" xmlns="http://www.w3.org/2000/svg">
<g id="more_horiz">
<mask id="mask0_369_6053" style="mask-type:alpha" maskUnits="userSpaceOnUse" x="0" y="0" width="24" height="24">
<rect id="Bounding box" width="24" height="24" fill="#D9D9D9"/>
</mask>
<g mask="url(#mask0_369_6053)">
<path id="more_horiz_2" d="M6 21.5698C5.45 21.5698 4.97917 21.3534 4.5875 20.9206C4.19583 20.4877 4 19.9674 4 19.3596C4 18.7517 4.19583 18.2314 4.5875 17.7986C4.97917 17.3657 5.45 17.1493 6 17.1493C6.55 17.1493 7.02083 17.3657 7.4125 17.7986C7.80417 18.2314 8 18.7517 8 19.3596C8 19.9674 7.80417 20.4877 7.4125 20.9206C7.02083 21.3534 6.55 21.5698 6 21.5698ZM12 21.5698C11.45 21.5698 10.9792 21.3534 10.5875 20.9206C10.1958 20.4877 10 19.9674 10 19.3596C10 18.7517 10.1958 18.2314 10.5875 17.7986C10.9792 17.3657 11.45 17.1493 12 17.1493C12.55 17.1493 13.0208 17.3657 13.4125 17.7986C13.8042 18.2314 14 18.7517 14 19.3596C14 19.9674 13.8042 20.4877 13.4125 20.9206C13.0208 21.3534 12.55 21.5698 12 21.5698ZM18 21.5698C17.45 21.5698 16.9792 21.3534 16.5875 20.9206C16.1958 20.4877 16 19.9674 16 19.3596C16 18.7517 16.1958 18.2314 16.5875 17.7986C16.9792 17.3657 17.45 17.1493 18 17.1493C18.55 17.1493 19.0208 17.3657 19.4125 17.7986C19.8042 18.2314 20 18.7517 20 19.3596C20 19.9674 19.8042 20.4877 19.4125 20.9206C19.0208 21.3534 18.55 21.5698 18 21.5698Z" fill="white"/>
</g>
</g>
</svg>
