<svg width="21" height="21" viewBox="0 0 21 21" fill="none" xmlns="http://www.w3.org/2000/svg">
<g id="exercise">
<mask id="mask0_369_9387" style="mask-type:alpha" maskUnits="userSpaceOnUse" x="0" y="0" width="21" height="21">
<rect id="Bounding box" x="0.88916" y="0.787842" width="19.2569" height="19.2569" fill="#D9D9D9"/>
</mask>
<g mask="url(#mask0_369_9387)">
<path id="exercise_2" d="M17.4582 8.31005L16.3349 7.18673L16.9367 6.5649L14.3691 3.99731L13.7472 4.59909L12.6039 3.45571L13.2056 2.83387C13.5132 2.5263 13.8943 2.37585 14.349 2.38254C14.8037 2.38922 15.1848 2.54636 15.4924 2.85393L18.08 5.44158C18.3876 5.74915 18.5414 6.12693 18.5414 6.57492C18.5414 7.02292 18.3876 7.4007 18.08 7.70827L17.4582 8.31005ZM7.82975 17.9586C7.52217 18.2661 7.14439 18.4199 6.6964 18.4199C6.24841 18.4199 5.87062 18.2661 5.56305 17.9586L2.9754 15.3709C2.66783 15.0633 2.51404 14.6856 2.51404 14.2376C2.51404 13.7896 2.66783 13.4118 2.9754 13.1042L3.57718 12.5024L4.72056 13.6458L4.09872 14.2476L6.68637 16.8352L7.28815 16.2134L8.43152 17.3568L7.82975 17.9586ZM15.7933 11.2186L16.9367 10.0753L10.8587 3.99731L9.71532 5.14069L15.7933 11.2186ZM10.1767 16.8352L11.3201 15.6718L5.26216 9.6139L4.09872 10.7573L10.1767 16.8352ZM10.0563 12.1414L12.2628 9.95491L10.9791 8.67112L8.79259 10.8776L10.0563 12.1414ZM11.3201 17.9586C11.0125 18.2661 10.6314 18.4199 10.1767 18.4199C9.722 18.4199 9.34088 18.2661 9.0333 17.9586L2.9754 11.9007C2.66783 11.5931 2.51404 11.212 2.51404 10.7573C2.51404 10.3026 2.66783 9.92148 2.9754 9.6139L4.11878 8.47053C4.42636 8.16295 4.80414 8.00916 5.25213 8.00916C5.70012 8.00916 6.0779 8.16295 6.38548 8.47053L7.64921 9.73426L9.85573 7.52774L8.592 6.28407C8.28442 5.97649 8.13063 5.59536 8.13063 5.14069C8.13063 4.68601 8.28442 4.30488 8.592 3.99731L9.73538 2.85393C10.043 2.54636 10.4207 2.39257 10.8687 2.39257C11.3167 2.39257 11.6945 2.54636 12.0021 2.85393L18.08 8.93189C18.3876 9.23947 18.5414 9.61725 18.5414 10.0652C18.5414 10.5132 18.3876 10.891 18.08 11.1986L16.9367 12.342C16.6291 12.6495 16.248 12.8033 15.7933 12.8033C15.3386 12.8033 14.9575 12.6495 14.6499 12.342L13.4062 11.0782L11.1997 13.2848L12.4634 14.5485C12.771 14.8561 12.9248 15.2338 12.9248 15.6818C12.9248 16.1298 12.771 16.5076 12.4634 16.8152L11.3201 17.9586Z" fill="#676F83"/>
</g>
</g>
</svg>
