<svg width="21" height="21" viewBox="0 0 21 21" fill="none" xmlns="http://www.w3.org/2000/svg">
<g id="pace">
<mask id="mask0_369_9390" style="mask-type:alpha" maskUnits="userSpaceOnUse" x="0" y="0" width="21" height="21">
<rect id="Bounding box" x="0.88916" y="0.787842" width="19.2569" height="19.2569" fill="#676F83"/>
</mask>
<g mask="url(#mask0_369_9390)">
<path id="pace_2" d="M10.5176 18.44C9.40766 18.44 8.36458 18.2294 7.38836 17.8081C6.41214 17.3869 5.56296 16.8152 4.84083 16.0931C4.1187 15.3709 3.54701 14.5218 3.12576 13.5455C2.70452 12.5693 2.4939 11.5262 2.4939 10.4163C2.4939 9.30634 2.70452 8.26326 3.12576 7.28704C3.54701 6.31082 4.1187 5.46165 4.84083 4.73951C5.56296 4.01738 6.41214 3.44569 7.38836 3.02445C8.36458 2.6032 9.40766 2.39258 10.5176 2.39258C11.6276 2.39258 12.6706 2.6032 13.6469 3.02445C14.6231 3.44569 15.4722 4.01738 16.1944 4.73951C16.9165 5.46165 17.4882 6.31082 17.9094 7.28704C18.3307 8.26326 18.5413 9.30634 18.5413 10.4163C18.5413 10.7774 18.5213 11.1317 18.4811 11.4794C18.441 11.8271 18.3742 12.1681 18.2805 12.5025C18.0933 12.2885 17.876 12.108 17.6286 11.9609C17.3812 11.8137 17.1104 11.7135 16.8162 11.66C16.8563 11.4594 16.8864 11.2554 16.9065 11.0482C16.9265 10.8409 16.9366 10.6303 16.9366 10.4163C16.9366 8.62432 16.3147 7.10651 15.0711 5.86283C13.8274 4.61916 12.3096 3.99732 10.5176 3.99732C8.72564 3.99732 7.20783 4.61916 5.96415 5.86283C4.72048 7.10651 4.09864 8.62432 4.09864 10.4163C4.09864 12.2082 4.72048 13.7261 5.96415 14.9697C7.20783 16.2134 8.72564 16.8353 10.5176 16.8353C11.1996 16.8353 11.8515 16.735 12.4734 16.5344C13.0952 16.3338 13.6669 16.0529 14.1885 15.6919C14.3489 15.9192 14.5462 16.1198 14.7802 16.2937C15.0142 16.4675 15.265 16.6012 15.5324 16.6948C14.8504 17.2431 14.0848 17.6711 13.2356 17.9786C12.3865 18.2862 11.4804 18.44 10.5176 18.44ZM16.3348 15.2305C16.054 15.2305 15.8166 15.1336 15.6227 14.9397C15.4288 14.7457 15.3318 14.5084 15.3318 14.2275C15.3318 13.9467 15.4288 13.7094 15.6227 13.5154C15.8166 13.3215 16.054 13.2246 16.3348 13.2246C16.6156 13.2246 16.853 13.3215 17.0469 13.5154C17.2408 13.7094 17.3378 13.9467 17.3378 14.2275C17.3378 14.5084 17.2408 14.7457 17.0469 14.9397C16.853 15.1336 16.6156 15.2305 16.3348 15.2305ZM13.1654 14.1874L9.71523 10.7372V6.40443H11.32V10.0953L14.2887 13.0641L13.1654 14.1874Z" fill="#676F83"/>
</g>
</g>
</svg>
