<svg width="21" height="21" viewBox="0 0 21 21" fill="none" xmlns="http://www.w3.org/2000/svg">
<g id="location_on">
<mask id="mask0_369_9393" style="mask-type:alpha" maskUnits="userSpaceOnUse" x="0" y="0" width="21" height="21">
<rect id="Bounding box" x="0.88916" y="0.787842" width="19.2569" height="19.2569" fill="#D9D9D9"/>
</mask>
<g mask="url(#mask0_369_9393)">
<path id="location_on_2" d="M10.5176 10.4163C10.9589 10.4163 11.3367 10.2592 11.6509 9.94489C11.9652 9.63063 12.1223 9.25285 12.1223 8.81154C12.1223 8.37024 11.9652 7.99246 11.6509 7.6782C11.3367 7.36393 10.9589 7.2068 10.5176 7.2068C10.0763 7.2068 9.69851 7.36393 9.38425 7.6782C9.06999 7.99246 8.91286 8.37024 8.91286 8.81154C8.91286 9.25285 9.06999 9.63063 9.38425 9.94489C9.69851 10.2592 10.0763 10.4163 10.5176 10.4163ZM10.5176 16.3137C12.1491 14.816 13.3593 13.4553 14.1483 12.2317C14.9373 11.008 15.3318 9.92149 15.3318 8.97202C15.3318 7.51438 14.8671 6.32085 13.9377 5.39144C13.0083 4.46203 11.8683 3.99732 10.5176 3.99732C9.16694 3.99732 8.02691 4.46203 7.09749 5.39144C6.16808 6.32085 5.70337 7.51438 5.70337 8.97202C5.70337 9.92149 6.09787 11.008 6.88687 12.2317C7.67587 13.4553 8.88611 14.816 10.5176 16.3137ZM10.5176 18.44C8.36457 16.6079 6.75649 14.9062 5.69334 13.3349C4.6302 11.7636 4.09863 10.3093 4.09863 8.97202C4.09863 6.96609 4.74387 5.36804 6.03435 4.17785C7.32483 2.98767 8.81925 2.39258 10.5176 2.39258C12.216 2.39258 13.7104 2.98767 15.0008 4.17785C16.2913 5.36804 16.9366 6.96609 16.9366 8.97202C16.9366 10.3093 16.405 11.7636 15.3419 13.3349C14.2787 14.9062 12.6706 16.6079 10.5176 18.44Z" fill="#676F83"/>
</g>
</g>
</svg>
