<svg width="33" height="33" viewBox="0 0 33 33" fill="none" xmlns="http://www.w3.org/2000/svg">
<g id="Frame 32">
<g id="Group">
<path id="Vector" d="M14.343 18.0138C14.2528 20.7663 13.4644 23.1786 12.3156 24.8537C11.1585 26.5409 9.7339 27.3632 8.35253 27.2997C6.97116 27.2361 5.60465 26.2854 4.56155 24.497C3.5259 22.7214 2.89784 20.2439 2.98809 17.4914C3.07835 14.7389 3.86674 12.3266 5.01553 10.6515C6.17259 8.96437 7.59723 8.14201 8.97861 8.20556C10.36 8.26912 11.7265 9.2199 12.7696 11.0083C13.8052 12.7839 14.4333 15.2613 14.343 18.0138Z" stroke="#0066FF" stroke-width="2"/>
<path id="Vector_2" d="M9.5548 27.738C11.8465 27.8435 13.8007 24.9917 13.9195 21.3685C14.0383 17.7453 12.2768 14.7226 9.98502 14.6172C7.69328 14.5117 5.73914 17.3635 5.62034 20.9867C5.50154 24.6099 7.26306 27.6326 9.5548 27.738Z" fill="#0066FF"/>
<path id="Vector_3" d="M30.0301 17.7184C29.9398 20.4709 29.1514 22.8832 28.0026 24.5583C26.8456 26.2455 25.4209 27.0678 24.0395 27.0043C22.6582 26.9407 21.2917 25.9899 20.2486 24.2016C19.2129 22.426 18.5849 19.9485 18.6751 17.196C18.7654 14.4435 19.5538 12.0312 20.7025 10.3561C21.8596 8.66896 23.2842 7.8466 24.6656 7.91015C26.047 7.97371 27.4135 8.92449 28.4566 10.7129C29.4922 12.4885 30.1203 14.9659 30.0301 17.7184Z" stroke="#0066FF" stroke-width="2"/>
<path id="Vector_4" d="M25.0231 27.738C27.3148 27.8435 29.2689 24.9917 29.3877 21.3685C29.5065 17.7453 27.745 14.7226 25.4533 14.6172C23.1615 14.5117 21.2074 17.3635 21.0886 20.9867C20.9698 24.6099 22.7313 27.6326 25.0231 27.738Z" fill="#0066FF"/>
</g>
</g>
</svg>
