<svg width="26" height="25" viewBox="0 0 26 25" fill="none" xmlns="http://www.w3.org/2000/svg">
<g id="Layer_1" clip-path="url(#clip0_155_1461)">
<path id="Vector" d="M1.5715 23.8498L1.57204 23.8498C4.23458 23.8327 6.89863 23.8354 9.55888 23.838C10.5332 23.839 11.507 23.84 12.48 23.84H12.498H12.5159H12.5339H12.5519H12.5699H12.5879H12.6059H12.6239H12.6418H12.6598H12.6778H12.6958H12.7138H12.7318H12.7498H12.7677H12.7857H12.8037H12.8217H12.8397H12.8577H12.8757H12.8936H12.9116H12.9296H12.9476H12.9656H12.9836H13.0016H13.0195H13.0375H13.0555H13.0735H13.0915H13.1095H13.1275H13.1454H13.1634H13.1814H13.1994H13.2174H13.2354H13.2534H13.2713H13.2893H13.3073H13.3253H13.3433H13.3613H13.3793H13.3973H13.4152H13.4332H13.4512H13.4692H13.4872H13.5052H13.5232H13.5411H13.5591H13.5771H13.5951H13.6131H13.6311H13.6491H13.6671H13.685H13.703H13.721H13.739H13.757H13.775H13.793H13.8109H13.8289H13.8469H13.8649H13.8829H13.9009H13.9189H13.9369H13.9548H13.9728H13.9908H14.0088H14.0268H14.0448H14.0628H14.0808H14.0987H14.1167H14.1347H14.1527H14.1707H14.1887H14.2067H14.2247H14.2426H14.2606H14.2786H14.2966H14.3146H14.3326H14.3506H14.3686H14.3865H14.4045H14.4225H14.4405H14.4585H14.4765H14.4945H14.5125H14.5304H14.5484H14.5664H14.5844H14.6024H14.6204H14.6384H14.6564H14.6743H14.6923H14.7103H14.7283H14.7463H14.7643H14.7823H14.8003H14.8183H14.8362H14.8542H14.8722H14.8902H14.9082H14.9262H14.9442H14.9622H14.9801H14.9981H15.0161H15.0341H15.0521H15.0701H15.0881H15.1061H15.1241H15.142H15.16H15.178H15.196H15.214H15.232H15.25H15.268H15.2859H15.3039H15.3219H15.3399H15.3579H15.3759H15.3939H15.4119H15.4299H15.4478H15.4658H15.4838H15.5018H15.5198H15.5378H15.5558H15.5738H15.5918H15.6097H15.6277H15.6457H15.6637H15.6817H15.6997H15.7177H15.7357H15.7536H15.7716H15.7896H15.8076H15.8256H15.8436H15.8616H15.8796H15.8976H15.9155H15.9335H15.9515H15.9695H15.9875H16.0055H16.0235H16.0415H16.0595H16.0774H16.0954H16.1134H16.1314H16.1494H16.1674H16.1854H16.2034H16.2214H16.2393H16.2573H16.2753H16.2933H16.3113H16.3293H16.3473H16.3653H16.3833H16.4012H16.4192H16.4372H16.4552H16.4732H16.4912H16.5092H16.5272H16.5452H16.5631H16.5811H16.5991H16.6171H16.6351H16.6531H16.6711H16.6891H16.7071H16.725H16.743H16.761H16.779H16.797H16.815H16.833H16.851H16.869H16.8869H16.9049H16.9229H16.9409H16.9589H16.9769H16.9949H17.0129H17.0309H17.0488H17.0668H17.0848H17.1028H17.1208H17.1388H17.1568H17.1748H17.1928H17.2108H17.2287H17.2467H17.2647H17.2827H17.3007H17.3187H17.3367H17.3547H17.3727H17.3906H17.4086H17.4266H17.4446H17.4626H17.4806H17.4986H17.5166H17.5346H17.5525H17.5705H17.5885H17.6065H17.6245H17.6425H17.6605H17.6785H17.6965H17.7144H17.7324H17.7504H17.7684H17.7864H17.8044H17.8224H17.8404H17.8584H17.8763H17.8943H17.9123H17.9303H17.9483H17.9663H17.9843H18.0023H18.0203H18.0382H18.0562H18.0742H18.0922H18.1102H18.1282H18.1462H18.1642H18.1821H18.2001H18.2181H18.2361H18.2541H18.2721H18.2901H18.3081H18.3261H18.344H18.362H18.38H18.398H18.416H18.434H18.452H18.47H18.488H18.5059H18.5239H18.5419H18.5599H18.5779H18.5959H18.6139H18.6319H18.6499H18.6678H18.6858H18.7038H18.7218H18.7398H18.7578H18.7758H18.7938H18.8118H18.8297H18.8477H18.8657H18.8837H18.9017H18.9197H18.9377H18.9557H18.9736H18.9916H19.0096H19.0276H19.0456H19.0636H19.0816H19.0996H19.1176H19.1355H19.1535H19.1715H19.1895H19.2075H19.2255H19.2435H19.2615H19.2794H19.2974H19.3154H19.3334H19.3514H19.3694H19.3874H19.4054H19.4234H19.4413H19.4593H19.4773H19.4953H19.5133H19.5313H19.5493H19.5673H19.5852H19.6032H19.6212H19.6392H19.6572H19.6752H19.6932H19.7112H19.7291H19.7471H19.7651H19.7831H19.8011H19.8191H19.8371H19.8551H19.873H19.891H19.909H19.927H19.945H19.963H19.981H19.999H20.0169H20.0349H20.0529H20.0709H20.0889H20.1069H20.1249H20.1429H20.1608H20.1788H20.1968H20.2148H20.2328H20.2508H20.2688H20.2868H20.3047H20.3227H20.3407H20.3587H20.3767H20.3947H20.4127H20.4307H20.4486H20.4666H20.4846H20.5026H20.5206H20.5386H20.5566H20.5745H20.5925H20.6105H20.6285H20.6465H20.6645H20.6825H20.7005H20.7184H20.7364H20.7544H20.7724H20.7904H20.8084H20.8264H20.8443H20.8623H20.8803H20.8983H20.9163H20.9343H20.9523H20.9703H20.9882H21.0062H21.0242H21.0422H21.0602H21.0782H21.0962H21.1141H21.1321H21.1501H21.1681H21.1861H21.2041H21.2221H21.24H21.258H21.276H21.294H21.312H21.33H21.348H21.3659H21.3839H21.4019H21.4199H21.4379H21.4559H21.4739H21.4918H21.5098H21.5278H21.5458H21.5638H21.5818H21.5998H21.6177H21.6357H21.6537H21.6717H21.6897C21.9011 23.84 22.1055 23.8414 22.3057 23.8428C22.7628 23.8461 23.1974 23.8492 23.6417 23.8344L23.6429 23.8344C23.7771 23.83 23.841 23.8019 23.8678 23.786C23.889 23.7735 23.9268 23.7463 23.9708 23.6603C24.0038 23.594 24.0221 23.5264 23.9983 23.3591L23.998 23.3571C23.9634 23.1101 23.9577 22.8615 23.9536 22.6798C23.9531 22.6579 23.9526 22.6369 23.9521 22.617C23.9468 22.4065 23.9388 22.2767 23.9168 22.1679L23.9165 22.1664C23.7289 21.2317 23.4281 20.3572 22.963 19.5447L22.9628 19.5444C22.3645 18.4983 21.6221 17.5934 20.6843 16.8209L21.3202 16.0491L20.6843 16.8209C19.7612 16.0604 18.7525 15.4519 17.6334 14.9844L17.6333 14.9844C16.2974 14.426 14.9007 14.1026 13.4593 14.0257L13.4586 14.0256C12.3745 13.967 11.3176 13.989 10.2809 14.1678C9.13418 14.3657 8.04947 14.6821 7.02364 15.1427L7.02315 15.143C5.49041 15.8303 4.19242 16.7868 3.13714 18.0322L1.5715 23.8498ZM1.5715 23.8498C1.30964 23.8516 1.17948 23.785 1.12694 23.7473M1.5715 23.8498L1.12694 23.7473M0.0810412 23.8799L1.05584 23.6568C0.998073 23.4044 0.993767 23.1069 1.04453 22.8367L1.04472 22.8357C1.18868 22.0652 1.35774 21.3212 1.5923 20.6167C1.89926 19.6985 2.43912 18.8562 3.13709 18.0323L0.0810412 23.8799ZM0.0810412 23.8799L1.05547 23.6552M0.0810412 23.8799L1.05547 23.6552M1.12694 23.7473C1.07347 23.7089 1.0596 23.6731 1.05547 23.6552M1.12694 23.7473L1.05547 23.6552" stroke="#0066FF" stroke-width="2"/>
<path id="Vector_2" d="M16.9437 5.74702L16.9481 6.0217C16.9853 8.31953 14.9761 10.0536 12.8325 10.1868C10.0281 10.3608 7.95746 8.17035 8.07357 5.8088L8.07357 5.80879C8.17151 3.81634 9.94353 1.71846 12.7831 1.85556L12.7831 1.85556C14.9657 1.96089 16.8272 3.58911 16.9437 5.74702Z" stroke="#0066FF" stroke-width="2"/>
</g>
<defs>
<clipPath id="clip0_155_1461">
<rect width="25" height="24" fill="white" transform="translate(0.00878906 0.849609)"/>
</clipPath>
</defs>
</svg>
