<svg width="33" height="33" viewBox="0 0 33 33" fill="none" xmlns="http://www.w3.org/2000/svg">
<g id="majesticons:home-line">
<path id="Vector" d="M27.0653 25.738V14.4046C27.0653 14.1976 27.0171 13.9935 26.9245 13.8083C26.8319 13.6232 26.6975 13.4622 26.5319 13.338L17.1986 6.33796C16.9678 6.16486 16.6871 6.07129 16.3986 6.07129C16.1101 6.07129 15.8294 6.16486 15.5986 6.33796L6.26527 13.338C6.09967 13.4622 5.96527 13.6232 5.8727 13.8083C5.78013 13.9935 5.73193 14.1976 5.73193 14.4046V25.738C5.73193 26.0916 5.87241 26.4307 6.12246 26.6808C6.37251 26.9308 6.71164 27.0713 7.06527 27.0713H12.3986C12.7522 27.0713 13.0914 26.9308 13.3414 26.6808C13.5915 26.4307 13.7319 26.0916 13.7319 25.738V21.738C13.7319 21.3843 13.8724 21.0452 14.1225 20.7951C14.3725 20.5451 14.7116 20.4046 15.0653 20.4046H17.7319C18.0856 20.4046 18.4247 20.5451 18.6747 20.7951C18.9248 21.0452 19.0653 21.3843 19.0653 21.738V25.738C19.0653 26.0916 19.2057 26.4307 19.4558 26.6808C19.7058 26.9308 20.045 27.0713 20.3986 27.0713H25.7319C26.0856 27.0713 26.4247 26.9308 26.6747 26.6808C26.9248 26.4307 27.0653 26.0916 27.0653 25.738Z" stroke="#959DB1" stroke-width="2.66667" stroke-linecap="round" stroke-linejoin="round"/>
</g>
</svg>
