<svg width="33" height="33" viewBox="0 0 33 33" fill="none" xmlns="http://www.w3.org/2000/svg">
<g id="Frame 2608844">
<path id="Vector" d="M9.66087 26.2504C7.10359 26.2504 4.80589 24.79 3.80285 22.5282C2.56267 19.7281 3.72274 16.4236 6.44024 14.8363C5.50129 12.4538 6.17426 9.73102 8.24123 8.0138C9.37245 7.07628 10.8241 6.55957 12.3303 6.55957C14.048 6.55957 15.7304 7.23408 16.9481 8.40984L17.6756 9.1122L20.0822 7.88694C21.0084 7.41664 22.0531 7.16911 23.1042 7.16911C25.5429 7.16911 27.7284 8.43769 28.8052 10.4767C30.3434 13.3944 29.2025 16.9991 26.2671 18.5987C26.8728 20.8388 26.1229 23.2832 24.2675 24.8209C23.1843 25.7182 21.7582 26.2133 20.2585 26.2133C18.4479 26.2133 16.6822 25.5109 15.4163 24.2888L15.301 24.1774L12.6027 25.5481C11.699 26.0091 10.6799 26.2504 9.66087 26.2504Z" stroke="#959DB1" stroke-width="2.67" stroke-miterlimit="10"/>
</g>
</svg>
