<svg width="33" height="33" viewBox="0 0 33 33" fill="none" xmlns="http://www.w3.org/2000/svg">
<g id="&#235;&#167;&#136;&#236;&#157;&#180;">
<path id="Vector" d="M16.3984 15.7617C14.8264 15.7617 13.4806 15.202 12.3611 14.0825C11.2416 12.963 10.6819 11.6172 10.6819 10.0452C10.6819 8.47311 11.2416 7.12734 12.3611 6.00785C13.4806 4.88836 14.8264 4.32861 16.3984 4.32861C17.9705 4.32861 19.3163 4.88836 20.4358 6.00785C21.5552 7.12734 22.115 8.47311 22.115 10.0452C22.115 11.6172 21.5552 12.963 20.4358 14.0825C19.3163 15.202 17.9705 15.7617 16.3984 15.7617ZM24.9733 27.1948H7.82361C7.03758 27.1948 6.36446 26.9147 5.80424 26.3545C5.24402 25.7943 4.96438 25.1216 4.96533 24.3365V23.1932C4.96533 22.3834 5.17399 21.6388 5.5913 20.9595C6.00861 20.2802 6.56216 19.7623 7.25195 19.406C8.72873 18.6676 10.2293 18.1136 11.7537 17.7439C13.2782 17.3743 14.8264 17.1899 16.3984 17.1909C17.9705 17.1909 19.5187 17.3757 21.0431 17.7454C22.5675 18.115 24.0681 18.6686 25.5449 19.406C26.2357 19.7633 26.7897 20.2816 27.207 20.9609C27.6243 21.6402 27.8325 22.3843 27.8315 23.1932V24.3365C27.8315 25.1226 27.5514 25.7957 26.9912 26.3559C26.431 26.9161 25.7583 27.1958 24.9733 27.1948ZM7.82361 24.3365H24.9733V23.1932C24.9733 22.9312 24.9075 22.693 24.776 22.4787C24.6446 22.2643 24.4721 22.0976 24.2587 21.9785C22.9725 21.3354 21.6743 20.8533 20.3643 20.5322C19.0543 20.2111 17.7323 20.0501 16.3984 20.0491C15.0646 20.0491 13.7426 20.2101 12.4326 20.5322C11.1225 20.8542 9.8244 21.3363 8.53818 21.9785C8.32381 22.0976 8.15088 22.2643 8.0194 22.4787C7.88792 22.693 7.82266 22.9312 7.82361 23.1932V24.3365ZM16.3984 12.9034C17.1845 12.9034 17.8576 12.6233 18.4178 12.0631C18.978 11.5029 19.2577 10.8302 19.2567 10.0452C19.2567 9.25914 18.9766 8.58601 18.4164 8.02579C17.8562 7.46557 17.1835 7.18594 16.3984 7.18689C15.6124 7.18689 14.9393 7.467 14.3791 8.02722C13.8188 8.58744 13.5392 9.26009 13.5402 10.0452C13.5402 10.8312 13.8203 11.5043 14.3805 12.0645C14.9407 12.6248 15.6134 12.9044 16.3984 12.9034Z" fill="#0074FF"/>
</g>
</svg>
