<svg width="18" height="18" viewBox="0 0 18 18" fill="none" xmlns="http://www.w3.org/2000/svg">
<g id="exercise">
<mask id="mask0_368_7818" style="mask-type:alpha" maskUnits="userSpaceOnUse" x="0" y="0" width="18" height="18">
<rect id="Bounding box" x="0.16748" y="0.834473" width="17" height="17" fill="#D9D9D9"/>
</mask>
<g mask="url(#mask0_368_7818)">
<path id="exercise_2" d="M14.7948 7.47494L13.8031 6.48328L14.3343 5.93432L12.0677 3.66765L11.5187 4.1989L10.5093 3.18953L11.0406 2.64057C11.3121 2.36904 11.6486 2.23623 12.05 2.24213C12.4514 2.24803 12.7878 2.38675 13.0593 2.65828L15.3437 4.94265C15.6152 5.21418 15.751 5.54769 15.751 5.94317C15.751 6.33866 15.6152 6.67217 15.3437 6.94369L14.7948 7.47494ZM6.29476 15.9927C6.02323 16.2642 5.68972 16.3999 5.29424 16.3999C4.89875 16.3999 4.56525 16.2642 4.29372 15.9927L2.00934 13.7083C1.73781 13.4367 1.60205 13.1032 1.60205 12.7078C1.60205 12.3123 1.73781 11.9788 2.00934 11.7072L2.54059 11.176L3.54997 12.1854L3.00101 12.7166L5.28538 15.001L5.81664 14.452L6.82601 15.4614L6.29476 15.9927ZM13.325 10.0427L14.3343 9.03328L8.96872 3.66765L7.95934 4.67703L13.325 10.0427ZM8.36664 15.001L9.37601 13.9739L4.02809 8.62599L3.00101 9.63536L8.36664 15.001ZM8.26039 10.8572L10.2083 8.92703L9.07497 7.79369L7.14476 9.74161L8.26039 10.8572ZM9.37601 15.9927C9.10448 16.2642 8.76802 16.3999 8.36664 16.3999C7.96525 16.3999 7.62879 16.2642 7.35726 15.9927L2.00934 10.6447C1.73781 10.3732 1.60205 10.0368 1.60205 9.63536C1.60205 9.23397 1.73781 8.89751 2.00934 8.62599L3.01872 7.61661C3.29025 7.34508 3.62375 7.20932 4.01924 7.20932C4.41472 7.20932 4.74823 7.34508 5.01976 7.61661L6.13539 8.73224L8.0833 6.78432L6.96768 5.6864C6.69615 5.41487 6.56038 5.07842 6.56038 4.67703C6.56038 4.27564 6.69615 3.93918 6.96768 3.66765L7.97705 2.65828C8.24858 2.38675 8.58209 2.25099 8.97757 2.25099C9.37306 2.25099 9.70657 2.38675 9.97809 2.65828L15.3437 8.0239C15.6152 8.29543 15.751 8.62894 15.751 9.02442C15.751 9.41991 15.6152 9.75342 15.3437 10.0249L14.3343 11.0343C14.0628 11.3058 13.7264 11.4416 13.325 11.4416C12.9236 11.4416 12.5871 11.3058 12.3156 11.0343L11.2177 9.91869L9.26976 11.8666L10.3854 12.9822C10.6569 13.2538 10.7927 13.5873 10.7927 13.9828C10.7927 14.3782 10.6569 14.7118 10.3854 14.9833L9.37601 15.9927Z" fill="#676F83"/>
</g>
</g>
</svg>
