<svg width="276" height="297" viewBox="0 0 276 297" fill="none" xmlns="http://www.w3.org/2000/svg">
<path d="M66.4205 21.8079C37.5493 33.2954 23.457 66.0126 34.9445 94.8838C46.432 123.755 79.1492 137.847 108.02 126.36C136.892 114.872 150.984 82.1551 139.496 53.2839C128.009 24.4127 95.2917 10.3204 66.4205 21.8079Z" fill="#323232"/>
<path fill-rule="evenodd" clip-rule="evenodd" d="M94.0747 18.2313C97.24 22.9768 98.6044 28.992 97.5155 35.0914C106.365 38.0969 112.343 46.4033 112.223 56.2247C112.158 61.5855 110.148 66.8485 106.58 71.0507C102.512 75.8431 96.6506 78.9445 90.4963 79.5659L86.8196 79.9375L84.5266 89.545C83.6407 93.2395 81.8546 96.7384 79.3647 99.6711C73.588 106.476 64.8831 109.578 56.6621 107.768C44.9041 105.171 37.582 93.4765 40.0863 81.5098C36.2887 79.7265 33.1399 76.8962 30.9438 73.423C31.0924 61.1765 35.2616 49.3285 42.6591 39.7184C44.4018 38.9648 46.2202 38.408 48.0744 38.0691C48.2388 38.064 48.3865 38.0421 48.4407 38.0339L48.4525 38.032C48.5615 38.0164 48.656 38.0016 48.7557 37.9854L48.7712 37.983C48.9242 37.9588 49.092 37.9322 49.3476 37.8976C50.1036 37.7949 51.2414 37.6809 52.6771 37.7209C55.5418 37.8008 59.6341 38.4935 64.2457 41.1726C65.0748 41.6542 66.137 41.3725 66.6187 40.5436C67.1001 39.7145 66.8187 38.6522 65.9899 38.1708C60.8039 35.1581 56.1275 34.3442 52.7745 34.2509C52.2807 34.2371 51.8163 34.239 51.3844 34.2516L52.442 29.8374C56.5894 26.5808 61.268 23.8571 66.4165 21.8085C75.5156 18.1881 84.9966 17.1084 94.0747 18.2313Z" fill="url(#paint0_linear_666_7600)"/>
<path d="M81.5434 47.8911C80.6092 49.0195 81.262 51.1015 83.0015 52.5414C84.7409 53.9813 86.9082 54.2338 87.8423 53.1054C88.7764 51.977 88.1236 49.895 86.3842 48.4551C84.6448 47.0152 82.4775 46.7627 81.5434 47.8911Z" fill="#464444"/>
<path d="M73.0472 58.1547C72.1132 59.283 72.7659 61.3651 74.5054 62.8049C76.2449 64.2448 78.412 64.4975 79.3463 63.3689C80.2804 62.2405 79.6276 60.1585 77.8881 58.7186C76.1487 57.2787 73.9815 57.0261 73.0472 58.1547Z" fill="#464444"/>
<path d="M241.098 100.881C240.144 102.128 239.016 103.134 237.638 103.832C235.972 104.652 234.257 105.008 232.417 104.835C232.329 104.799 232.218 104.822 232.118 104.815C231.223 104.585 230.356 104.367 229.473 104.108C228.689 103.856 228.03 103.381 227.359 102.936C225.145 101.177 223.937 98.8748 223.572 96.0981C223.462 95.2 223.522 94.3033 223.652 93.4012C223.73 93.1262 223.738 92.8565 223.846 92.5935C224.217 91.6875 224.558 90.7695 224.97 89.8462C225.054 89.6416 225.031 89.53 224.827 89.4463C224.037 89.1234 223.219 88.7886 222.43 88.4657C221.232 87.9754 220.004 87.4732 218.806 86.9829C216.935 86.2175 215.065 85.4522 213.194 84.6869L209.132 83.0247C207.349 82.2952 205.566 81.5657 203.783 80.8363C202.556 80.334 201.299 79.8198 200.071 79.3176C199.604 79.1262 199.165 78.9469 198.698 78.7555C198.142 78.5283 198.113 78.5164 197.915 79.0836C197.437 80.2527 196.958 81.4218 196.258 82.466C195.933 82.8446 195.595 83.2524 195.282 83.6018C194.389 84.5331 193.305 85.1813 192.128 85.7233C191.616 85.8893 191.146 86.0381 190.634 86.2041C189.518 86.4299 188.392 86.5149 187.261 86.3594C186.804 86.3089 186.342 86.188 185.885 86.1375C185.154 85.8385 184.394 85.5276 183.664 85.2286C182.84 84.8234 182.117 84.2547 181.501 83.5931C180.657 82.7361 180.014 81.7225 179.495 80.657C179.239 79.6991 178.982 78.7412 178.755 77.7953C178.786 76.8866 178.799 75.9367 178.83 75.028C178.866 74.9403 178.89 74.8818 178.925 74.7941C179.046 74.3318 179.109 73.8456 179.288 73.4072C179.707 72.3842 180.113 71.3905 180.532 70.3676C181.142 68.877 181.752 67.3864 182.361 65.8958C182.995 64.3468 183.629 62.7978 184.275 61.2195C184.897 59.6997 185.589 58.1746 186.211 56.6548C186.371 56.3453 186.544 56.0065 186.763 55.7209C187.308 55.0567 187.882 54.4044 188.427 53.7401C189.065 53.1822 189.737 52.7066 190.502 52.3374C191.909 51.6506 193.384 51.2986 194.938 51.2522C195.782 51.3585 196.608 51.4236 197.416 51.6176C198.095 51.793 198.726 52.0854 199.369 52.3485C199.486 52.3963 199.579 52.5026 199.683 52.5796C200.418 53.119 201.177 53.6 201.817 54.2032C202.364 54.7001 202.769 55.3777 203.211 55.9676C203.766 56.9454 204.115 58.0096 204.411 59.1202C204.387 59.1787 204.422 59.2611 204.439 59.3022C204.603 60.1538 204.696 61.0107 204.548 61.8716C204.395 62.6621 204.213 63.4406 204.06 64.231C203.773 64.9325 203.486 65.6339 203.211 66.3062C203.152 66.4523 203.104 66.5692 203.308 66.6529C203.63 66.7844 203.922 66.904 204.244 67.0356C205.851 67.6933 207.459 68.351 209.037 68.9967C210.498 69.5946 211.959 70.1926 213.421 70.7905C215.058 71.4601 216.665 72.1178 218.302 72.7875C219.763 73.3854 221.224 73.9833 222.686 74.5812C224.322 75.2509 225.988 75.9325 227.625 76.6022L230.022 77.5828C230.022 77.5828 230.087 77.5071 230.14 77.4606C230.463 76.6714 230.786 75.8823 231.121 75.064L231.156 74.9763C231.59 74.3346 231.947 73.6279 232.444 73.0806C233.071 72.3818 233.85 71.8132 234.582 71.1915C234.935 70.9949 235.288 70.7983 235.613 70.5897C235.642 70.6017 235.695 70.5552 235.765 70.5499C237.49 69.7542 239.298 69.5045 241.184 69.7305C241.413 69.7557 241.641 69.781 241.87 69.8062C242.338 69.9976 242.829 70.1305 243.326 70.3338C244.074 70.6739 244.798 71.0725 245.534 71.4419C246.221 72.0982 246.949 72.7372 247.57 73.4693C248.314 74.3196 248.746 75.3492 249.107 76.3842C249.187 76.6897 249.267 76.9953 249.346 77.3009C249.503 78.2521 249.648 79.2325 249.482 80.2223C249.358 81.0247 249.164 81.8325 249.011 82.6229C248.892 82.9152 248.772 83.2075 248.665 83.4705C248.198 84.6104 247.72 85.7794 247.254 86.9193C246.584 88.556 245.902 90.2219 245.233 91.8586C244.647 93.2907 244.049 94.7521 243.463 96.1842C242.747 97.7678 242.235 99.435 241.239 100.87L241.098 100.881Z" fill="#0074FF"/>
<path d="M72.0761 156.414L24.5711 162.414C11.4207 164.075 2.10659 176.081 3.76738 189.232L9.76688 236.737C11.4277 249.887 23.4345 259.201 36.5849 257.54L84.0898 251.541C97.2402 249.88 106.554 237.873 104.894 224.723L98.8941 177.218C97.2333 164.068 85.2265 154.753 72.0761 156.414Z" fill="#F1F1F3"/>
<path d="M9.99834 238.175L7.92529 221.76L98.2435 176.035L99.7009 183.669L100.69 191.604L9.99834 238.175Z" fill="white"/>
<path d="M81.656 251.894L65.2413 253.967L19.1978 164.74L22.411 163.353L26.4345 162.253L35.0871 161.081L81.656 251.894Z" fill="white"/>
<mask id="mask0_666_7600" style="mask-type:alpha" maskUnits="userSpaceOnUse" x="22" y="158" width="63" height="63">
<path d="M81.389 158.37L22.613 161.695L25.9381 220.471L84.714 217.146L81.389 158.37Z" fill="url(#paint1_linear_666_7600)"/>
</mask>
<g mask="url(#mask0_666_7600)">
<path d="M55.0497 213.907C48.1619 208.687 42.9599 203.771 39.4436 199.158C35.9274 194.546 34.0538 190.199 33.8229 186.117C33.4766 179.995 35.17 175.006 38.9033 171.15C42.6366 167.295 47.0951 165.22 52.2788 164.927C57.4625 164.634 62.1266 166.192 66.2709 169.602C70.4152 173.012 72.6605 177.778 73.0069 183.901C73.2378 187.982 71.8664 192.513 68.8928 197.492C65.9192 202.472 61.3048 207.944 55.0497 213.907Z" fill="url(#paint2_linear_666_7600)"/>
</g>
<path d="M54.3516 195.711C60.5001 195.363 65.2025 190.096 64.8546 183.948C64.5068 177.799 59.2405 173.097 53.092 173.445C46.9436 173.793 42.2412 179.059 42.589 185.208C42.9369 191.356 48.2032 196.058 54.3516 195.711Z" fill="white"/>
<mask id="mask1_666_7600" style="mask-type:luminance" maskUnits="userSpaceOnUse" x="46" y="179" width="15" height="12">
<path d="M60.3968 179.119L46.4712 179.907L47.0441 190.034L60.9698 189.247L60.3968 179.119Z" fill="white"/>
</mask>
<g mask="url(#mask1_666_7600)">
<path d="M50.4202 189.809C49.0612 189.886 47.798 189.21 47.1997 188.087C46.4599 186.697 46.981 184.977 48.3794 184.086C47.8117 182.899 48.0908 181.491 49.1397 180.553C49.7121 180.041 50.4688 179.736 51.2692 179.69C52.182 179.639 53.0956 179.932 53.7766 180.495L53.8315 180.54C53.8392 180.547 53.8461 180.553 53.8511 180.557L54.147 180.801C54.1973 180.848 54.2515 180.903 54.3078 180.964C54.5821 181.265 54.9122 181.751 55.0814 182.479C55.1118 182.609 55.2467 182.691 55.3828 182.661C55.5188 182.632 55.6044 182.501 55.574 182.37C55.3838 181.552 55.009 180.995 54.688 180.643C54.6684 180.622 54.6491 180.601 54.63 180.581L55.4271 180.134C55.9057 179.867 56.4538 179.709 57.0124 179.677C58.3083 179.604 59.5064 180.185 60.1374 181.192C61.039 182.634 60.5367 184.506 59.0229 185.41C59.4094 186.534 59.0814 187.803 58.1397 188.643C57.5899 189.133 56.8464 189.428 56.0494 189.473C55.0871 189.528 54.1286 189.223 53.4206 188.637L53.3589 188.586C53.2932 188.529 53.2182 188.458 53.1389 188.372C52.8623 188.073 52.5285 187.59 52.3537 186.864C52.3223 186.733 52.1867 186.652 52.0509 186.683C51.915 186.714 51.8304 186.845 51.8618 186.975C52.0585 187.793 52.4375 188.346 52.7613 188.696C52.8094 188.748 52.8562 188.796 52.9009 188.839L51.9617 189.364C51.4947 189.626 50.9601 189.78 50.4186 189.811L50.4202 189.809Z" fill="url(#paint3_linear_666_7600)"/>
</g>
<path d="M200.361 295.544C242.111 295.544 275.955 261.699 275.955 219.95C275.955 178.2 242.111 144.356 200.361 144.356C158.612 144.356 124.767 178.2 124.767 219.95C124.767 261.699 158.612 295.544 200.361 295.544Z" fill="#323232"/>
<path fill-rule="evenodd" clip-rule="evenodd" d="M164.054 286.268C162.46 278.772 163.745 270.586 168.134 263.512C158.579 255.364 155.242 242.025 160.271 229.823C163.014 223.163 168.138 217.591 174.68 214.117C182.14 210.155 190.997 209.195 198.989 211.476L203.764 212.839L211.399 201.984C214.34 197.811 218.308 194.33 222.873 191.906C233.465 186.281 245.873 186.732 255.237 193.075C268.626 202.158 271.958 220.394 262.887 234.09C266.743 238.204 269.269 243.303 270.285 248.731C264.016 263.944 252.926 276.663 238.919 284.985C236.368 285.06 233.82 284.852 231.336 284.354C231.129 284.279 230.933 284.233 230.862 284.216L230.846 284.212C230.702 284.178 230.577 284.149 230.444 284.12L230.425 284.116C230.221 284.07 229.998 284.02 229.662 283.936C228.667 283.688 227.19 283.265 225.417 282.502C221.881 280.98 217.116 278.082 212.689 272.447C211.894 271.434 210.427 271.258 209.414 272.053C208.402 272.849 208.225 274.315 209.021 275.328C213.999 281.665 219.432 285.004 223.572 286.786C224.182 287.049 224.762 287.277 225.308 287.476L221.794 292.462C215 294.467 207.807 295.543 200.363 295.543C187.204 295.543 174.83 292.181 164.054 286.268Z" fill="url(#paint4_linear_666_7600)"/>
<path d="M194.436 255.468C196.163 254.523 196.382 251.6 194.926 248.938C193.47 246.276 190.889 244.884 189.163 245.829C187.436 246.774 187.217 249.697 188.673 252.359C190.129 255.021 192.709 256.412 194.436 255.468Z" fill="#464444"/>
<path d="M210.143 246.875C211.869 245.93 212.088 243.007 210.632 240.345C209.176 237.684 206.596 236.292 204.869 237.236C203.142 238.181 202.923 241.105 204.379 243.766C205.835 246.428 208.416 247.82 210.143 246.875Z" fill="#464444"/>
<defs>
<linearGradient id="paint0_linear_666_7600" x1="55.5473" y1="55.3182" x2="103.265" y2="68.4996" gradientUnits="userSpaceOnUse">
<stop stop-color="#FF8761"/>
<stop offset="0.75" stop-color="#FFA589"/>
<stop offset="0.776042" stop-color="#FFA68A"/>
<stop offset="1" stop-color="#FFB59D"/>
</linearGradient>
<linearGradient id="paint1_linear_666_7600" x1="52.0011" y1="160.032" x2="57.0821" y2="249.848" gradientUnits="userSpaceOnUse">
<stop stop-color="#FF6F42"/>
<stop offset="1" stop-color="#FF8761" stop-opacity="0"/>
</linearGradient>
<linearGradient id="paint2_linear_666_7600" x1="59.8531" y1="196.991" x2="37.3634" y2="185.591" gradientUnits="userSpaceOnUse">
<stop stop-color="#FF8761"/>
<stop offset="0.75" stop-color="#FFA589"/>
<stop offset="0.776042" stop-color="#FFA68A"/>
<stop offset="1" stop-color="#FFB59D"/>
</linearGradient>
<linearGradient id="paint3_linear_666_7600" x1="53.432" y1="179.568" x2="54.1316" y2="191.935" gradientUnits="userSpaceOnUse">
<stop stop-color="#6598FF"/>
<stop offset="1" stop-color="#94B7FF"/>
</linearGradient>
<linearGradient id="paint4_linear_666_7600" x1="253.681" y1="267.945" x2="170.056" y2="235.07" gradientUnits="userSpaceOnUse">
<stop stop-color="#5599FF"/>
<stop offset="0.730681" stop-color="#A4C8FF"/>
</linearGradient>
</defs>
</svg>
