<svg width="22" height="19" viewBox="0 0 22 19" fill="none" xmlns="http://www.w3.org/2000/svg">
<path id="add_photo_alternate" d="M2.93538 18.8833C2.29372 18.8833 1.74441 18.6784 1.28747 18.2685C0.830523 17.8586 0.602051 17.3659 0.602051 16.7903V2.13938C0.602051 1.5638 0.830523 1.07108 1.28747 0.661203C1.74441 0.251325 2.29372 0.0463867 2.93538 0.0463867H13.4354V2.13938H2.93538V16.7903H19.2687V7.37185H21.6021V16.7903C21.6021 17.3659 21.3736 17.8586 20.9166 18.2685C20.4597 18.6784 19.9104 18.8833 19.2687 18.8833H2.93538ZM16.9354 6.32536V4.23237H14.6021V2.13938H16.9354V0.0463867H19.2687V2.13938H21.6021V4.23237H19.2687V6.32536H16.9354ZM4.10205 14.6973H18.1021L13.7271 9.46484L10.2271 13.6508L7.60205 10.5113L4.10205 14.6973Z" fill="#878B93"/>
</svg>
