<svg width="33" height="33" viewBox="0 0 33 33" fill="none" xmlns="http://www.w3.org/2000/svg">
<g id="Layer_1">
<path id="Vector" d="M27.1173 22.49V20.1212C27.1173 19.6686 27.1174 19.2161 27.1176 18.7639C27.118 17.4076 27.1184 16.0526 27.1151 14.6978L27.1151 14.6953C27.1151 14.5439 27.1011 14.3997 27.0821 14.2045C27.0767 14.1488 27.0709 14.0889 27.0649 14.0235M27.1173 22.49L28.0607 13.9321M27.1173 22.49L27.119 22.4883C27.1193 23.5957 27.1192 24.7024 27.1173 25.8098C27.1157 26.3686 26.9605 26.7452 26.6147 27.0375L26.6136 27.0384C26.2888 27.3138 25.9657 27.4417 25.612 27.4435C24.4109 27.4491 23.2109 27.4482 22.0077 27.4474C21.6422 27.4471 21.2764 27.4469 20.9102 27.4468C20.9097 27.254 20.9091 27.0614 20.9085 26.869C20.9065 26.2076 20.9045 25.5482 20.9052 24.8885C20.9088 24.8369 20.9097 24.7905 20.9097 24.7514V24.023C20.9101 23.9637 20.9103 23.9068 20.9106 23.8511C20.911 23.7429 20.9115 23.6395 20.9129 23.533C20.9142 23.4394 20.9131 23.3473 20.9097 23.2551V20.3663C20.9097 19.1057 19.8679 18.1291 18.6391 18.1291H14.394C13.1652 18.1291 12.1234 19.1057 12.1234 20.3663V24.5052C12.119 25.4833 12.1167 26.4704 12.1333 27.4588C12.1333 27.4588 12.1333 27.4588 12.1333 27.4588C11.3582 27.446 10.5838 27.449 9.82124 27.452C9.76835 27.4522 9.71552 27.4524 9.66274 27.4526C8.84519 27.4557 8.04057 27.4575 7.23882 27.4395C6.87857 27.431 6.54126 27.2626 6.2416 26.8993C6.01014 26.6186 5.90643 26.2827 5.90806 25.7744L27.1173 22.49ZM27.0649 14.0235L28.0607 13.9321M27.0649 14.0235C27.0649 14.0236 27.0649 14.0237 27.0649 14.0238L28.0607 13.9321M27.0649 14.0235C27.0335 13.6838 26.8565 13.3902 26.4446 13.0851M28.0607 13.9321C27.9953 13.2217 27.5995 12.696 27.0396 12.2814M26.4446 13.0851C26.4448 13.0853 26.445 13.0854 26.4452 13.0856L27.0396 12.2814M26.4446 13.0851C25.7877 12.5996 25.1328 12.1238 24.4741 11.6454C24.0345 11.326 23.5931 11.0054 23.1484 10.6798L23.7391 9.87293M26.4446 13.0851L27.0396 12.2814M27.0396 12.2814L6.86212 12.8438M23.7391 9.87293C23.3636 9.59806 22.9899 9.32091 22.6163 9.04382C22.2166 8.74739 21.817 8.45101 21.4153 8.15751C21.0408 7.88357 20.6636 7.61293 20.2864 7.34228C19.5635 6.82366 18.8406 6.30501 18.1369 5.76305C17.2544 5.08293 15.7543 5.04406 14.8308 5.77816C14.1618 6.30991 13.4668 6.81086 12.7721 7.31166C12.5021 7.50631 12.2322 7.70094 11.9637 7.89734C11.3179 8.36966 10.6704 8.84031 10.023 9.31085C9.63011 9.59638 9.23732 9.88186 8.84501 10.1677C8.57644 10.3633 8.30931 10.5608 8.04218 10.7584C7.46462 11.1856 6.88708 11.6127 6.29503 12.0202M23.7391 9.87293L4.90807 25.7705C4.90904 25.5187 4.91004 25.2668 4.91104 25.0149C4.92476 21.552 4.93847 18.0892 4.8992 14.6273C4.88589 13.4689 5.36152 12.6636 6.29503 12.0202M23.7391 9.87293L23.1484 10.6798C22.7416 10.3821 22.376 10.1107 22.0131 9.8415C21.6292 9.55661 21.2484 9.27404 20.8253 8.96495L20.8249 8.96461C20.4664 8.70237 20.0971 8.43737 19.7235 8.16927C18.9915 7.64402 18.2429 7.10688 17.5267 6.55533L17.5265 6.55512C17.2867 6.37032 16.9139 6.24233 16.4943 6.24026C16.0769 6.2382 15.7047 6.36092 15.453 6.56098L15.453 6.56102C14.7642 7.10844 14.0398 7.63067 13.3384 8.13633C13.0726 8.3279 12.8102 8.51709 12.5542 8.70437L12.5541 8.70451C11.9074 9.17745 11.2573 9.64992 10.6088 10.1213C10.2162 10.4066 9.82419 10.6915 9.43382 10.9759L9.43377 10.976C9.17783 11.1624 8.91752 11.3549 8.65388 11.5499C8.06929 11.9822 7.46831 12.4266 6.86212 12.8438M6.29503 12.0202L6.86253 12.8436C6.8624 12.8436 6.86226 12.8437 6.86212 12.8438M6.29503 12.0202L6.86196 12.8439C6.4911 13.0997 6.26066 13.3529 6.11886 13.6115C5.97938 13.8658 5.89415 14.1824 5.89913 14.6158L5.89913 14.616C5.9385 18.0859 5.92475 21.556 5.91104 25.0173C5.91004 25.2695 5.90904 25.5217 5.90806 25.7739L6.86212 12.8438" stroke="#B3B3B3" stroke-width="2"/>
</g>
</svg>
