<svg width="62" height="70" viewBox="0 0 62 70" fill="none" xmlns="http://www.w3.org/2000/svg">
<circle cx="30.6487" cy="6.86961" r="6.86961" fill="#333B4F"/>
<circle cx="30.649" cy="39.3512" r="30.649" fill="#FFE8DB"/>
<ellipse cx="22.1939" cy="45.6916" rx="2.11373" ry="3.17059" fill="#262626"/>
<ellipse cx="39.1037" cy="45.6916" rx="2.11373" ry="3.17059" fill="#262626"/>
<path d="M34.8763 53.0889H25.8929C25.8929 55.2026 27.4782 56.7879 30.6488 56.7879C33.6381 56.7879 34.7001 54.498 34.8763 53.0889Z" fill="#F09387"/>
<path fill-rule="evenodd" clip-rule="evenodd" d="M0.0372196 40.875L21.6973 28.3977C27.8273 32.6546 42.7459 37.1415 61.2337 41.3536C61.2764 40.6917 61.298 40.0239 61.298 39.3512C61.298 22.4242 47.576 8.70215 30.649 8.70215C13.722 8.70215 0 22.4242 0 39.3512C0 39.8621 0.012503 40.3701 0.0372196 40.875Z" fill="#333B4F"/>
<rect x="37.2991" y="7.84766" width="1.73275" height="13.2971" transform="rotate(90.1045 37.2991 7.84766)" fill="#FF8282"/>
</svg>
