<svg width="23" height="21" viewBox="0 0 23 21" fill="none" xmlns="http://www.w3.org/2000/svg">
<g id="MFAkul">
<path id="Vector" d="M11.1112 0.0048161C11.7498 -0.0107828 12.3853 0.0117489 13.0087 0.0689448C15.5854 0.305528 18.137 1.31685 19.9606 3.14972C22.3555 5.55671 22.9463 9.28268 21.3653 12.295C20.3595 14.2119 18.6036 15.4919 16.6489 16.3373C15.4539 16.8542 14.2054 17.164 12.9175 17.3165C11.7737 17.4522 10.6285 17.4244 9.48689 17.2749C9.3788 17.2606 9.30023 17.2858 9.2095 17.3473C7.7553 18.33 6.2972 19.3062 4.84213 20.2877C4.70973 20.3769 4.57864 20.386 4.46447 20.2933C4.35899 20.2075 4.30039 20.0949 4.3451 19.9324C4.68282 18.7048 5.00708 17.4738 5.34567 16.2467C5.38952 16.0877 5.36521 16.0106 5.21762 15.9356C4.09333 15.368 3.10187 14.6201 2.26277 13.6833C1.23962 12.5407 0.550723 11.2295 0.32326 9.69734C0.043272 7.81292 0.545513 5.91202 1.65635 4.3699C3.80683 1.38358 7.50657 0.0923431 11.1112 0.0048161Z" fill="#191600"/>
</g>
</svg>
