<svg width="17" height="17" viewBox="0 0 17 17" fill="none" xmlns="http://www.w3.org/2000/svg">
<g id="streamline:travel-map-location-pin-navigation-map-maps-pin-gps-location" clip-path="url(#clip0_155_253)">
<g id="Group">
<path id="Vector" d="M13.9879 6.3389C13.9879 9.18462 8.84501 16.0532 8.84501 16.0532C8.84501 16.0532 3.70215 9.18462 3.70215 6.3389C3.70215 4.97493 4.24398 3.66683 5.20846 2.70235C6.17293 1.73788 7.48104 1.19604 8.84501 1.19604C10.209 1.19604 11.5171 1.73788 12.4816 2.70235C13.446 3.66683 13.9879 4.97493 13.9879 6.3389Z" stroke="#878787" stroke-width="1.14286" stroke-linecap="round" stroke-linejoin="round"/>
<path id="Vector_2" d="M8.8449 8.05308C9.79167 8.05308 10.5592 7.28557 10.5592 6.3388C10.5592 5.39202 9.79167 4.62451 8.8449 4.62451C7.89813 4.62451 7.13062 5.39202 7.13062 6.3388C7.13062 7.28557 7.89813 8.05308 8.8449 8.05308Z" stroke="#878787" stroke-width="1.14286" stroke-linecap="round" stroke-linejoin="round"/>
</g>
</g>
<defs>
<clipPath id="clip0_155_253">
<rect width="16" height="16" fill="white" transform="translate(0.844971 0.624512)"/>
</clipPath>
</defs>
</svg>
