<svg width="102" height="19" viewBox="0 0 102 19" fill="none" xmlns="http://www.w3.org/2000/svg">
<g id="Group">
<path id="Vector" d="M18.0979 0.556152V18.0033H8.96514L7.11075 12.136V18.0033H0.760742V0.556152H9.91752L12.398 7.49483L13.0242 7.33781L11.4936 3.16537V0.556152H18.1003H18.0979Z" fill="black"/>
<path id="Vector_2" d="M19.2637 10.8867C19.2637 9.77143 19.4556 8.76007 19.8442 7.85261C20.2304 6.94516 20.7894 6.17625 21.5235 5.54357C22.2576 4.91089 23.1572 4.42368 24.2247 4.08194C25.2898 3.74021 26.5109 3.56934 27.8879 3.56934C29.6799 3.56934 31.1528 3.75868 32.3043 4.13736C33.4558 4.51604 34.3554 5.10716 35.0055 5.91071V12.8055C33.475 12.8055 31.9757 12.7501 30.5099 12.6393C29.0418 12.5284 27.5808 12.3298 26.1295 12.0481V12.8286C26.794 12.9925 27.4969 13.1219 28.2381 13.2188C28.9794 13.3158 29.7327 13.3897 30.4979 13.4428C31.2632 13.4959 32.0285 13.5329 32.7937 13.5536C33.559 13.5767 34.2955 13.586 35.0079 13.586V15.9943C33.9716 16.7817 32.8105 17.3151 31.5199 17.5898C30.2292 17.8646 28.7587 18.0032 27.1034 18.0032C25.9279 18.0032 24.858 17.8438 23.8936 17.5229C22.9269 17.2019 22.104 16.7378 21.4251 16.1282C20.7438 15.5186 20.2161 14.7751 19.837 13.8977C19.458 13.0203 19.2685 12.0158 19.2685 10.8867H19.2637ZM26.1247 7.98654V8.63307C26.4173 8.70696 26.7532 8.77161 27.1322 8.82241C27.5112 8.87552 27.8975 8.9217 28.2909 8.96788C28.6843 9.01175 29.0682 9.04639 29.4376 9.06717C29.807 9.08795 30.1405 9.0995 30.4332 9.0995V8.47375C30.1405 8.47375 29.8118 8.4622 29.4472 8.44142C29.085 8.41833 28.7131 8.386 28.3341 8.34213C27.955 8.29826 27.5736 8.24515 27.1874 8.18511C26.8012 8.12508 26.4461 8.05812 26.1223 7.98423L26.1247 7.98654Z" fill="black"/>
<path id="Vector_3" d="M38.2948 18.0036L35.7927 4.37329H42.2603L42.9104 8.81358L43.9299 4.37329H47.6627L48.6823 8.81358L49.3324 4.37329H55.7999L53.2978 18.0036H46.8303L45.8107 14.1429L44.7672 18.0036H38.2996H38.2948Z" fill="black"/>
<path id="Vector_4" d="M64.2822 0.556152C65.9351 0.556152 67.3505 0.678532 68.5236 0.92329C69.6966 1.16805 70.6562 1.57444 71.3975 2.14016C72.1388 2.70587 72.6833 3.44477 73.0312 4.35915C73.379 5.27353 73.5517 6.39341 73.5517 7.7165C73.5517 10.0971 72.8297 11.882 71.3855 13.0712C69.9413 14.2603 67.8279 14.7891 65.0451 14.6552V18.001H57.1646V0.556152H64.2798H64.2822ZM62.6605 7.45096C62.9844 7.65877 63.3994 7.83888 63.9008 7.98666C64.4022 8.13443 64.9323 8.26143 65.4889 8.36534C66.0454 8.46924 66.602 8.54775 67.1586 8.59855C67.7151 8.65166 68.2093 8.67706 68.6411 8.67706V8.05131C68.2093 8.05131 67.7295 8.02129 67.2041 7.96126C66.6788 7.90122 66.1582 7.8204 65.64 7.7165C65.1219 7.61259 64.6349 7.49021 64.1791 7.34936C63.7233 7.20851 63.3562 7.05611 63.078 6.89217L62.6605 7.45096Z" fill="black"/>
<path id="Vector_5" d="M82.7282 18.0033H74.8477V0.556152H82.7282V18.0033Z" fill="black"/>
<path id="Vector_6" d="M84.9037 14.1981C84.5007 13.1521 84.316 12.1385 84.3496 11.1594C84.3832 10.1804 84.6303 9.27063 85.0885 8.43245C85.5467 7.59427 86.216 6.8369 87.0916 6.15804C87.9672 5.47918 89.0491 4.91116 90.3398 4.44935C92.019 3.849 93.468 3.53266 94.6842 3.50264C95.9005 3.47263 96.9584 3.72431 97.858 4.26001L100.351 10.723C98.916 11.2356 97.491 11.6859 96.0756 12.0738C94.6578 12.4617 93.2185 12.7665 91.7551 12.9882L92.0382 13.7202C92.7195 13.6509 93.4272 13.5377 94.1565 13.3784C94.8857 13.2214 95.6198 13.039 96.3563 12.8312C97.0928 12.6234 97.8221 12.4017 98.5489 12.1662C99.2734 11.9307 99.9691 11.6951 100.636 11.455L101.507 13.7132C100.821 14.7985 99.9235 15.6875 98.8128 16.3779C97.7021 17.0683 96.3731 17.6894 94.8234 18.2436C93.7223 18.6361 92.6619 18.8462 91.64 18.8693C90.618 18.8924 89.68 18.7331 88.8212 18.389C87.9624 18.045 87.1971 17.5255 86.5254 16.8304C85.8537 16.1354 85.3116 15.258 84.9037 14.1981ZM90.287 9.18058L90.5221 9.78786C90.8243 9.76015 91.1626 9.70704 91.5368 9.62854C91.9111 9.55003 92.2901 9.4669 92.6763 9.37685C93.0626 9.2868 93.432 9.18982 93.787 9.08591C94.1421 8.982 94.4587 8.88272 94.7346 8.78343L94.5091 8.19693C94.2332 8.29622 93.9214 8.39551 93.5735 8.4948C93.2257 8.59639 92.8658 8.68876 92.494 8.77419C92.1222 8.85962 91.7455 8.93813 91.3617 9.01202C90.9779 9.08591 90.6204 9.14133 90.2894 9.18058H90.287Z" fill="black"/>
</g>
</svg>
