<svg width="34" height="26" viewBox="0 0 34 26" fill="none" xmlns="http://www.w3.org/2000/svg">
<g id="Group">
<path id="Vector" d="M8.22036 25.2605C4.9659 25.2605 2.04178 23.4077 0.765283 20.5382C-0.813007 16.9857 0.663326 12.7933 4.1217 10.7796C2.92676 7.75698 3.7832 4.3026 6.41368 2.12399C7.84924 0.934581 9.69669 0.282959 11.6135 0.282959C13.7994 0.282959 15.9405 1.1387 17.4903 2.63037L18.416 3.52144L21.4788 1.96697C22.6574 1.3703 23.9869 1.05627 25.3246 1.05627C28.4282 1.05627 31.2096 2.6657 32.5799 5.25256C34.5374 8.95424 33.0856 13.5274 29.3499 15.5568C30.1207 18.3988 29.1663 21.4999 26.805 23.4509C25.4266 24.5892 23.6117 25.2173 21.7031 25.2173C19.3989 25.2173 17.1518 24.3262 15.5408 22.7757L15.394 22.6344L11.9601 24.3733C10.8101 24.9582 9.51317 25.2644 8.21628 25.2644L8.22036 25.2605Z" fill="white"/>
<path id="Vector_2" d="M31.2954 5.88044C29.6151 2.70869 25.4308 1.53891 22.156 3.19544L19.1911 4.69889C19.9007 5.64884 20.4186 6.73226 20.6837 7.87456C20.7531 8.17289 20.594 8.48693 20.2718 8.57329C19.9741 8.6518 19.6152 8.47515 19.5459 8.17682C19.4031 7.56053 19.187 6.97171 18.8974 6.42215C18.5508 5.75483 18.0696 5.15816 17.5231 4.62823L16.4668 3.61154C13.9954 1.23273 10.0027 0.989351 7.35594 3.17974C4.70915 5.37013 4.37881 8.77741 6.02643 11.3682L5.22301 11.7764C2.14392 13.3348 0.720601 16.9109 2.0909 19.9924C3.62433 23.4468 7.89835 24.856 11.2874 23.1406L14.6234 21.4526C14.4562 21.2524 14.2808 21.064 14.134 20.8442C13.6854 20.1847 13.3428 19.4507 13.1063 18.697C13.0166 18.4026 13.2164 18.0807 13.5182 17.9983C13.8282 17.9158 14.1503 18.1003 14.2441 18.3947C14.4562 19.0738 14.7335 19.6587 15.1536 20.2711C15.3086 20.4988 15.4839 20.7107 15.6715 20.9188L15.7205 20.9698L16.5688 21.7902C19.0361 24.1651 23.2204 24.5773 25.8713 22.3908C28.1959 20.4713 28.7587 17.382 27.5801 14.8854L28.4773 14.43C31.6787 12.8088 32.9348 8.97761 31.2995 5.88044H31.2954Z" fill="#0074FF"/>
</g>
</svg>
