<svg width="32" height="32" viewBox="0 0 32 32" fill="none" xmlns="http://www.w3.org/2000/svg">
<g id="Frame 32">
<g id="Group">
<path id="Vector" d="M13.8338 17.1641C13.7435 19.9166 12.9551 22.3289 11.8063 24.004C10.6493 25.6912 9.22463 26.5135 7.84325 26.45C6.46188 26.3864 5.09537 25.4356 4.05227 23.6473C3.01663 21.8717 2.38856 19.3942 2.47882 16.6417C2.56907 13.8892 3.35746 11.4769 4.50625 9.80179C5.66331 8.11464 7.08796 7.29228 8.46933 7.35583C9.8507 7.41939 11.2172 8.37017 12.2603 10.1585C13.296 11.9341 13.924 14.4116 13.8338 17.1641Z" stroke="#B3B3B3" stroke-width="2"/>
<path id="Vector_2" d="M9.04577 26.8887C11.3375 26.9941 13.2916 24.1424 13.4105 20.5192C13.5293 16.8959 11.7677 13.8733 9.47599 13.7678C7.18424 13.6624 5.23011 16.5141 5.11131 20.1373C4.9925 23.7605 6.75403 26.7832 9.04577 26.8887Z" fill="#B3B3B3"/>
<path id="Vector_3" d="M29.521 16.8689C29.4308 19.6215 28.6424 22.0337 27.4936 23.7088C26.3365 25.396 24.9119 26.2183 23.5305 26.1548C22.1491 26.0912 20.7826 25.1405 19.7395 23.3521C18.7039 21.5765 18.0758 19.099 18.1661 16.3465C18.2563 13.594 19.0447 11.1817 20.1935 9.50662C21.3506 7.81947 22.7752 6.99711 24.1566 7.06066C25.538 7.12422 26.9045 8.075 27.9476 9.86337C28.9832 11.639 29.6113 14.1164 29.521 16.8689Z" stroke="#B3B3B3" stroke-width="2"/>
<path id="Vector_4" d="M24.514 26.8887C26.8058 26.9941 28.7599 24.1424 28.8787 20.5192C28.9975 16.8959 27.236 13.8733 24.9442 13.7678C22.6525 13.6624 20.6984 16.5141 20.5796 20.1373C20.4608 23.7605 22.2223 26.7832 24.514 26.8887Z" fill="#B3B3B3"/>
</g>
</g>
</svg>
