<svg width="26" height="24" viewBox="0 0 26 24" fill="none" xmlns="http://www.w3.org/2000/svg">
<g id="Layer_1" clip-path="url(#clip0_217_380)">
<path id="Vector" d="M2.06246 23L2.06301 23C4.72554 22.983 7.3896 22.9856 10.0498 22.9883C11.0241 22.9893 11.9979 22.9902 12.9709 22.9902H12.9889H13.0069H13.0249H13.0429H13.0609H13.0788H13.0968H13.1148H13.1328H13.1508H13.1688H13.1868H13.2047H13.2227H13.2407H13.2587H13.2767H13.2947H13.3127H13.3306H13.3486H13.3666H13.3846H13.4026H13.4206H13.4386H13.4565H13.4745H13.4925H13.5105H13.5285H13.5465H13.5645H13.5824H13.6004H13.6184H13.6364H13.6544H13.6724H13.6904H13.7084H13.7263H13.7443H13.7623H13.7803H13.7983H13.8163H13.8343H13.8522H13.8702H13.8882H13.9062H13.9242H13.9422H13.9602H13.9782H13.9961H14.0141H14.0321H14.0501H14.0681H14.0861H14.1041H14.122H14.14H14.158H14.176H14.194H14.212H14.23H14.248H14.2659H14.2839H14.3019H14.3199H14.3379H14.3559H14.3739H14.3919H14.4098H14.4278H14.4458H14.4638H14.4818H14.4998H14.5178H14.5357H14.5537H14.5717H14.5897H14.6077H14.6257H14.6437H14.6617H14.6796H14.6976H14.7156H14.7336H14.7516H14.7696H14.7876H14.8056H14.8235H14.8415H14.8595H14.8775H14.8955H14.9135H14.9315H14.9495H14.9675H14.9854H15.0034H15.0214H15.0394H15.0574H15.0754H15.0934H15.1114H15.1293H15.1473H15.1653H15.1833H15.2013H15.2193H15.2373H15.2553H15.2732H15.2912H15.3092H15.3272H15.3452H15.3632H15.3812H15.3992H15.4171H15.4351H15.4531H15.4711H15.4891H15.5071H15.5251H15.5431H15.5611H15.579H15.597H15.615H15.633H15.651H15.669H15.687H15.705H15.7229H15.7409H15.7589H15.7769H15.7949H15.8129H15.8309H15.8489H15.8669H15.8848H15.9028H15.9208H15.9388H15.9568H15.9748H15.9928H16.0108H16.0288H16.0467H16.0647H16.0827H16.1007H16.1187H16.1367H16.1547H16.1727H16.1907H16.2086H16.2266H16.2446H16.2626H16.2806H16.2986H16.3166H16.3346H16.3525H16.3705H16.3885H16.4065H16.4245H16.4425H16.4605H16.4785H16.4965H16.5144H16.5324H16.5504H16.5684H16.5864H16.6044H16.6224H16.6404H16.6584H16.6763H16.6943H16.7123H16.7303H16.7483H16.7663H16.7843H16.8023H16.8203H16.8382H16.8562H16.8742H16.8922H16.9102H16.9282H16.9462H16.9642H16.9822H17.0001H17.0181H17.0361H17.0541H17.0721H17.0901H17.1081H17.1261H17.1441H17.162H17.18H17.198H17.216H17.234H17.252H17.27H17.288H17.306H17.3239H17.3419H17.3599H17.3779H17.3959H17.4139H17.4319H17.4499H17.4679H17.4858H17.5038H17.5218H17.5398H17.5578H17.5758H17.5938H17.6118H17.6298H17.6477H17.6657H17.6837H17.7017H17.7197H17.7377H17.7557H17.7737H17.7917H17.8097H17.8276H17.8456H17.8636H17.8816H17.8996H17.9176H17.9356H17.9536H17.9716H17.9895H18.0075H18.0255H18.0435H18.0615H18.0795H18.0975H18.1155H18.1335H18.1514H18.1694H18.1874H18.2054H18.2234H18.2414H18.2594H18.2774H18.2954H18.3133H18.3313H18.3493H18.3673H18.3853H18.4033H18.4213H18.4393H18.4573H18.4752H18.4932H18.5112H18.5292H18.5472H18.5652H18.5832H18.6012H18.6192H18.6371H18.6551H18.6731H18.6911H18.7091H18.7271H18.7451H18.7631H18.781H18.799H18.817H18.835H18.853H18.871H18.889H18.907H18.925H18.9429H18.9609H18.9789H18.9969H19.0149H19.0329H19.0509H19.0689H19.0869H19.1048H19.1228H19.1408H19.1588H19.1768H19.1948H19.2128H19.2308H19.2488H19.2667H19.2847H19.3027H19.3207H19.3387H19.3567H19.3747H19.3927H19.4107H19.4286H19.4466H19.4646H19.4826H19.5006H19.5186H19.5366H19.5546H19.5725H19.5905H19.6085H19.6265H19.6445H19.6625H19.6805H19.6985H19.7164H19.7344H19.7524H19.7704H19.7884H19.8064H19.8244H19.8424H19.8604H19.8783H19.8963H19.9143H19.9323H19.9503H19.9683H19.9863H20.0043H20.0222H20.0402H20.0582H20.0762H20.0942H20.1122H20.1302H20.1482H20.1661H20.1841H20.2021H20.2201H20.2381H20.2561H20.2741H20.2921H20.3101H20.328H20.346H20.364H20.382H20.4H20.418H20.436H20.454H20.4719H20.4899H20.5079H20.5259H20.5439H20.5619H20.5799H20.5979H20.6158H20.6338H20.6518H20.6698H20.6878H20.7058H20.7238H20.7417H20.7597H20.7777H20.7957H20.8137H20.8317H20.8497H20.8677H20.8856H20.9036H20.9216H20.9396H20.9576H20.9756H20.9936H21.0116H21.0295H21.0475H21.0655H21.0835H21.1015H21.1195H21.1375H21.1554H21.1734H21.1914H21.2094H21.2274H21.2454H21.2634H21.2814H21.2993H21.3173H21.3353H21.3533H21.3713H21.3893H21.4073H21.4252H21.4432H21.4612H21.4792H21.4972H21.5152H21.5332H21.5512H21.5691H21.5871H21.6051H21.6231H21.6411H21.6591H21.6771H21.695H21.713H21.731H21.749H21.767H21.785H21.803H21.8209H21.8389H21.8569H21.8749H21.8929H21.9109H21.9289H21.9468H21.9648H21.9828H22.0008H22.0188H22.0368H22.0548H22.0727H22.0907H22.1087H22.1267H22.1447H22.1627H22.1807C22.3921 22.9902 22.5965 22.9917 22.7966 22.9931C23.2538 22.9964 23.6884 22.9995 24.1327 22.9847L24.1338 22.9846C24.2681 22.9803 24.332 22.9521 24.3588 22.9363C24.3799 22.9238 24.4177 22.8966 24.4618 22.8106C24.4947 22.7443 24.5131 22.6766 24.4893 22.5094L24.489 22.5073C24.4544 22.2603 24.4487 22.0118 24.4446 21.8301C24.4441 21.8081 24.4436 21.7871 24.4431 21.7672C24.4378 21.5567 24.4298 21.4269 24.4078 21.3182L24.4074 21.3166C24.2198 20.3819 23.9191 19.5075 23.454 18.6949L23.4538 18.6946C22.8555 17.6486 22.1131 16.7437 21.1753 15.9712L21.8111 15.1994L21.1753 15.9712C20.2521 15.2107 19.2434 14.6022 18.1244 14.1347L18.1242 14.1346C16.7884 13.5762 15.3917 13.2529 13.9502 13.1759L13.9495 13.1759C12.8654 13.1172 11.8086 13.1393 10.7719 13.3181C9.62515 13.5159 8.54044 13.8323 7.5146 14.293L7.51411 14.2932C5.98138 14.9805 4.68339 15.937 3.6281 17.1825L2.06246 23ZM2.06246 23C1.80061 23.0019 1.67045 22.9353 1.6179 22.8976M2.06246 23L1.6179 22.8976M0.572008 23.0302L1.5468 22.8071C1.48904 22.5547 1.48473 22.2571 1.5355 21.9869L1.53569 21.9859C1.67964 21.2154 1.84871 20.4715 2.08326 19.7669C2.39022 18.8488 2.93008 18.0064 3.62805 17.1825L0.572008 23.0302ZM0.572008 23.0302L1.54643 22.8055M0.572008 23.0302L1.54643 22.8055M1.6179 22.8976C1.56444 22.8592 1.55057 22.8234 1.54643 22.8055M1.6179 22.8976L1.54643 22.8055" stroke="#B3B3B3" stroke-width="2"/>
<path id="Vector_2" d="M17.4349 4.89766L17.4393 5.17234C17.4765 7.47016 15.4673 9.20426 13.3237 9.33744C10.5193 9.51143 8.44867 7.32099 8.56478 4.95944L8.56478 4.95943C8.66272 2.96698 10.4347 0.869095 13.2743 1.00619L13.2743 1.00619C15.4569 1.11153 17.3184 2.73974 17.4349 4.89766Z" stroke="#B3B3B3" stroke-width="2"/>
</g>
<defs>
<clipPath id="clip0_217_380">
<rect width="25" height="24" fill="white" transform="translate(0.5)"/>
</clipPath>
</defs>
</svg>
