<svg width="53" height="52" viewBox="0 0 53 52" fill="none" xmlns="http://www.w3.org/2000/svg">
<circle cx="26.4628" cy="26" r="26" fill="#DFDFDF"/>
<circle cx="26.5736" cy="25.8888" r="14.9679" fill="#FFF3F1"/>
<ellipse cx="22.9607" cy="28.9854" rx="1.03227" ry="1.5484" fill="#262626"/>
<ellipse cx="31.2188" cy="28.9854" rx="1.03227" ry="1.5484" fill="#262626"/>
<path d="M29.1542 32.5986H24.7671C24.7671 33.6309 25.5413 34.4051 27.0897 34.4051C28.5495 34.4051 29.0682 33.2868 29.1542 32.5986Z" fill="#F09387"/>
<path d="M25.7858 10.9214C15.3895 11.1472 11.9996 20.2118 11.6057 24.857H22.2408L22.6347 20.0791H24.2102L24.6041 24.4589H28.9369L29.3308 20.0791H30.9064L31.3003 24.4589H41.5414C41.0253 19.6956 37.6704 10.6634 25.7858 10.9214Z" fill="#202123"/>
<circle cx="15.9929" cy="13.7548" r="3.35487" fill="#202123"/>
<circle cx="36.6381" cy="13.7548" r="3.35487" fill="#202123"/>
</svg>
