<svg width="52" height="52" viewBox="0 0 52 52" fill="none" xmlns="http://www.w3.org/2000/svg">
<circle cx="26" cy="26" r="26" transform="rotate(90 26 26)" fill="#5D69D7"/>
<circle cx="26.6701" cy="28.1307" r="15.4027" fill="#FFF3F1"/>
<path fill-rule="evenodd" clip-rule="evenodd" d="M11.1603 29.0247C13.3458 28.5332 15.8642 27.7967 17.282 27.3591L20.6938 23.6243V26.88L31.4137 26.88V22.9624C32.2574 24.3519 33.6739 26.0433 34.6465 26.88C35.1821 27.3408 36.6175 27.8696 38.2798 28.482C39.4752 28.9224 40.7879 29.4061 41.9677 29.9387C42.0371 29.344 42.0728 28.7391 42.0728 28.1258C42.0728 19.5825 35.147 12.6567 26.6037 12.6567C18.0603 12.6567 11.1346 19.5825 11.1346 28.1258C11.1346 28.4276 11.1432 28.7273 11.1603 29.0247Z" fill="#8E5D48"/>
<ellipse cx="22.4211" cy="31.318" rx="1.06225" ry="1.59338" fill="#262626"/>
<ellipse cx="30.9191" cy="31.318" rx="1.06225" ry="1.59338" fill="#262626"/>
<path d="M28.7946 35.0361H24.28C24.28 36.0984 25.0767 36.8951 26.6701 36.8951C28.1724 36.8951 28.7061 35.7443 28.7946 35.0361Z" fill="#F09387"/>
<path fill-rule="evenodd" clip-rule="evenodd" d="M41.2028 21.9933H11.7938C13.2452 15.2056 19.2774 10.1157 26.4983 10.1157C33.7193 10.1157 39.7514 15.2056 41.2028 21.9933Z" fill="#FC8368"/>
<path d="M10.4 25.3635L12.1852 18.9916C22.4684 16.9526 35.717 18.142 41.1996 18.9916L42.8499 25.3635C33.5587 22.653 18.5547 23.1546 10.4 25.3635Z" fill="#F47153"/>
<circle cx="32.3191" cy="11.5697" r="2.65563" fill="#FC8368"/>
</svg>
