<svg width="53" height="52" viewBox="0 0 53 52" fill="none" xmlns="http://www.w3.org/2000/svg">
<circle cx="26.2962" cy="26" r="26" fill="#D3CDFB"/>
<circle cx="26.2962" cy="26.1047" r="14.8571" fill="#FFF3F1"/>
<ellipse cx="22.7099" cy="29.1785" rx="1.02463" ry="1.53694" fill="#262626"/>
<ellipse cx="30.907" cy="29.1785" rx="1.02463" ry="1.53694" fill="#262626"/>
<path fill-rule="evenodd" clip-rule="evenodd" d="M40.8252 22.8797H11.7674C13.201 16.1726 19.1613 11.1431 26.2963 11.1431C33.4313 11.1431 39.3916 16.1726 40.8252 22.8797Z" fill="#9888FF"/>
<path fill-rule="evenodd" clip-rule="evenodd" d="M22.8578 21.4741H30.5027C30.1253 19.7097 28.5573 18.3867 26.6803 18.3867C24.8032 18.3867 23.2352 19.7097 22.8578 21.4741Z" fill="#292929"/>
<path d="M11.6823 29.0592L14.3306 22.8799H11.8009C11.2082 23.5429 11.4749 27.2757 11.6823 29.0592Z" fill="#292929"/>
<path d="M40.9101 29.0592L38.2618 22.8799H40.7915C41.3842 23.5429 41.1175 27.2757 40.9101 29.0592Z" fill="#292929"/>
<circle cx="26.9529" cy="32.4361" r="1.28079" fill="#F09387"/>
</svg>
