<svg width="53" height="52" viewBox="0 0 53 52" fill="none" xmlns="http://www.w3.org/2000/svg">
<circle cx="26.8795" cy="26" r="26" fill="#DBCDC7"/>
<ellipse cx="27.0065" cy="26.003" rx="14.7302" ry="14.8545" fill="#FFF3F1"/>
<ellipse cx="23.4509" cy="29.0757" rx="1.01587" ry="1.53667" fill="#262626"/>
<ellipse cx="31.5779" cy="29.0757" rx="1.01587" ry="1.53667" fill="#262626"/>
<path d="M29.5462 32.6621H25.2287C25.2287 33.6866 25.9906 34.4549 27.5144 34.4549C28.9511 34.4549 29.4615 33.3451 29.5462 32.6621Z" fill="#F09387"/>
<path d="M26.2313 11.1484C16.0001 11.3725 12.0224 20.6192 12.0224 25.7415L22.7425 24.9785L23.1302 20.2368H24.6807L25.0683 24.5834H29.3323L29.72 20.2368H31.2705L31.6582 24.5834H41.7367C41.2288 19.8561 37.9272 10.8923 26.2313 11.1484Z" fill="#736B67"/>
<path d="M13.2922 19.5549C12.6827 20.9665 12.361 23.2016 12.2764 24.1427C17.8637 24.1427 30.3081 24.3936 41.7367 24.1376C41.7367 22.4437 41.0594 20.3511 40.7208 19.5276C29.0383 19.2716 18.6256 19.2715 13.2922 19.5549Z" fill="#95ACF6"/>
</svg>
