<svg width="52" height="52" viewBox="0 0 52 52" fill="none" xmlns="http://www.w3.org/2000/svg">
<circle cx="26" cy="26" r="26" transform="rotate(90 26 26)" fill="#FAEDCD"/>
<circle cx="38.3625" cy="35.2019" r="2.06254" transform="rotate(21.6755 38.3625 35.2019)" fill="#FAC746"/>
<circle cx="39.1339" cy="37.7278" r="1.65003" transform="rotate(21.6755 39.1339 37.7278)" fill="#FAC746"/>
<circle cx="40.0579" cy="39.8708" r="1.23752" transform="rotate(21.6755 40.0579 39.8708)" fill="#FAC746"/>
<circle cx="25.6757" cy="25.6805" r="15.2757" fill="#FFF3F1"/>
<path d="M28.0311 32.0292L23.6785 33.0786C23.9254 34.1028 24.8787 34.6857 26.4149 34.3153C27.8633 33.9661 28.1104 32.7326 28.0311 32.0292Z" fill="#F09387"/>
<path d="M24.8718 10.4054C14.2617 10.6358 10.802 19.8869 10.4 24.6276L19.8815 23.0419L25.4124 21.725L31.9967 23.3052L40.9515 24.6223C40.6881 19.3546 37.0008 10.1421 24.8718 10.4054Z" fill="#FAC746"/>
<path d="M23.2717 30.9867C24.5622 30.9867 25.6083 29.9156 25.6083 28.5944C25.6083 27.2732 24.5622 26.2021 23.2717 26.2021C21.9812 26.2021 20.935 27.2732 20.935 28.5944C20.935 29.9156 21.9812 30.9867 23.2717 30.9867Z" fill="#202123"/>
<path d="M28.5087 30.9867C29.7992 30.9867 30.8453 29.9156 30.8453 28.5944C30.8453 27.2732 29.7992 26.2021 28.5087 26.2021C27.2182 26.2021 26.172 27.2732 26.172 28.5944C26.172 29.9156 27.2182 30.9867 28.5087 30.9867Z" fill="#202123"/>
<path d="M23.4216 28.5942H29.8089" stroke="#202123" stroke-width="1.5" stroke-miterlimit="10"/>
<path d="M23.4215 26.6694C23.4215 26.6694 21.1009 26.8434 21.5076 29.2039L23.4215 26.6694Z" fill="white"/>
<path d="M28.7785 26.6694C28.7785 26.6694 26.4578 26.8434 26.8646 29.2039L28.7785 26.6694Z" fill="white"/>
</svg>
