<svg width="52" height="52" viewBox="0 0 52 52" fill="none" xmlns="http://www.w3.org/2000/svg">
<circle cx="26" cy="26" r="26" fill="#FBD5D5"/>
<circle cx="26.1048" cy="12.2676" r="3.35353" fill="#333B4F"/>
<circle cx="26.1048" cy="28.124" r="14.9619" fill="#FFF3F1"/>
<ellipse cx="21.9774" cy="31.2192" rx="1.03186" ry="1.54778" fill="#262626"/>
<ellipse cx="30.2322" cy="31.2192" rx="1.03186" ry="1.54778" fill="#262626"/>
<path d="M28.1685 34.8306H23.7831C23.7831 35.8624 24.557 36.6363 26.1048 36.6363C27.564 36.6363 28.0825 35.5185 28.1685 34.8306Z" fill="#F09387"/>
<path fill-rule="evenodd" clip-rule="evenodd" d="M11.161 28.8678L21.7349 22.7768C24.7274 24.8549 32.0102 27.0452 41.0353 29.1015C41.0561 28.7784 41.0667 28.4524 41.0667 28.124C41.0667 19.8608 34.368 13.1621 26.1048 13.1621C17.8416 13.1621 11.1429 19.8608 11.1429 28.124C11.1429 28.3734 11.149 28.6214 11.161 28.8678Z" fill="#333B4F"/>
<rect x="29.3512" y="12.7451" width="0.845878" height="6.49126" transform="rotate(90.1045 29.3512 12.7451)" fill="#FF8282"/>
</svg>
