<svg width="52" height="52" viewBox="0 0 52 52" fill="none" xmlns="http://www.w3.org/2000/svg">
<circle cx="26" cy="26" r="26" fill="#CAE0FD"/>
<circle cx="25.8579" cy="26.2279" r="14.6053" fill="#FFF3F1"/>
<ellipse cx="22.3325" cy="29.2497" rx="1.00726" ry="1.5109" fill="#262626"/>
<ellipse cx="30.3906" cy="29.2497" rx="1.00726" ry="1.5109" fill="#262626"/>
<path d="M28.3761 32.7759H24.0953C24.0953 33.7831 24.8507 34.5386 26.3616 34.5386C27.7861 34.5386 28.2922 33.4474 28.3761 32.7759Z" fill="#F09387"/>
<path d="M31.54 12.0237C17.6901 7.99463 11.8144 18.7372 11.1429 25.1166V26.3757C12.5531 24.3612 17.4383 21.7286 20.9637 21.0876C23.7337 20.584 26.084 21.2555 27.2591 22.0949C29.0722 20.4832 36.9121 23.4378 40.6054 25.1166C41.109 20.8358 39.4302 18.3176 37.8354 17.5622C36.5763 14.2886 32.7151 12.4434 31.54 12.0237Z" fill="#434379"/>
<path d="M13.2909 18.0335C13.0419 18.5421 12.4348 18.5898 11.1429 22.8653C16.9396 22.8653 29.0002 23.1912 40.8572 22.9223C40.8572 21.1428 39.7429 18.9429 38.7584 18.05C26.638 17.7811 18.8242 17.7358 13.2909 18.0335Z" fill="#4F97F5"/>
</svg>
