<svg width="52" height="52" viewBox="0 0 52 52" fill="none" xmlns="http://www.w3.org/2000/svg">
<circle cx="26" cy="26" r="26" fill="#FCE4D7"/>
<path d="M9.6571 38.0007C11.5504 37.3453 11.963 32.4482 11.9327 30.0815L17.03 30.8097L19.4877 38.5468L9.6571 38.0007Z" fill="#96694F"/>
<path d="M41.8521 38.0007C39.9587 37.3453 39.5461 32.4482 39.5765 30.0815L34.4791 30.8097L32.0215 38.5468L41.8521 38.0007Z" fill="#96694F"/>
<circle cx="25.6175" cy="26.0002" r="14.8571" fill="#FFF3F1"/>
<ellipse cx="22.0313" cy="29.0741" rx="1.02463" ry="1.53695" fill="#262626"/>
<ellipse cx="30.2283" cy="29.0741" rx="1.02463" ry="1.53695" fill="#262626"/>
<path d="M27.9853 32.9757L23.8256 31.687C23.5224 32.6657 24.029 33.6272 25.4971 34.082C26.8813 34.5109 27.7015 33.6029 27.9853 32.9757Z" fill="#F09387"/>
<path fill-rule="evenodd" clip-rule="evenodd" d="M10.7784 26.739L21.2782 20.6906C24.2497 22.7541 31.4815 24.9291 40.4434 26.971C40.4641 26.6501 40.4746 26.3264 40.4746 26.0002C40.4746 17.7948 33.8228 11.1431 25.6175 11.1431C17.4121 11.1431 10.7603 17.7948 10.7603 26.0002C10.7603 26.2479 10.7664 26.4942 10.7784 26.739Z" fill="#96694F"/>
<rect x="34.8939" y="18.6953" width="0.839954" height="6.71913" transform="rotate(17.9005 34.8939 18.6953)" fill="#82C3FF"/>
<path d="M24.837 29.6203C24.7725 29.8877 24.5286 30.1562 24.0503 30.3224C23.5781 30.4866 22.9409 30.5217 22.2597 30.3574C21.5784 30.193 21.0273 29.8712 20.6819 29.5097C20.3321 29.1437 20.2374 28.7935 20.3019 28.5261C20.3665 28.2588 20.6104 27.9903 21.0886 27.824C21.5608 27.6598 22.198 27.6247 22.8793 27.7891C23.5606 27.9534 24.1116 28.2752 24.4571 28.6367C24.8069 29.0028 24.9015 29.3529 24.837 29.6203Z" fill="black" stroke="black"/>
<path d="M27.1666 29.6203C27.2311 29.8877 27.475 30.1562 27.9533 30.3224C28.4255 30.4866 29.0627 30.5217 29.744 30.3574C30.4252 30.193 30.9763 29.8712 31.3217 29.5097C31.6715 29.1437 31.7662 28.7935 31.7017 28.5261C31.6371 28.2588 31.3932 27.9903 30.915 27.824C30.4428 27.6598 29.8056 27.6247 29.1243 27.7891C28.443 27.9534 27.892 28.2752 27.5465 28.6367C27.1967 29.0028 27.1021 29.3529 27.1666 29.6203Z" fill="black" stroke="black"/>
<path d="M24.2179 29.4224H28.0326" stroke="black"/>
</svg>
