<svg width="52" height="52" viewBox="0 0 52 52" fill="none" xmlns="http://www.w3.org/2000/svg">
<circle cx="26" cy="26" r="26" fill="#F6C899"/>
<path d="M39.5469 35.5168C39.0415 34.1297 37.2327 34.5757 36.3916 34.972C35.1253 39.2247 38.8704 39.5743 40.9012 39.2176C39.1904 37.818 40.1788 37.2506 39.5469 35.5168Z" fill="#292929"/>
<path d="M12.8775 35.5168C13.383 34.1297 15.1917 34.5757 16.0329 34.972C17.2992 39.2247 13.5541 39.5743 11.5232 39.2176C13.2341 37.818 12.2457 37.2506 12.8775 35.5168Z" fill="#292929"/>
<circle cx="26.3324" cy="25.2119" r="14.708" fill="#FFF3F1"/>
<ellipse cx="22.7822" cy="28.2544" rx="1.01434" ry="1.52152" fill="#262626"/>
<ellipse cx="30.897" cy="28.2544" rx="1.01434" ry="1.52152" fill="#262626"/>
<path d="M28.8683 31.8052H24.5574C24.5574 32.8195 25.3181 33.5803 26.8396 33.5803C28.2741 33.5803 28.7838 32.4814 28.8683 31.8052Z" fill="#F09387"/>
<path fill-rule="evenodd" clip-rule="evenodd" d="M40.7156 22.0189H11.9495C13.3686 15.379 19.2691 10.3999 26.3325 10.3999C33.396 10.3999 39.2965 15.379 40.7156 22.0189Z" fill="#FC8368"/>
<path fill-rule="evenodd" clip-rule="evenodd" d="M30.497 20.6276H22.9286C23.3021 18.8807 24.8545 17.5708 26.7128 17.5708C28.5712 17.5708 30.1236 18.8807 30.497 20.6276Z" fill="#292929"/>
</svg>
