<svg width="41" height="38" viewBox="0 0 41 38" fill="none" xmlns="http://www.w3.org/2000/svg">
<g id="&#235;&#159;&#172;&#235;&#139;&#157;" clip-path="url(#clip0_368_7057)">
<path id="Vector" d="M22.4839 13.0562C22.4839 13.0562 23.7911 3.73417 26.9893 5.90696C29.0286 7.29008 24.9806 11.5843 25.3379 13.3365" fill="#FC8368"/>
<path id="Vector_2" d="M13.2855 1.08466C13.2855 1.08466 0.252688 11.9767 0.688422 14.5093C1.12416 17.0419 4.37473 21.009 5.44663 21.4062C6.51854 21.8033 6.41832 21.3501 7.29415 22.0276C8.16997 22.7052 7.4423 25.0649 7.78217 25.462C8.12204 25.8592 11.1417 29.7983 12.8933 30.8076C14.645 31.8169 19.5121 36.3821 20.7757 36.4382C22.0394 36.4942 33.6255 37.0596 34.4011 36.7746C35.1768 36.4896 39.2683 34.1859 39.6561 29.8497C40.0439 25.5134 36.2007 24.7284 35.8609 24.6724C35.521 24.6163 31.5776 23.8266 30.6538 23.2659C29.7301 22.7052 28.998 18.8175 28.6102 17.9764C28.2224 17.1353 27.3466 13.757 25.595 13.1916C23.8433 12.6262 17.5644 12.743 15.6167 9.08429C13.6689 5.42558 13.9609 2.38834 13.9609 1.82294C13.9609 1.25755 13.5208 0.472536 13.2811 1.08933L13.2855 1.08466Z" fill="#FC8368" stroke="#FC8368" stroke-miterlimit="10"/>
<path id="Vector_3" d="M36.423 24.3453C36.0787 24.2893 32.0743 23.4809 31.1375 22.9062C30.2007 22.3314 29.4599 18.3643 29.0634 17.4999C28.6669 16.6354 27.778 13.187 26.0002 12.6122C24.2224 12.0375 17.8476 12.1543 15.8737 8.4115C13.8955 4.67336 14.361 1.97912 14.361 1.40438C14.361 0.829642 14.1962 0.243492 13.5034 0.243652C13.5034 0.243652 7.4423 5.34155 3.66448 9.43949C3.66448 9.43949 2.95859 11.2852 4.51416 13.8739C6.06973 16.4625 20.0742 31.303 22.2267 31.9945C24.3662 32.6814 38.5101 34.1393 39.2552 32.8123C39.2596 32.8029 39.2683 32.7889 39.2727 32.7795C39.2988 32.7188 39.3206 32.6814 39.338 32.6627C39.8217 31.7936 40.179 30.7843 40.2792 29.6348C40.6757 25.2051 36.7715 24.4014 36.4273 24.3407L36.423 24.3453Z" fill="#067DFD"/>
<path id="Vector_4" d="M28.4477 14.3951L25.3011 15.1921C24.7203 15.3392 24.3604 15.9624 24.4974 16.584C24.6343 17.2056 25.2161 17.5903 25.797 17.4431L28.9435 16.6461C29.5243 16.499 29.8842 15.8758 29.7473 15.2542C29.6104 14.6326 29.0285 14.248 28.4477 14.3951Z" fill="#FC8368"/>
<path id="Vector_5" d="M30.0246 19.0223L26.878 19.8193C26.2972 19.9664 25.9373 20.5896 26.0742 21.2112C26.2112 21.8328 26.793 22.2175 27.3738 22.0703L30.5204 21.2733C31.1012 21.1262 31.4611 20.503 31.3242 19.8814C31.1872 19.2598 30.6054 18.8752 30.0246 19.0223Z" fill="#FC8368"/>
<path id="Vector_6" d="M3.66167 9.44409C3.66167 9.44409 1.99658 12.9486 12.6027 22.9341C23.2088 32.9197 20.6314 31.3823 23.0228 32.1253C25.4141 32.8683 37.3488 33.471 38.4027 33.2701L39.4567 33.0645" stroke="black" stroke-miterlimit="10"/>
</g>
<defs>
<clipPath id="clip0_368_7057">
<rect width="39.8435" height="37.0637" fill="white" transform="translate(0.461853 0.0146484)"/>
</clipPath>
</defs>
</svg>
