<svg width="41" height="66" viewBox="0 0 41 66" fill="none" xmlns="http://www.w3.org/2000/svg">
<g id="&#236;&#136;&#152;&#236;&#152;&#129;" clip-path="url(#clip0_368_7066)">
<g id="Group">
<path id="Vector" d="M13.5353 63.7061C13.5353 63.7061 13.5315 63.7061 13.5296 63.7042C13.5163 63.7002 13.5049 63.6983 13.4897 63.6963L13.5353 63.7081V63.7061Z" fill="#FC8368"/>
<path id="Vector_2" d="M14.5162 64.1187C14.446 64.097 14.3758 64.0773 14.2999 64.0557C14.4118 64.099 14.4726 64.1128 14.5162 64.1187Z" fill="#FC8368"/>
<path id="Vector_3" d="M27.2227 63.9249C27.2329 63.9146 27.237 63.9063 27.235 63.9001C27.2268 63.9084 27.2227 63.9166 27.2227 63.9249Z" fill="#FC8368"/>
<path id="Vector_4" d="M40.3999 45.3921C40.3866 45.3668 40.3619 45.4406 40.3486 45.4018C40.3259 45.3299 40.343 45.2289 40.3392 45.0716C40.3354 44.9006 40.3012 44.7005 40.2784 44.6559C40.2614 44.6228 40.2405 44.6656 40.2234 44.65C40.212 44.6403 40.1912 44.5451 40.1836 44.5451C40.1475 44.551 40.1399 44.7705 40.1115 44.8443C40.1039 44.8443 40.0963 44.8501 40.0887 44.8598C40.0716 44.8307 40.0603 44.7219 40.0413 44.7355C40.0413 44.7355 40.0394 44.7433 40.0375 44.7452V44.7394C40.0299 44.7258 40.028 44.7433 40.028 44.7744C40.0242 44.7957 40.0223 44.8229 40.0204 44.8521C40.0128 44.8423 40.0033 44.8559 39.99 44.9142C39.9919 44.7918 39.9938 44.6695 39.9938 44.5451C39.9938 44.5451 39.9938 44.5432 39.9938 44.5413C40.0014 44.5471 40.0071 44.5451 40.0147 44.5296C40.0337 44.481 40.0223 44.4014 40.0318 44.3062C40.0432 44.1838 40.0546 44.2615 40.0716 44.2071C40.0925 44.1333 40.0963 44.044 40.0963 43.9294C40.1134 43.9604 40.1286 43.9935 40.1475 43.9935C40.1722 43.9935 40.2045 44.0887 40.2196 44.042C40.2481 43.9507 40.2272 43.6574 40.2443 43.5331C40.2576 43.4068 40.2879 43.4904 40.3088 43.436C40.3297 43.3796 40.3316 43.265 40.3354 43.1349C40.3411 42.9368 40.343 42.9309 40.3809 42.9018C40.3771 42.7619 40.3581 42.6279 40.3562 42.49C40.3449 42.3035 40.3619 42.288 40.3354 42.0607C40.3202 41.9461 40.2936 41.8315 40.2803 41.7382C40.2652 41.6159 40.2747 41.5712 40.2538 41.4235C40.2272 41.2662 40.2044 41.2409 40.1817 41.1147C40.1608 40.9962 40.1627 40.9049 40.1437 40.7864C40.1191 40.6388 40.0887 40.5883 40.0697 40.4756C40.0413 40.3338 40.0621 40.3299 40.0546 40.2425C40.0394 40.0793 39.9863 39.8501 39.935 39.6345V39.6287C39.9179 39.5549 39.9028 39.483 39.8838 39.4169C39.8477 39.2887 39.8003 39.1314 39.77 39.0071C39.7643 38.9779 39.7586 38.9546 39.7529 38.9294C39.7529 38.8692 39.751 38.8109 39.7187 38.6885C39.6884 38.5758 39.6409 38.4535 39.5897 38.3369C39.5575 38.2534 39.5252 38.1699 39.4929 38.0766C39.4379 37.9212 39.4322 37.861 39.3981 37.7483C39.3298 37.4939 39.2064 37.2161 39.1097 36.9616C39.0167 36.7227 38.992 36.6003 38.8839 36.3653C38.7226 36.002 38.586 35.6699 38.4133 35.3163C38.4096 35.3105 38.4077 35.3047 38.4058 35.2988C38.4058 35.2988 38.4058 35.2969 38.4058 35.2949C38.3716 35.2075 38.3242 35.1279 38.2824 35.0444C38.2748 35.0269 38.2654 35.0075 38.2559 34.9919C38.1838 34.8307 38.1838 34.7763 38.1306 34.6481C38.0585 34.4752 37.9751 34.3548 37.8859 34.1644C37.8081 33.9993 37.7967 33.9313 37.6639 33.7371C37.5956 33.6419 37.5444 33.5681 37.478 33.4748C37.421 33.3894 37.366 33.2883 37.311 33.2029C37.2465 33.1019 37.1592 32.997 37.0757 32.9018C37.0017 32.7814 36.922 32.6551 36.8253 32.5191L36.7835 32.5327C36.1441 31.408 35.0854 30.2872 34.0589 29.281C34.0969 29.3256 34.1329 29.3723 34.1671 29.4208C34.0001 29.3159 33.7553 29.112 33.5694 28.9702C33.5542 28.9294 33.7497 29.011 33.4271 28.7487C33.4821 28.8186 33.6055 28.9469 33.5542 28.9294C33.3455 28.6963 33.04 28.4457 32.7004 28.1504C32.5278 28.0047 32.3342 27.8668 32.1369 27.7153C32.0382 27.6415 31.9358 27.5657 31.8333 27.488C31.7271 27.4162 31.6189 27.3423 31.5089 27.2685C30.6342 26.6722 29.6248 26.105 28.7065 25.6757C27.4542 25.1318 26.1033 24.6714 24.7202 24.3664C23.337 24.0595 21.9272 23.9158 20.5915 23.9313C20.9994 23.9371 20.8306 24.0304 20.5232 24.009C19.6694 23.8497 19.0755 24.0848 18.2065 24.0731C16.6773 24.3237 15.2656 24.5179 13.9451 25.1357L13.8995 25.0988C13.6851 25.1473 13.6453 25.2037 13.4347 25.293V25.2775C13.1805 25.3726 12.9053 25.4834 12.6644 25.6038C12.4234 25.7242 12.209 25.8311 12.0629 25.8855L12.0724 25.9437C11.784 26.0817 11.9016 25.9787 11.6265 26.1574L11.6208 26.1283L11.3097 26.3517C11.3021 26.305 11.0953 26.3983 10.8752 26.5401C10.6513 26.678 10.4008 26.8392 10.2775 26.8859C9.93408 27.1209 9.30226 27.5871 8.78998 27.9523C8.75772 27.9601 8.69511 27.995 8.61352 28.0455C8.53383 28.0999 8.43327 28.1737 8.32512 28.2553C8.11072 28.4204 7.85268 28.6069 7.66295 28.7662C6.93436 29.3956 5.97241 30.3862 5.1869 31.3322L5.25141 31.3536L5.21157 31.4022C5.05788 31.5517 4.94594 31.6586 5.03891 31.5789C4.8321 31.7363 4.60062 32.1753 4.42037 32.3637C4.55888 32.2608 4.55698 32.185 4.67082 32.0413C4.85107 31.8548 4.75241 32.0685 4.53232 32.3287C4.52662 32.3346 4.52283 32.3365 4.51334 32.3462L4.50765 32.3385L4.49057 32.3734C4.47919 32.3851 4.4716 32.3967 4.45642 32.4142C4.41089 32.4783 4.37863 32.5288 4.34827 32.5774C4.27997 32.6201 4.1832 32.7211 4.13956 32.7192C3.55708 33.605 3.25919 34.2635 2.7526 35.2308C2.7526 35.1687 2.66911 35.3474 2.58563 35.5106C2.50025 35.6718 2.43195 35.8291 2.43005 35.7106C2.22893 36.2448 2.4623 35.8019 2.48887 35.868C2.43384 36.0078 2.37313 36.1594 2.3181 36.3012C2.31621 36.3012 2.31431 36.3089 2.31052 36.3089C2.3238 36.2215 2.19667 36.4255 2.2479 36.2856C2.19098 36.4197 2.13216 36.5537 2.08473 36.6936C2.06196 36.7305 2.08473 36.6353 2.09611 36.5887C1.8229 37.4375 1.47758 38.0611 1.3201 38.8517C1.33717 38.9158 1.41496 38.5467 1.43204 38.6108C1.41496 38.6924 1.40168 38.7584 1.3884 38.8225C1.3144 39.0517 1.23282 39.279 1.1721 39.5141C1.14744 39.5976 1.12087 39.6986 1.09431 39.8307L1.05636 40.0036L1.04688 39.8715C1.03739 39.9783 1.0336 40.0618 1.02411 40.1512V40.1609L0.967189 40.1823L0.974779 40.3901C0.967189 40.4251 0.9596 40.4659 0.95201 40.5028C0.942524 40.5397 0.936832 40.5688 0.925447 40.6135C0.855245 40.6757 0.938729 40.2716 0.961497 40.0793C0.8875 40.3474 0.796427 41.0409 0.878014 40.835C0.840067 41.1632 0.767967 41.2759 0.726225 41.4507C0.733815 41.4566 0.783146 41.272 0.800222 41.2895C0.707252 41.8761 0.621871 42.488 0.587719 43.0242C0.574437 43.0242 0.553566 43.0533 0.549772 43.0086C0.589616 43.4496 0.462493 43.403 0.466288 44.0129C0.445417 44.8268 0.517517 45.7592 0.618076 46.6838C0.690176 47.1442 0.737609 47.6065 0.828682 48.0455C0.868527 48.267 0.908371 48.4826 0.946318 48.6943C0.991855 48.9041 1.03739 49.1081 1.08103 49.3043C1.13226 49.4131 1.1778 49.5451 1.22523 49.6889C1.27646 49.8307 1.32769 49.988 1.37891 50.1493C1.37322 50.1415 1.36563 50.1221 1.34666 50.0638L1.49465 50.6232L1.44342 50.6834L1.6066 51.0758C1.63506 51.2526 1.48706 50.7709 1.54968 51.0758L1.65593 51.206C1.64644 51.2273 1.72423 51.4915 1.77736 51.6664C1.83428 51.8392 1.84946 51.9266 1.69198 51.6061C1.8893 52.1248 2.08473 52.6434 2.3181 53.1465C2.468 53.4826 2.468 53.3058 2.62927 53.6788C2.64255 53.7662 2.54768 53.5584 2.53251 53.6069C2.8949 54.4752 3.18899 54.6831 3.52672 55.1803C3.64435 55.3882 3.7544 55.5921 3.8284 55.6621C3.84927 55.6873 3.87204 55.7184 3.89481 55.7495L4.00675 56.0176C4.02382 56.0117 4.06746 56.0234 4.13577 56.0817C4.14336 56.0914 4.15664 56.1069 4.15854 56.1069C4.15854 56.105 4.15854 56.103 4.15854 56.1011C4.19648 56.1361 4.23823 56.1788 4.28945 56.2487C4.41468 56.4818 4.34258 56.4624 4.36725 56.5459L4.5456 56.6236C5.3311 57.9329 6.73704 59.347 7.95324 60.4678C8.24923 60.6854 8.57178 60.9437 8.93228 61.1788C9.10873 61.2992 9.28898 61.4235 9.46733 61.5479C9.65137 61.6644 9.83352 61.7848 10.01 61.9033L9.92459 61.8625C10.0422 61.9441 10.1561 62.0277 10.2756 62.1054L10.6361 62.3326C10.4672 62.2122 10.2908 62.1015 10.1295 61.9713C10.2889 62.0646 10.4255 62.1131 10.5773 62.2083C10.7746 62.3326 10.9833 62.4783 11.2129 62.6104C11.4444 62.7406 11.6891 62.8765 11.9377 63.0164C12.1938 63.1427 12.4576 63.267 12.7251 63.3874C12.9926 63.5059 13.2696 63.6011 13.5372 63.6963C14.26 63.842 13.9716 63.9663 14.6642 64.1158C14.6035 64.1061 14.5788 64.1158 14.5238 64.11C15.2637 64.2984 15.6679 64.3897 16.4211 64.4869C16.3699 64.5354 16.4913 64.5646 16.6147 64.584C16.7399 64.5995 16.8689 64.6073 16.831 64.6326L16.8993 64.5956C17.0624 64.6559 17.4533 64.7374 17.3945 64.7608C17.5064 64.7608 17.6184 64.7608 17.7322 64.753L17.7569 64.8054C17.9789 64.8326 18.3261 64.8734 18.6486 64.9123C18.9712 64.9395 19.2691 64.9783 19.3867 65.0366C19.9388 65.0308 20.6503 65.0366 21.396 65.0055C21.5819 65.0036 21.7717 64.9919 21.9595 64.9744C22.1492 64.9608 22.3371 64.9472 22.5249 64.9336C22.8987 64.9026 23.2649 64.8501 23.6102 64.8113C23.7942 64.7433 24.1908 64.6617 24.502 64.6015C24.6177 64.6015 24.7334 64.5956 24.8473 64.5879C25.1565 64.4927 25.4677 64.3528 25.7675 64.3043C25.7675 64.312 25.758 64.3198 25.739 64.3295C26.0483 64.2246 26.3595 64.1722 26.6327 64.0284C26.9325 63.9274 27.2322 63.8497 27.2417 63.8925C27.2816 63.8478 27.4372 63.8012 27.5889 63.7545C27.7673 63.7002 27.9475 63.6555 27.9475 63.6555C27.9475 63.6555 28.1354 63.5817 28.4769 63.4457C28.8108 63.2922 29.3023 63.0883 29.8866 62.7736C30.4767 62.4725 31.1541 62.0626 31.8884 61.5712C32.6131 61.0642 33.3835 60.462 34.1424 59.7646C35.647 58.3544 37.1023 56.5479 38.1287 54.5859C38.6486 53.6108 39.0793 52.6104 39.4095 51.6372C39.7282 50.6601 39.9692 49.7219 40.1115 48.8633C40.1399 48.7759 40.1684 48.6438 40.1874 48.537C40.212 48.4146 40.2405 48.3078 40.2633 48.1834C40.2936 48.0222 40.2879 48.0009 40.3088 47.8513C40.3467 47.6085 40.3524 47.3851 40.3676 47.1656C40.3373 47.387 40.3183 47.6104 40.2747 47.8319C40.3107 47.6124 40.3088 47.4103 40.3278 47.2122C40.3449 46.9713 40.4056 46.7071 40.4113 46.4604C40.417 46.3089 40.4113 46.2565 40.4264 46.0953C40.4397 45.9554 40.4511 46.0117 40.4587 45.8194C40.4701 45.6349 40.4283 45.427 40.4037 45.3824L40.3999 45.3921ZM3.82081 55.6699C3.8303 55.6796 3.83978 55.6854 3.84927 55.6893C3.86065 55.7068 3.86824 55.7204 3.87963 55.7398L3.82081 55.6699Z" fill="#FC8368"/>
<path id="Vector_5" d="M40.3809 46.8023C40.3752 46.9306 40.3676 47.0529 40.3619 47.1773L40.4094 46.7946C40.4037 46.7693 40.3942 46.7732 40.3809 46.8023Z" fill="#FC8368"/>
</g>
<g id="Group_2">
<path id="Vector_6" d="M39.5252 38.3408C39.4929 38.2573 39.4607 38.1738 39.4284 38.0805C39.3734 37.9251 39.3677 37.8649 39.3335 37.7522C39.2652 37.4978 39.1419 37.22 39.0451 36.9655C38.9522 36.7266 38.9275 36.6042 38.8194 36.3692C38.6581 36.0059 38.5215 35.6738 38.3488 35.3202C38.345 35.3144 38.3431 35.3086 38.3412 35.3027C38.3412 35.3027 38.3412 35.3008 38.3412 35.2989C38.3071 35.2114 38.2596 35.1318 38.2179 35.0483C38.2103 35.0308 38.2008 35.0114 38.1913 34.9958C38.1192 34.8346 38.1192 34.7802 38.0661 34.652C37.994 34.4791 37.9105 34.3587 37.8214 34.1683C37.7436 34.0032 37.7322 33.9352 37.5994 33.741C37.5311 33.6458 37.4798 33.572 37.4134 33.4787C37.3565 33.3933 37.3015 33.2923 37.2465 33.2068C37.1819 33.1058 37.0947 33.0009 37.0112 32.9057C36.9372 32.7853 36.8575 32.659 36.7607 32.523L36.719 32.5366C36.0796 31.4119 35.0209 30.2911 33.9944 29.2849C34.0323 29.3295 34.0684 29.3762 34.1025 29.4247C33.9356 29.3198 33.6908 29.1159 33.5049 28.9741C33.4897 28.9333 33.6851 29.0149 33.3626 28.7526C33.4176 28.8226 33.5409 28.9508 33.4897 28.9333C33.281 28.7002 32.9755 28.4496 32.6359 28.1543C32.4632 28.0086 32.2697 27.8707 32.0724 27.7192C31.9737 27.6454 31.8713 27.5696 31.7688 27.4919C31.6625 27.4201 31.5544 27.3463 31.4443 27.2724C30.5697 26.6761 29.5603 26.1089 28.642 25.6796C27.3897 25.1357 26.0388 24.6753 24.6556 24.3703C23.2724 24.0634 21.8627 23.9197 20.527 23.9352C20.9349 23.941 20.766 24.0343 20.4587 24.0129C19.6049 23.8536 19.011 24.0887 18.142 24.077C16.6127 24.3276 15.2011 24.5219 13.8806 25.1396L13.835 25.1027C13.6206 25.1512 13.5808 25.2076 13.3702 25.2969V25.2814C13.1159 25.3766 12.8408 25.4873 12.5998 25.6077C12.3589 25.7281 12.1445 25.835 11.9984 25.8894L12.0079 25.9476C11.7195 26.0856 11.8371 25.9826 11.562 26.1613L11.5563 26.1322L11.2451 26.3556C11.2375 26.309 11.0307 26.4022 10.8106 26.544C10.5867 26.6819 10.3363 26.8431 10.213 26.8898C9.86954 27.1248 9.23773 27.591 8.72544 27.9562C8.69319 27.964 8.63057 27.9989 8.54899 28.0494C8.4693 28.1038 8.36874 28.1776 8.26059 28.2592C8.04619 28.4243 7.78815 28.6108 7.59841 28.7701C6.86983 29.3995 5.90787 30.3902 5.12237 31.3362L5.18688 31.3575L5.14703 31.4061C4.99335 31.5557 4.8814 31.6625 4.97437 31.5828C4.76756 31.7402 4.53609 32.1792 4.35584 32.3676C4.49434 32.2647 4.49245 32.1889 4.60629 32.0452C4.78654 31.8587 4.68787 32.0724 4.46778 32.3327C4.46209 32.3385 4.45829 32.3404 4.44881 32.3501L4.44312 32.3424L4.42604 32.3773C4.41466 32.389 4.40707 32.4006 4.39189 32.4181C4.34635 32.4822 4.3141 32.5327 4.28374 32.5813C4.21543 32.624 4.11867 32.725 4.07503 32.7231C3.49254 33.6089 3.19466 34.2674 2.68806 35.2348C2.68806 35.1726 2.60458 35.3513 2.5211 35.5145C2.43572 35.6757 2.36741 35.833 2.36551 35.7146C2.16439 36.2487 2.39777 35.8058 2.42433 35.8719C2.36931 36.0118 2.30859 36.1633 2.25357 36.3051C2.25167 36.3051 2.24978 36.3128 2.24598 36.3128C2.25926 36.2254 2.13214 36.4294 2.18337 36.2895C2.12645 36.4236 2.06763 36.5576 2.0202 36.6975C1.99743 36.7344 2.0202 36.6392 2.03158 36.5926C1.81718 37.2569 1.56104 37.7814 1.38458 38.3583H39.5385C39.5385 38.3583 39.5328 38.3447 39.5309 38.3389L39.5252 38.3408Z" fill="#067DFD"/>
<path id="Vector_7" d="M3.87959 9.00914C3.8682 8.98971 3.85872 8.97612 3.84923 8.95863C3.83974 8.95475 3.83215 8.94892 3.82077 8.93921L3.87959 9.00914Z" fill="#FC8368"/>
<path id="Vector_8" d="M13.5352 16.9754C13.5352 16.9754 13.5314 16.9754 13.5295 16.9735C13.5162 16.9695 13.5049 16.9675 13.4897 16.9656L13.5352 16.9774V16.9754Z" fill="#FC8368"/>
<path id="Vector_9" d="M14.5162 17.388C14.446 17.3663 14.3758 17.3466 14.2999 17.325C14.4118 17.3683 14.4725 17.382 14.5162 17.388Z" fill="#FC8368"/>
<path id="Vector_10" d="M40.3809 0.0696808C40.3752 0.197886 40.3676 0.320264 40.3619 0.444584L40.4093 0.0619108C40.4036 0.0366583 40.3942 0.0405433 40.3809 0.0696808Z" fill="#FC8368"/>
</g>
<path id="Vector_11" d="M15.4857 49.4694C17.9357 49.4694 19.9217 47.436 19.9217 44.9278C19.9217 42.4196 17.9357 40.3862 15.4857 40.3862C13.0358 40.3862 11.0497 42.4196 11.0497 44.9278C11.0497 47.436 13.0358 49.4694 15.4857 49.4694Z" fill="#010938"/>
<path id="Vector_12" d="M25.4279 49.4694C27.8778 49.4694 29.8639 47.436 29.8639 44.9278C29.8639 42.4196 27.8778 40.3862 25.4279 40.3862C22.9779 40.3862 20.9919 42.4196 20.9919 44.9278C20.9919 47.436 22.9779 49.4694 25.4279 49.4694Z" fill="#010938"/>
<path id="Vector_13" d="M0.523193 44.928H12.6492" stroke="#010938" stroke-width="1.5" stroke-miterlimit="10"/>
<path id="Vector_14" d="M28.2359 44.928H40.3619" stroke="#010938" stroke-width="1.5" stroke-miterlimit="10"/>
<path id="Vector_15" d="M15.7703 44.928H27.8963" stroke="#010938" stroke-width="1.5" stroke-miterlimit="10"/>
<path id="Vector_16" d="M15.7703 41.2739C15.7703 41.2739 11.3647 41.6041 12.1369 46.0855L15.7703 41.2739Z" fill="white"/>
<path id="Vector_17" d="M25.9401 41.2739C25.9401 41.2739 21.5345 41.6041 22.3067 46.0855L25.9401 41.2739Z" fill="white"/>
</g>
<defs>
<clipPath id="clip0_368_7066">
<rect width="40" height="65" fill="white" transform="translate(0.456787 0.0463867)"/>
</clipPath>
</defs>
</svg>
