<svg width="111" height="19" viewBox="0 0 111 19" fill="none" xmlns="http://www.w3.org/2000/svg">
<g id="Group 2608836">
<g id="Group">
<path id="Vector" d="M6.44644 18.9857C3.95503 18.9857 1.7165 17.6233 0.739292 15.5134C-0.46895 12.9012 0.661241 9.81848 3.30876 8.33775C2.39399 6.11522 3.04963 3.57519 5.06336 1.97323C6.16233 1.09865 7.57663 0.619507 9.04401 0.619507C10.7174 0.619507 12.3565 1.24874 13.5429 2.34558L14.2516 3.00079L16.5963 1.85777C17.4986 1.41904 18.5164 1.18813 19.5404 1.18813C21.9163 1.18813 24.0456 2.37155 25.0946 4.2737C26.5932 6.99558 25.4817 10.3582 22.6219 11.8505C23.212 13.9403 22.4814 16.2205 20.6737 17.6551C19.6185 18.4921 18.2291 18.954 16.768 18.954C15.004 18.954 13.2838 18.2987 12.0506 17.1586L11.9382 17.0547L9.30938 18.3334C8.42896 18.7635 7.43614 18.9886 6.44332 18.9886L6.44644 18.9857Z" fill="white"/>
<path id="Vector_2" d="M24.1115 4.73548C22.8252 2.40326 19.622 1.54311 17.1149 2.76118L14.8452 3.86667C15.3884 4.56518 15.7849 5.36183 15.9879 6.20177C16.0409 6.42114 15.9192 6.65205 15.6725 6.71555C15.4446 6.77328 15.1699 6.64339 15.1168 6.42403C15.0075 5.97086 14.8421 5.5379 14.6204 5.1338C14.355 4.64311 13.9866 4.20438 13.5683 3.81472L12.7596 3.06714C10.8677 1.31797 7.81115 1.13902 5.78493 2.74963C3.7587 4.36025 3.50581 6.86565 4.76713 8.77067L4.15208 9.07086C1.79492 10.2168 0.705313 12.8463 1.75433 15.1121C2.92823 17.6521 6.20016 18.6884 8.79461 17.427L11.3485 16.1858C11.2205 16.0386 11.0862 15.9001 10.9738 15.7385C10.6304 15.2535 10.3681 14.7138 10.187 14.1596C10.1184 13.9431 10.2713 13.7064 10.5024 13.6458C10.7397 13.5852 10.9863 13.7209 11.0581 13.9373C11.2205 14.4367 11.4328 14.8668 11.7543 15.317C11.873 15.4845 12.0072 15.6403 12.1508 15.7933L12.1883 15.8308L12.8377 16.4341C14.7265 18.1804 17.9298 18.4834 19.9591 16.8757C21.7387 15.4642 22.1696 13.1926 21.2673 11.3569L21.9541 11.0221C24.405 9.82998 25.3666 7.01285 24.1146 4.73548H24.1115Z" fill="#0074FF"/>
</g>
<g id="Group_2">
<path id="Vector_3" d="M46.4031 2.58447V16.3391H39.4116L37.992 11.7135V16.3391H33.1309V2.58447H40.1407L42.0397 8.05464L42.519 7.93085L41.3473 4.64147V2.58447H46.405H46.4031Z" fill="white"/>
<path id="Vector_4" d="M47.2954 10.7285C47.2954 9.84931 47.4423 9.05199 47.7398 8.33659C48.0355 7.6212 48.4634 7.01502 49.0254 6.51624C49.5873 6.01746 50.276 5.63337 51.0933 5.36396C51.9087 5.09455 52.8434 4.95984 53.8976 4.95984C55.2694 4.95984 56.397 5.10911 57.2786 5.40765C58.1601 5.70618 58.8487 6.17219 59.3464 6.80568V12.2413C58.1748 12.2413 57.0269 12.1976 55.9049 12.1102C54.7809 12.0228 53.6625 11.8663 52.5514 11.6442V12.2595C53.0601 12.3887 53.5982 12.4906 54.1657 12.5671C54.7332 12.6436 55.3098 12.7018 55.8957 12.7437C56.4815 12.7855 57.0674 12.8147 57.6532 12.831C58.239 12.8493 58.8028 12.8565 59.3483 12.8565V14.7552C58.5549 15.3759 57.666 15.7964 56.678 16.013C55.69 16.2296 54.5642 16.3389 53.297 16.3389C52.3972 16.3389 51.5781 16.2133 50.8398 15.9602C50.0997 15.7072 49.4698 15.3413 48.9501 14.8607C48.4285 14.3802 48.0245 13.794 47.7343 13.1023C47.4442 12.4105 47.2991 11.6187 47.2991 10.7285H47.2954ZM52.5478 8.44218V8.95187C52.7718 9.01013 53.0289 9.0611 53.3191 9.10114C53.6093 9.14301 53.9049 9.17942 54.2061 9.21583C54.5073 9.25041 54.8011 9.27772 55.0839 9.2941C55.3668 9.31048 55.622 9.31959 55.8461 9.31959V8.82627C55.622 8.82627 55.3704 8.81717 55.0913 8.80079C54.814 8.78258 54.5293 8.7571 54.2392 8.72251C53.949 8.68792 53.657 8.64606 53.3613 8.59873C53.0656 8.5514 52.7938 8.49861 52.5459 8.44036L52.5478 8.44218Z" fill="white"/>
<path id="Vector_5" d="M61.8647 16.3394L59.9492 5.59387H64.9004L65.3981 9.09441L66.1786 5.59387H69.0361L69.8167 9.09441L70.3143 5.59387H75.2655L73.3501 16.3394H68.3989L67.6184 13.2958L66.8195 16.3394H61.8683H61.8647Z" fill="white"/>
<path id="Vector_6" d="M81.7589 2.58447C83.0243 2.58447 84.1078 2.68095 85.0058 2.87391C85.9039 3.06687 86.6385 3.38725 87.2059 3.83324C87.7734 4.27922 88.1903 4.86174 88.4566 5.5826C88.7229 6.30346 88.8551 7.18633 88.8551 8.22939C88.8551 10.1062 88.3023 11.5133 87.1968 12.4508C86.0912 13.3883 84.4732 13.8051 82.3429 13.6996V16.3372H76.3101V2.58447H81.7571H81.7589ZM80.5175 8.02005C80.7654 8.18388 81.0831 8.32587 81.4669 8.44237C81.8507 8.55887 82.2566 8.65899 82.6827 8.74091C83.1087 8.82282 83.5348 8.88472 83.9609 8.92477C84.3869 8.96663 84.7652 8.98666 85.0958 8.98666V8.49334C84.7652 8.49334 84.3979 8.46968 83.9958 8.42235C83.5936 8.37502 83.195 8.31131 82.7984 8.22939C82.4017 8.14747 82.0289 8.05099 81.6799 7.93995C81.331 7.82891 81.05 7.70877 80.837 7.57952L80.5175 8.02005Z" fill="white"/>
<path id="Vector_7" d="M95.88 16.3391H89.8472V2.58447H95.88V16.3391Z" fill="white"/>
<path id="Vector_8" d="M97.5454 13.3393C97.2368 12.5147 97.0954 11.7155 97.1211 10.9437C97.1468 10.1719 97.336 9.45465 97.6868 8.79386C98.0375 8.13308 98.5499 7.536 99.2202 7.00082C99.8906 6.46563 100.719 6.01782 101.707 5.65375C102.992 5.18046 104.102 4.93107 105.033 4.90741C105.964 4.88374 106.774 5.08216 107.462 5.50448L109.37 10.5997C108.272 11.0038 107.181 11.3587 106.098 11.6646C105.013 11.9704 103.911 12.2107 102.79 12.3854L103.007 12.9625C103.529 12.9079 104.07 12.8187 104.629 12.6931C105.187 12.5693 105.749 12.4255 106.313 12.2616C106.877 12.0978 107.435 11.9231 107.991 11.7374C108.546 11.5517 109.078 11.366 109.589 11.1767L110.256 12.957C109.73 13.8126 109.044 14.5134 108.193 15.0577C107.343 15.602 106.326 16.0917 105.139 16.5285C104.296 16.838 103.485 17.0037 102.702 17.0219C101.92 17.0401 101.202 16.9145 100.544 16.6432C99.8869 16.372 99.301 15.9624 98.7868 15.4145C98.2726 14.8666 97.8576 14.1748 97.5454 13.3393ZM101.666 9.38366L101.846 9.86241C102.078 9.84057 102.337 9.7987 102.623 9.73681C102.91 9.67491 103.2 9.60938 103.496 9.53839C103.791 9.46739 104.074 9.39094 104.346 9.30902C104.618 9.22711 104.86 9.14883 105.071 9.07056L104.899 8.60819C104.687 8.68646 104.449 8.76474 104.182 8.84301C103.916 8.92311 103.641 8.99592 103.356 9.06328C103.071 9.13063 102.783 9.19252 102.489 9.25077C102.195 9.30902 101.922 9.35271 101.668 9.38366H101.666Z" fill="white"/>
</g>
</g>
</svg>
