<svg width="144" height="27" viewBox="0 0 144 27" fill="none" xmlns="http://www.w3.org/2000/svg">
<g id="Group">
<path id="Vector" d="M25.1669 0.0668945V24.801H12.2198L9.59088 16.4832V24.801H0.588745V0.0668945H13.5699L17.0864 9.90356L17.9741 9.68097L15.8043 3.76587V0.0668945H25.1703H25.1669Z" fill="white"/>
<path id="Vector_2" d="M26.8192 14.7119C26.8192 13.1308 27.0913 11.6971 27.6422 10.4106C28.1898 9.12414 28.9822 8.03408 30.0228 7.13716C31.0635 6.24024 32.3389 5.54955 33.8522 5.06508C35.3622 4.58061 37.0933 4.33838 39.0454 4.33838C41.5858 4.33838 43.674 4.6068 45.3064 5.14364C46.9388 5.68049 48.2142 6.51848 49.1358 7.65764V17.4321C46.966 17.4321 44.8405 17.3535 42.7625 17.1964C40.6812 17.0393 38.6101 16.7578 36.5525 16.3584V17.4648C37.4946 17.6973 38.491 17.8806 39.5419 18.0181C40.5928 18.1555 41.6607 18.2603 42.7455 18.3356C43.8304 18.4109 44.9153 18.4632 46.0002 18.4927C47.0851 18.5254 48.1291 18.5385 49.1392 18.5385V21.9527C47.67 23.069 46.024 23.8251 44.1943 24.2147C42.3646 24.6042 40.2799 24.8006 37.9333 24.8006C36.2669 24.8006 34.7501 24.5747 33.3829 24.1197C32.0124 23.6647 30.8459 23.0068 29.8834 22.1426C28.9176 21.2784 28.1694 20.2243 27.632 18.9804C27.0947 17.7365 26.826 16.3126 26.826 14.7119H26.8192ZM36.5457 10.6005V11.517C36.9606 11.6218 37.4368 11.7134 37.9741 11.7854C38.5114 11.8607 39.059 11.9262 39.6167 11.9917C40.1745 12.0539 40.7186 12.103 41.2424 12.1324C41.7661 12.1619 42.2388 12.1782 42.6537 12.1782V11.2911C42.2388 11.2911 41.7729 11.2748 41.256 11.2453C40.7424 11.2126 40.2153 11.1668 39.6779 11.1046C39.1406 11.0424 38.5999 10.9671 38.0523 10.882C37.5048 10.7969 37.0015 10.7019 36.5423 10.5972L36.5457 10.6005Z" fill="white"/>
<path id="Vector_3" d="M53.8 24.8016L50.2529 5.47852H59.4217L60.3433 11.7733L61.7887 5.47852H67.0805L68.5259 11.7733L69.4475 5.47852H78.6163L75.0692 24.8016H65.9004L64.455 19.3284L62.9756 24.8016H53.8068H53.8Z" fill="white"/>
<path id="Vector_4" d="M90.6408 0.0668945C92.9841 0.0668945 94.9906 0.240386 96.6536 0.58737C98.3166 0.934354 99.677 1.51048 100.728 2.31247C101.779 3.11446 102.551 4.16196 103.044 5.45824C103.537 6.75452 103.782 8.34213 103.782 10.2178C103.782 13.5927 102.758 16.1231 100.711 17.8089C98.6635 19.4947 95.6673 20.2443 91.7223 20.0545V24.7977H80.5504V0.0668945H90.6374H90.6408ZM88.3418 9.84136C88.801 10.136 89.3893 10.3913 90.1001 10.6008C90.8109 10.8103 91.5625 10.9903 92.3515 11.1376C93.1405 11.2849 93.9295 11.3962 94.7185 11.4683C95.5075 11.5435 96.2081 11.5796 96.8202 11.5796V10.6925C96.2081 10.6925 95.5279 10.6499 94.7831 10.5648C94.0383 10.4797 93.3003 10.3651 92.5657 10.2178C91.8311 10.0705 91.1408 9.89701 90.4946 9.69733C89.8484 9.49765 89.3281 9.28161 88.9336 9.04919L88.3418 9.84136Z" fill="white"/>
<path id="Vector_5" d="M116.791 24.801H105.619V0.0668945H116.791V24.801Z" fill="white"/>
<path id="Vector_6" d="M119.875 19.4062C119.304 17.9233 119.042 16.4863 119.089 15.0983C119.137 13.7104 119.487 12.4207 120.137 11.2324C120.786 10.0442 121.735 8.97047 122.977 8.00808C124.218 7.04569 125.752 6.24043 127.581 5.58574C129.962 4.73465 132.016 4.28619 133.74 4.24363C135.465 4.20108 136.964 4.55788 138.24 5.31732L141.773 14.4797C139.74 15.2064 137.719 15.8447 135.713 16.3946C133.703 16.9446 131.662 17.3766 129.588 17.6909L129.989 18.7286C130.955 18.6304 131.958 18.47 132.992 18.2441C134.026 18.0215 135.067 17.7629 136.111 17.4683C137.155 17.1737 138.189 16.8594 139.219 16.5256C140.246 16.1917 141.233 15.8578 142.178 15.5173L143.412 18.7188C142.44 20.2573 141.168 21.5175 139.593 22.4963C138.019 23.475 136.135 24.3556 133.938 25.1412C132.377 25.6977 130.873 25.9956 129.425 26.0283C127.976 26.0611 126.646 25.8352 125.429 25.3475C124.211 24.8597 123.126 24.1232 122.174 23.1379C121.222 22.1526 120.453 20.9087 119.875 19.4062ZM127.507 12.293L127.84 13.1539C128.268 13.1146 128.748 13.0393 129.278 12.9281C129.809 12.8168 130.346 12.6989 130.894 12.5712C131.441 12.4436 131.965 12.3061 132.468 12.1588C132.972 12.0115 133.421 11.8707 133.812 11.73L133.492 10.8985C133.101 11.0393 132.659 11.18 132.166 11.3208C131.673 11.4648 131.162 11.5958 130.635 11.7169C130.108 11.838 129.574 11.9493 129.03 12.054C128.486 12.1588 127.979 12.2374 127.51 12.293H127.507Z" fill="white"/>
</g>
</svg>
