<svg width="222" height="162" viewBox="0 0 222 162" fill="none" xmlns="http://www.w3.org/2000/svg">
<g id="Group">
<path id="Vector" d="M215.928 31.2974C203.771 8.35014 173.498 -0.113085 149.805 11.8717L128.355 22.749C133.489 29.6218 137.236 37.4602 139.154 45.7246C139.655 47.8831 138.505 50.1551 136.174 50.7799C134.02 51.3479 131.423 50.0699 130.922 47.9115C129.889 43.4526 128.325 39.1926 126.23 35.2166C123.722 30.3886 120.24 26.0718 116.287 22.2378L108.645 14.8822C90.7642 -2.32829 61.878 -4.0891 42.7287 11.7581C23.5794 27.6054 21.1894 52.2567 33.1098 71.0007L27.2971 73.9543C5.02023 85.2292 -5.2773 111.102 4.63666 133.396C15.7308 158.388 46.653 168.583 71.1723 156.173L95.3081 143.961C94.0983 142.512 92.8296 141.149 91.7674 139.559C88.5217 134.787 86.0432 129.476 84.3319 124.024C83.6828 121.894 85.1285 119.565 87.312 118.968C89.5544 118.372 91.8854 119.707 92.564 121.837C94.0983 126.75 96.1047 130.982 99.1438 135.412C100.265 137.059 101.534 138.593 102.891 140.098L103.245 140.467L109.382 146.403C127.233 163.585 157.506 166.567 176.685 150.748C193.503 136.861 197.575 114.51 189.048 96.4472L195.539 93.1528C218.701 81.4236 227.789 53.7051 215.957 31.2974H215.928Z" fill="#0074FF"/>
</g>
</svg>
